<svg width="617" height="529" viewBox="0 0 617 529" fill="none" xmlns="http://www.w3.org/2000/svg">
<g clip-path="url(#clip0_3577_329)">
<mask id="path-1-inside-1_3577_329" fill="white">
<path d="M611.424 245.769C612.796 250.439 613.17 255.155 612.425 259.83C608.564 284.059 575.86 300.005 533.443 301.251C525.735 317.719 518.939 336.971 513.811 357.911C497.291 425.376 504.222 485.291 529.158 493.53C520.982 505.705 513.346 511.998 507.195 510.492C489.281 506.106 490.751 437.238 510.479 356.671C515.333 336.849 520.842 318.166 526.653 301.326C517.088 301.255 507.1 300.454 496.894 298.852C498.624 339.635 479.403 397.389 442.311 453.129C423.509 481.383 402.455 505.6 381.279 524.457C389.643 513.991 397.843 502.783 405.73 490.93C464.08 403.246 483.39 313.535 448.86 290.556C414.329 267.577 339.032 320.032 280.682 407.717C272.233 420.413 264.604 433.153 257.837 445.726C267.015 418.122 281.552 388.332 301.007 359.097C313.103 340.921 326.13 324.414 339.523 309.931C362.449 257.878 369.856 221.298 356.44 211.909C345.21 204.051 321.106 216.445 289.509 243.809C296.036 246.847 302.394 249.112 308.48 250.543C308.038 255.893 306.338 259.773 303.268 261.885C297.672 265.734 288.223 263.232 276.356 255.663C253.814 276.714 228.209 304.213 201.182 336.557C201.145 335.881 201.107 335.204 201.067 334.528C224.114 303.292 247.088 274.901 268.843 250.438C261.211 244.725 252.822 237.301 243.981 228.437C243.161 230.679 242.276 232.901 241.322 235.096C241.801 232.382 242.188 229.655 242.48 226.92C224.545 208.711 204.84 184.709 185.88 157.146C172.661 137.93 161.188 118.994 151.862 101.406C119.38 94.2985 83.5377 100.423 53.2796 121.237C34.2837 134.305 19.9066 151.498 10.6045 170.62C15.0126 137.993 32.651 107.273 61.9138 87.1432C84.2907 71.7504 110.02 64.9193 135.219 65.9334C123.773 37.2572 121.122 16.2039 130.043 10.0674C136.497 5.62809 148.078 9.6368 162.582 20.1247C157.768 33.2472 157.298 50.4022 160.885 69.738C188.06 76.7925 212.919 93.2904 230.081 118.238C250.441 147.836 255.82 183.298 247.882 215.642C258.447 224.964 269.127 232.703 279.527 238.633C333.689 179.865 378.765 147.606 395.985 159.63C412.003 170.817 400.345 217.832 369.243 281.563C382.294 270.701 395.302 261.935 407.767 255.569C400.195 245.998 396.63 235.755 398.233 225.699C400.942 208.695 417.859 195.77 442.368 189.142C441.337 192.241 440.548 195.446 440.022 198.745C439.892 199.56 439.781 200.376 439.685 201.19C433.295 208.907 428.653 218.921 426.846 230.263C425.893 236.243 425.806 242.118 426.473 247.703C445.482 241.543 462.414 242.06 475.177 250.553C484.402 256.692 490.622 266.45 493.989 278.906C501.271 281.813 509.083 283.992 517.301 285.302C522.245 286.09 527.146 286.531 531.97 286.65C548.451 243.351 566.456 215.751 578.636 218.734C584.906 220.269 588.801 229.704 590.37 244.773C574.978 242.026 556.753 258.506 541.008 286.495C572.3 284.628 599.21 269.057 611.424 245.769ZM239.094 486.675C238.931 486.886 238.767 487.098 238.604 487.309C238.757 487.08 238.911 486.85 239.064 486.621C239.074 486.639 239.084 486.658 239.094 486.675ZM222.957 148.81C209.94 129.886 192.178 116.073 172.167 107.773C179.464 126.065 189.613 145.118 202.437 163.761C215.035 182.074 228.923 198.116 243.129 211.337C242.608 189.539 236.059 167.856 222.957 148.81Z"/>
</mask>
<path d="M611.424 245.769C612.796 250.439 613.17 255.155 612.425 259.83C608.564 284.059 575.86 300.005 533.443 301.251C525.735 317.719 518.939 336.971 513.811 357.911C497.291 425.376 504.222 485.291 529.158 493.53C520.982 505.705 513.346 511.998 507.195 510.492C489.281 506.106 490.751 437.238 510.479 356.671C515.333 336.849 520.842 318.166 526.653 301.326C517.088 301.255 507.1 300.454 496.894 298.852C498.624 339.635 479.403 397.389 442.311 453.129C423.509 481.383 402.455 505.6 381.279 524.457C389.643 513.991 397.843 502.783 405.73 490.93C464.08 403.246 483.39 313.535 448.86 290.556C414.329 267.577 339.032 320.032 280.682 407.717C272.233 420.413 264.604 433.153 257.837 445.726C267.015 418.122 281.552 388.332 301.007 359.097C313.103 340.921 326.13 324.414 339.523 309.931C362.449 257.878 369.856 221.298 356.44 211.909C345.21 204.051 321.106 216.445 289.509 243.809C296.036 246.847 302.394 249.112 308.48 250.543C308.038 255.893 306.338 259.773 303.268 261.885C297.672 265.734 288.223 263.232 276.356 255.663C253.814 276.714 228.209 304.213 201.182 336.557C201.145 335.881 201.107 335.204 201.067 334.528C224.114 303.292 247.088 274.901 268.843 250.438C261.211 244.725 252.822 237.301 243.981 228.437C243.161 230.679 242.276 232.901 241.322 235.096C241.801 232.382 242.188 229.655 242.48 226.92C224.545 208.711 204.84 184.709 185.88 157.146C172.661 137.93 161.188 118.994 151.862 101.406C119.38 94.2985 83.5377 100.423 53.2796 121.237C34.2837 134.305 19.9066 151.498 10.6045 170.62C15.0126 137.993 32.651 107.273 61.9138 87.1432C84.2907 71.7504 110.02 64.9193 135.219 65.9334C123.773 37.2572 121.122 16.2039 130.043 10.0674C136.497 5.62809 148.078 9.6368 162.582 20.1247C157.768 33.2472 157.298 50.4022 160.885 69.738C188.06 76.7925 212.919 93.2904 230.081 118.238C250.441 147.836 255.82 183.298 247.882 215.642C258.447 224.964 269.127 232.703 279.527 238.633C333.689 179.865 378.765 147.606 395.985 159.63C412.003 170.817 400.345 217.832 369.243 281.563C382.294 270.701 395.302 261.935 407.767 255.569C400.195 245.998 396.63 235.755 398.233 225.699C400.942 208.695 417.859 195.77 442.368 189.142C441.337 192.241 440.548 195.446 440.022 198.745C439.892 199.56 439.781 200.376 439.685 201.19C433.295 208.907 428.653 218.921 426.846 230.263C425.893 236.243 425.806 242.118 426.473 247.703C445.482 241.543 462.414 242.06 475.177 250.553C484.402 256.692 490.622 266.45 493.989 278.906C501.271 281.813 509.083 283.992 517.301 285.302C522.245 286.09 527.146 286.531 531.97 286.65C548.451 243.351 566.456 215.751 578.636 218.734C584.906 220.269 588.801 229.704 590.37 244.773C574.978 242.026 556.753 258.506 541.008 286.495C572.3 284.628 599.21 269.057 611.424 245.769ZM239.094 486.675C238.931 486.886 238.767 487.098 238.604 487.309C238.757 487.08 238.911 486.85 239.064 486.621C239.074 486.639 239.084 486.658 239.094 486.675ZM222.957 148.81C209.94 129.886 192.178 116.073 172.167 107.773C179.464 126.065 189.613 145.118 202.437 163.761C215.035 182.074 228.923 198.116 243.129 211.337C242.608 189.539 236.059 167.856 222.957 148.81Z" fill="url(#paint0_linear_3577_329)"/>
<path d="M611.424 245.769L614.303 244.923L612.212 237.807L608.768 244.375L611.424 245.769ZM612.425 259.83L615.388 260.302L615.388 260.302L612.425 259.83ZM533.443 301.251L533.355 298.253L531.509 298.307L530.726 299.979L533.443 301.251ZM513.811 357.911L510.897 357.198V357.198L513.811 357.911ZM529.158 493.53L531.649 495.202L533.852 491.921L530.099 490.681L529.158 493.53ZM507.195 510.492L506.481 513.406L506.481 513.406L507.195 510.492ZM510.479 356.671L507.565 355.957V355.957L510.479 356.671ZM526.653 301.326L529.489 302.304L530.851 298.357L526.675 298.326L526.653 301.326ZM496.894 298.852L497.359 295.888L493.741 295.32L493.897 298.979L496.894 298.852ZM442.311 453.129L444.808 454.791V454.791L442.311 453.129ZM381.279 524.457L378.935 522.584L383.274 526.698L381.279 524.457ZM405.73 490.93L408.228 492.592V492.592L405.73 490.93ZM448.86 290.556L450.522 288.058L450.522 288.058L448.86 290.556ZM280.682 407.717L278.184 406.055V406.055L280.682 407.717ZM257.837 445.726L254.99 444.779L260.479 447.147L257.837 445.726ZM301.007 359.097L298.509 357.435V357.435L301.007 359.097ZM339.523 309.931L341.725 311.968L342.066 311.599L342.268 311.14L339.523 309.931ZM356.44 211.909L358.16 209.451L358.16 209.451L356.44 211.909ZM289.509 243.809L287.545 241.541L284.044 244.574L288.243 246.529L289.509 243.809ZM308.48 250.543L311.47 250.79L311.683 248.214L309.167 247.623L308.48 250.543ZM303.268 261.885L304.968 264.357L304.968 264.357L303.268 261.885ZM276.356 255.663L277.97 253.133L276.009 251.883L274.309 253.47L276.356 255.663ZM201.182 336.557L198.187 336.722L198.605 344.32L203.484 338.481L201.182 336.557ZM201.067 334.528L198.653 332.746L198.008 333.621L198.073 334.705L201.067 334.528ZM268.843 250.438L271.085 252.432L273.254 249.993L270.641 248.037L268.843 250.438ZM243.981 228.437L246.106 226.319L242.782 222.986L241.164 227.406L243.981 228.437ZM241.322 235.096L238.368 234.574L244.073 236.292L241.322 235.096ZM242.48 226.92L245.463 227.24L245.615 225.827L244.618 224.815L242.48 226.92ZM185.88 157.146L183.408 158.846V158.846L185.88 157.146ZM151.862 101.406L154.512 100.001L153.861 98.7729L152.503 98.4758L151.862 101.406ZM53.2796 121.237L51.5793 118.766L51.5793 118.766L53.2796 121.237ZM10.6045 170.62L7.63152 170.219L13.3023 171.933L10.6045 170.62ZM61.9138 87.1432L60.2135 84.6715L60.2135 84.6716L61.9138 87.1432ZM135.219 65.9334L135.098 68.9309L139.72 69.1169L138.005 64.8213L135.219 65.9334ZM130.043 10.0674L128.343 7.59568L128.342 7.59579L130.043 10.0674ZM162.582 20.1247L165.398 21.1579L166.18 19.025L164.339 17.6937L162.582 20.1247ZM160.885 69.738L157.935 70.2852L158.283 72.1621L160.131 72.6418L160.885 69.738ZM230.081 118.238L232.552 116.538L232.552 116.538L230.081 118.238ZM247.882 215.642L244.968 214.927L244.535 216.691L245.897 217.892L247.882 215.642ZM279.527 238.633L278.041 241.239L280.115 242.422L281.733 240.666L279.527 238.633ZM395.985 159.63L397.703 157.171L397.702 157.17L395.985 159.63ZM369.243 281.563L366.547 280.247L371.162 283.868L369.243 281.563ZM407.767 255.569L409.131 258.241L412.389 256.577L410.12 253.708L407.767 255.569ZM398.233 225.699L395.27 225.227L395.27 225.227L398.233 225.699ZM442.368 189.142L445.214 190.09L446.979 184.788L441.585 186.246L442.368 189.142ZM440.022 198.745L437.06 198.273L437.06 198.273L440.022 198.745ZM439.685 201.19L441.996 203.103L442.561 202.421L442.665 201.541L439.685 201.19ZM426.846 230.263L423.883 229.79L423.883 229.791L426.846 230.263ZM426.473 247.703L423.494 248.058L423.926 251.681L427.397 250.557L426.473 247.703ZM475.177 250.553L476.839 248.056L476.839 248.056L475.177 250.553ZM493.989 278.906L491.093 279.689L491.484 281.137L492.877 281.693L493.989 278.906ZM517.301 285.302L516.829 288.264L516.829 288.264L517.301 285.302ZM531.97 286.65L531.896 289.65L534.019 289.702L534.774 287.718L531.97 286.65ZM578.636 218.734L579.35 215.82L579.35 215.82L578.636 218.734ZM590.37 244.773L589.843 247.726L593.767 248.427L593.354 244.462L590.37 244.773ZM541.008 286.495L538.394 285.024L535.697 289.817L541.187 289.49L541.008 286.495ZM239.094 486.675L241.469 488.508L242.693 486.922L241.697 485.184L239.094 486.675ZM238.604 487.309L236.11 485.64L240.978 489.142L238.604 487.309ZM239.064 486.621L241.668 485.132L239.263 480.925L236.57 484.954L239.064 486.621ZM222.957 148.81L225.429 147.109L225.429 147.109L222.957 148.81ZM172.167 107.773L173.317 105.002L166.745 102.276L169.381 108.885L172.167 107.773ZM202.437 163.761L199.966 165.461V165.461L202.437 163.761ZM243.129 211.337L241.085 213.533L246.298 218.384L246.128 211.265L243.129 211.337ZM611.424 245.769L608.546 246.614C609.803 250.894 610.132 255.159 609.463 259.358L612.425 259.83L615.388 260.302C616.209 255.15 615.789 249.984 614.303 244.923L611.424 245.769ZM612.425 259.83L609.463 259.358C607.739 270.174 599.512 279.562 586.022 286.491C572.562 293.405 554.249 297.639 533.355 298.253L533.443 301.251L533.532 304.25C555.054 303.618 574.302 299.256 588.763 291.828C603.195 284.415 613.25 273.715 615.388 260.302L612.425 259.83ZM533.443 301.251L530.726 299.979C522.927 316.641 516.068 336.081 510.897 357.198L513.811 357.911L516.725 358.625C521.809 337.861 528.542 318.798 536.16 302.523L533.443 301.251ZM513.811 357.911L510.897 357.198C502.574 391.188 500.124 423.397 502.958 448.27C504.374 460.697 507.125 471.44 511.232 479.688C515.33 487.92 520.945 493.976 528.217 496.378L529.158 493.53L530.099 490.681C524.903 488.965 520.301 484.441 516.603 477.014C512.913 469.602 510.288 459.605 508.919 447.591C506.184 423.58 508.528 392.099 516.725 358.625L513.811 357.911ZM529.158 493.53L526.668 491.857C522.661 497.824 518.912 502.152 515.564 504.782C512.169 507.45 509.673 508.011 507.908 507.578L507.195 510.492L506.481 513.406C510.867 514.48 515.266 512.647 519.271 509.5C523.322 506.317 527.48 501.41 531.649 495.202L529.158 493.53ZM507.195 510.492L507.908 507.578C506.618 507.263 505.245 506.317 503.882 504.267C502.507 502.199 501.278 499.196 500.287 495.212C498.307 487.253 497.426 476.018 497.721 462.213C498.309 434.654 503.565 397.52 513.393 357.384L510.479 356.671L507.565 355.957C497.665 396.388 492.322 433.972 491.722 462.085C491.422 476.117 492.299 487.957 494.465 496.661C495.547 501.01 496.989 504.737 498.885 507.589C500.794 510.459 503.292 512.625 506.481 513.406L507.195 510.492ZM510.479 356.671L513.393 357.384C518.226 337.647 523.709 319.052 529.489 302.304L526.653 301.326L523.817 300.347C517.974 317.279 512.44 336.051 507.565 355.957L510.479 356.671ZM526.653 301.326L526.675 298.326C517.261 298.256 507.421 297.467 497.359 295.888L496.894 298.852L496.429 301.816C506.779 303.44 516.915 304.253 526.631 304.326L526.653 301.326ZM496.894 298.852L493.897 298.979C495.59 338.89 476.714 396.015 439.813 451.467L442.311 453.129L444.808 454.791C482.093 398.762 501.659 340.379 499.891 298.725L496.894 298.852ZM442.311 453.129L439.813 451.467C421.141 479.526 400.253 503.544 379.284 522.217L381.279 524.457L383.274 526.698C404.658 507.656 425.877 483.239 444.808 454.791L442.311 453.129ZM381.279 524.457L383.622 526.33C392.041 515.796 400.292 504.517 408.228 492.592L405.73 490.93L403.232 489.268C395.393 501.049 387.245 512.187 378.935 522.584L381.279 524.457ZM405.73 490.93L408.228 492.592C437.557 448.518 457.156 403.823 465.058 367.11C469.007 348.763 470.069 332.252 467.854 318.743C465.638 305.228 460.077 294.417 450.522 288.058L448.86 290.556L447.197 293.053C454.907 298.184 459.882 307.205 461.933 319.714C463.985 332.228 463.048 347.934 459.192 365.847C451.485 401.656 432.253 445.658 403.232 489.268L405.73 490.93ZM448.86 290.556L450.522 288.058C440.966 281.699 428.847 280.745 415.524 283.919C402.207 287.092 387.387 294.448 371.988 305.176C341.175 326.642 307.514 361.98 278.184 406.055L280.682 407.717L283.18 409.379C312.2 365.769 345.363 331.037 375.418 310.099C390.453 299.625 404.578 292.695 416.915 289.756C429.246 286.818 439.488 287.923 447.198 293.053L448.86 290.556ZM280.682 407.717L278.184 406.055C269.685 418.828 262.007 431.648 255.195 444.304L257.837 445.726L260.479 447.147C267.2 434.658 274.782 421.999 283.18 409.379L280.682 407.717ZM257.837 445.726L260.684 446.672C269.77 419.344 284.184 389.793 303.504 360.759L301.007 359.097L298.509 357.435C278.921 386.871 264.26 416.9 254.99 444.779L257.837 445.726ZM301.007 359.097L303.504 360.759C315.515 342.711 328.444 326.33 341.725 311.968L339.523 309.931L337.32 307.894C323.816 322.498 310.69 339.131 298.509 357.435L301.007 359.097ZM339.523 309.931L342.268 311.14C353.769 285.028 361.46 262.62 364.562 245.455C366.111 236.882 366.55 229.44 365.647 223.421C364.745 217.403 362.436 212.444 358.16 209.451L356.44 211.909L354.72 214.367C357.152 216.069 358.948 219.204 359.714 224.311C360.479 229.418 360.149 236.135 358.658 244.388C355.678 260.873 348.202 282.781 336.777 308.722L339.523 309.931ZM356.44 211.909L358.16 209.451C354.585 206.95 350.177 206.21 345.354 206.749C340.557 207.285 335.16 209.102 329.299 211.953C317.576 217.657 303.422 227.791 287.545 241.541L289.509 243.809L291.473 246.077C307.193 232.463 320.889 222.718 331.924 217.348C337.444 214.663 342.153 213.144 346.021 212.712C349.864 212.282 352.68 212.94 354.72 214.367L356.44 211.909ZM289.509 243.809L288.243 246.529C294.925 249.639 301.477 251.979 307.794 253.463L308.48 250.543L309.167 247.623C303.31 246.246 297.147 244.055 290.775 241.089L289.509 243.809ZM308.48 250.543L305.49 250.296C305.083 255.23 303.573 258.034 301.568 259.414L303.268 261.885L304.968 264.357C309.104 261.512 310.994 256.555 311.47 250.79L308.48 250.543ZM303.268 261.885L301.568 259.414C299.74 260.671 296.965 261.123 292.864 260.139C288.772 259.157 283.762 256.828 277.97 253.133L276.356 255.663L274.743 258.192C280.817 262.066 286.466 264.774 291.464 265.973C296.453 267.17 301.2 266.949 304.968 264.357L303.268 261.885ZM276.356 255.663L274.309 253.47C251.652 274.628 225.962 302.224 198.88 334.634L201.182 336.557L203.484 338.481C230.457 306.203 255.976 278.799 278.404 257.855L276.356 255.663ZM201.182 336.557L204.178 336.392C204.14 335.716 204.103 335.033 204.062 334.35L201.067 334.528L198.073 334.705C198.112 335.374 198.149 336.046 198.187 336.722L201.182 336.557ZM201.067 334.528L203.481 336.309C226.48 305.139 249.396 276.819 271.085 252.432L268.843 250.438L266.601 248.445C244.779 272.983 221.748 301.445 198.653 332.746L201.067 334.528ZM268.843 250.438L270.641 248.037C263.153 242.432 254.874 235.11 246.106 226.319L243.981 228.437L241.857 230.556C250.77 239.492 259.268 247.019 267.045 252.84L268.843 250.438ZM243.981 228.437L241.164 227.406C240.363 229.595 239.5 231.762 238.571 233.9L241.322 235.096L244.073 236.292C245.052 234.04 245.959 231.763 246.799 229.468L243.981 228.437ZM241.322 235.096L244.276 235.617C244.767 232.836 245.163 230.042 245.463 227.24L242.48 226.92L239.497 226.601C239.212 229.267 238.835 231.927 238.368 234.574L241.322 235.096ZM242.48 226.92L244.618 224.815C226.825 206.75 207.229 182.889 188.352 155.446L185.88 157.146L183.408 158.846C202.451 186.529 222.265 210.672 240.343 229.025L242.48 226.92ZM185.88 157.146L188.352 155.446C175.193 136.318 163.781 117.48 154.512 100.001L151.862 101.406L149.211 102.812C158.596 120.508 170.129 139.542 183.408 158.846L185.88 157.146ZM151.862 101.406L152.503 98.4758C119.223 91.1932 82.5311 97.4743 51.5793 118.766L53.2796 121.237L54.9798 123.709C84.5443 103.372 119.537 97.4039 151.22 104.337L151.862 101.406ZM53.2796 121.237L51.5793 118.766C32.1496 132.131 17.432 149.727 7.90676 169.308L10.6045 170.62L13.3023 171.933C22.3812 153.269 36.4177 136.478 54.9798 123.709L53.2796 121.237ZM10.6045 170.62L13.5775 171.022C17.8771 139.197 35.0773 109.245 63.614 89.6149L61.9138 87.1432L60.2135 84.6716C30.2246 105.301 12.1481 136.788 7.63152 170.219L10.6045 170.62ZM61.9138 87.1432L63.614 89.6149C85.4387 74.602 110.525 67.9421 135.098 68.9309L135.219 65.9334L135.34 62.9358C109.515 61.8966 83.1427 68.8988 60.2135 84.6715L61.9138 87.1432ZM135.219 65.9334L138.005 64.8213C132.329 50.5993 128.916 38.4619 127.978 29.2443C127.509 24.6341 127.676 20.9111 128.388 18.0852C129.093 15.2841 130.28 13.5454 131.743 12.5391L130.043 10.0674L128.342 7.59579C125.345 9.65771 123.518 12.8519 122.569 16.6202C121.627 20.3638 121.5 24.847 122.009 29.8517C123.028 39.8638 126.664 52.5912 132.433 67.0454L135.219 65.9334ZM130.043 10.0674L131.743 12.5392C133.852 11.0887 137.238 10.7167 142.382 12.3566C147.468 13.9778 153.694 17.3998 160.824 22.5557L162.582 20.1247L164.339 17.6937C156.966 12.3617 150.15 8.53536 144.205 6.64009C138.319 4.76354 132.688 4.60681 128.343 7.59568L130.043 10.0674ZM162.582 20.1247L159.765 19.0915C154.699 32.9014 154.293 50.6506 157.935 70.2852L160.885 69.738L163.834 69.1909C160.303 50.1539 160.836 33.5931 165.398 21.1579L162.582 20.1247ZM160.885 69.738L160.131 72.6418C186.635 79.5218 210.872 95.6077 227.609 119.938L230.081 118.238L232.552 116.538C214.966 90.973 189.486 74.0632 161.638 66.8343L160.885 69.738ZM230.081 118.238L227.609 119.938C247.464 148.801 252.711 183.379 244.968 214.927L247.882 215.642L250.795 216.357C258.929 183.217 253.418 146.87 232.552 116.538L230.081 118.238ZM247.882 215.642L245.897 217.892C256.593 227.329 267.438 235.193 278.041 241.239L279.527 238.633L281.013 236.027C270.816 230.212 260.301 222.599 249.866 213.393L247.882 215.642ZM279.527 238.633L281.733 240.666C308.746 211.356 333.382 188.782 353.311 175.055C363.289 168.182 371.936 163.634 379.004 161.51C386.126 159.37 391.061 159.851 394.267 162.09L395.985 159.63L397.702 157.17C392.299 153.397 385.142 153.401 377.277 155.764C369.357 158.144 360.121 163.079 349.907 170.114C329.453 184.203 304.47 207.142 277.321 236.6L279.527 238.633ZM395.985 159.63L394.267 162.09C397.248 164.172 399.319 168.175 399.952 174.728C400.582 181.252 399.725 189.816 397.359 200.228C392.632 221.022 382.054 248.472 366.547 280.247L369.243 281.563L371.939 282.878C387.534 250.923 398.336 223 403.209 201.557C405.643 190.85 406.641 181.58 405.924 174.151C405.209 166.751 402.73 160.682 397.703 157.171L395.985 159.63ZM369.243 281.563L371.162 283.868C384.075 273.122 396.899 264.488 409.131 258.241L407.767 255.569L406.402 252.898C393.705 259.382 380.512 268.281 367.324 279.257L369.243 281.563ZM407.767 255.569L410.12 253.708C402.895 244.576 399.763 235.157 401.195 226.171L398.233 225.699L395.27 225.227C393.497 236.352 397.495 247.421 405.414 257.431L407.767 255.569ZM398.233 225.699L401.195 226.171C403.616 210.981 418.974 198.576 443.151 192.038L442.368 189.142L441.585 186.246C416.744 192.964 398.269 206.409 395.27 225.227L398.233 225.699ZM442.368 189.142L439.521 188.195C438.439 191.447 437.611 194.811 437.06 198.273L440.022 198.745L442.985 199.217C443.485 196.081 444.234 193.035 445.214 190.09L442.368 189.142ZM440.022 198.745L437.06 198.273C436.923 199.133 436.806 199.989 436.706 200.838L439.685 201.19L442.665 201.541C442.757 200.763 442.862 199.988 442.985 199.217L440.022 198.745ZM439.685 201.19L437.375 199.276C430.631 207.421 425.772 217.936 423.883 229.79L426.846 230.263L429.808 230.735C431.534 219.905 435.959 210.394 441.996 203.103L439.685 201.19ZM426.846 230.263L423.883 229.791C422.886 236.045 422.794 242.198 423.494 248.058L426.473 247.703L429.451 247.347C428.817 242.038 428.899 236.442 429.808 230.735L426.846 230.263ZM426.473 247.703L427.397 250.557C445.928 244.552 461.803 245.257 473.515 253.051L475.177 250.553L476.839 248.056C463.025 238.863 445.035 238.535 425.548 244.849L426.473 247.703ZM475.177 250.553L473.515 253.051C481.992 258.692 487.866 267.749 491.093 279.689L493.989 278.906L496.885 278.124C493.379 265.15 486.813 254.693 476.839 248.056L475.177 250.553ZM493.989 278.906L492.877 281.693C500.366 284.682 508.392 286.92 516.829 288.264L517.301 285.302L517.774 282.339C509.774 281.065 502.177 278.944 495.101 276.12L493.989 278.906ZM517.301 285.302L516.829 288.264C521.905 289.073 526.939 289.527 531.896 289.65L531.97 286.65L532.045 283.651C527.353 283.535 522.584 283.106 517.774 282.339L517.301 285.302ZM531.97 286.65L534.774 287.718C542.975 266.172 551.5 248.687 559.4 237.018C563.36 231.17 567.061 226.936 570.365 224.367C573.713 221.764 576.175 221.22 577.923 221.648L578.636 218.734L579.35 215.82C575.007 214.756 570.651 216.544 566.682 219.63C562.67 222.75 558.556 227.563 554.432 233.654C546.164 245.865 537.446 263.83 529.167 285.583L531.97 286.65ZM578.636 218.734L577.923 221.648C579.723 222.088 581.719 223.797 583.52 227.888C585.295 231.915 586.616 237.691 587.386 245.084L590.37 244.773L593.354 244.462C592.554 236.785 591.144 230.31 589.011 225.469C586.906 220.69 583.82 216.914 579.35 215.82L578.636 218.734ZM590.37 244.773L590.897 241.82C581.915 240.216 572.615 244.298 563.864 251.835C555.06 259.416 546.365 270.853 538.394 285.024L541.008 286.495L543.623 287.966C551.396 274.148 559.686 263.351 567.779 256.381C575.924 249.367 583.433 246.582 589.843 247.726L590.37 244.773ZM541.008 286.495L541.187 289.49C573.292 287.574 601.278 271.573 614.081 247.162L611.424 245.769L608.768 244.375C597.142 266.541 571.307 281.682 540.83 283.5L541.008 286.495ZM239.094 486.675L236.719 484.843C236.55 485.061 236.406 485.247 236.23 485.475L238.604 487.309L240.978 489.142C241.128 488.949 241.312 488.712 241.469 488.508L239.094 486.675ZM238.604 487.309L241.097 488.977C241.249 488.75 241.405 488.518 241.558 488.288L239.064 486.621L236.57 484.954C236.417 485.182 236.265 485.409 236.11 485.64L238.604 487.309ZM239.064 486.621L236.459 488.11C236.453 488.099 236.449 488.091 236.447 488.088C236.446 488.086 236.445 488.085 236.448 488.091C236.45 488.095 236.456 488.105 236.463 488.117C236.469 488.129 236.479 488.146 236.491 488.166L239.094 486.675L241.697 485.184C241.704 485.195 241.708 485.204 241.71 485.207C241.711 485.21 241.712 485.211 241.709 485.206C241.707 485.202 241.702 485.192 241.696 485.181C241.689 485.169 241.68 485.152 241.668 485.132L239.064 486.621ZM222.957 148.81L225.429 147.109C212.07 127.689 193.84 113.514 173.317 105.002L172.167 107.773L171.018 110.544C190.517 118.632 207.81 132.084 220.486 150.51L222.957 148.81ZM172.167 107.773L169.381 108.885C176.765 127.395 187.022 146.644 199.966 165.461L202.437 163.761L204.909 162.061C192.204 143.591 182.163 124.735 174.954 106.662L172.167 107.773ZM202.437 163.761L199.966 165.461C212.68 183.945 226.711 200.156 241.085 213.533L243.129 211.337L245.173 209.14C231.136 196.077 217.389 180.202 204.909 162.061L202.437 163.761ZM243.129 211.337L246.128 211.265C245.593 188.91 238.875 166.656 225.429 147.109L222.957 148.81L220.486 150.51C233.243 169.056 239.622 190.168 240.13 211.408L243.129 211.337Z" fill="#AAAAAA" mask="url(#path-1-inside-1_3577_329)"/>
</g>
<defs>
<linearGradient id="paint0_linear_3577_329" x1="525.023" y1="120.167" x2="152.281" y2="376.576" gradientUnits="userSpaceOnUse">
<stop stop-color="#70D6D8"/>
<stop offset="1" stop-color="#FDABCA"/>
</linearGradient>
<clipPath id="clip0_3577_329">
<rect width="617" height="529" fill="white"/>
</clipPath>
</defs>
</svg>
