<svg width="475" height="479" viewBox="0 0 475 479" fill="none" xmlns="http://www.w3.org/2000/svg">
<g clip-path="url(#clip0_3577_330)">
<mask id="path-1-inside-1_3577_330" fill="white">
<path d="M469.44 78.4649C451.489 33.668 401.27 7.81624 339.026 4.84785C398.834 44.1669 433.243 101.508 423.513 158.484C408.445 246.713 293.244 300.648 166.206 278.952C125.141 271.939 87.8678 257.879 56.7322 239.084C57.2145 240.474 57.7294 241.856 58.2799 243.23C68.717 269.275 90.0628 288.915 118.336 301.378C102.243 305.314 85.489 310.666 68.5655 317.447C43.4492 327.512 20.7771 339.596 1.68232 352.562C5.17516 351.084 8.708 349.626 12.2794 348.195C69.276 325.355 123.523 313.663 161.732 314.007C170.35 315.443 179.297 316.394 188.509 316.84C202.034 320.035 211.234 325.94 214.725 334.654C227.612 366.815 157.87 425.021 58.9511 464.662C53.9202 466.678 48.91 468.606 43.9311 470.448C67.9687 466.836 94.3947 459.673 121.248 448.912C206.036 414.935 262.977 357.962 248.43 321.659C247.296 318.829 245.761 316.208 243.855 313.798C267.768 310.154 292.475 303.494 317.073 293.637C430.612 248.138 498.829 151.802 469.44 78.4649Z"/>
</mask>
<path d="M469.44 78.4649C451.489 33.668 401.27 7.81624 339.026 4.84785C398.834 44.1669 433.243 101.508 423.513 158.484C408.445 246.713 293.244 300.648 166.206 278.952C125.141 271.939 87.8678 257.879 56.7322 239.084C57.2145 240.474 57.7294 241.856 58.2799 243.23C68.717 269.275 90.0628 288.915 118.336 301.378C102.243 305.314 85.489 310.666 68.5655 317.447C43.4492 327.512 20.7771 339.596 1.68232 352.562C5.17516 351.084 8.708 349.626 12.2794 348.195C69.276 325.355 123.523 313.663 161.732 314.007C170.35 315.443 179.297 316.394 188.509 316.84C202.034 320.035 211.234 325.94 214.725 334.654C227.612 366.815 157.87 425.021 58.9511 464.662C53.9202 466.678 48.91 468.606 43.9311 470.448C67.9687 466.836 94.3947 459.673 121.248 448.912C206.036 414.935 262.977 357.962 248.43 321.659C247.296 318.829 245.761 316.208 243.855 313.798C267.768 310.154 292.475 303.494 317.073 293.637C430.612 248.138 498.829 151.802 469.44 78.4649Z" fill="url(#paint0_linear_3577_330)"/>
<path d="M469.44 78.4649L472.225 77.349L472.225 77.349L469.44 78.4649ZM339.026 4.84785L337.378 7.35465L328.211 1.32873L339.168 1.85127L339.026 4.84785ZM423.513 158.484L426.47 158.989V158.989L423.513 158.484ZM166.206 278.952L165.701 281.909L165.701 281.909L166.206 278.952ZM56.7322 239.084L53.8981 240.068L51.1756 232.226L58.2826 236.516L56.7322 239.084ZM58.2799 243.23L55.4951 244.346L55.4951 244.346L58.2799 243.23ZM118.336 301.378L119.547 298.633L127.626 302.195L119.049 304.292L118.336 301.378ZM68.5655 317.447L67.4495 314.663V314.663L68.5655 317.447ZM1.68232 352.562L2.85107 355.325L-0.00293996 350.08L1.68232 352.562ZM12.2794 348.195L11.1635 345.411V345.411L12.2794 348.195ZM161.732 314.007L161.759 311.007L161.993 311.009L162.225 311.048L161.732 314.007ZM188.509 316.84L188.654 313.844L188.93 313.857L189.199 313.921L188.509 316.84ZM214.725 334.654L217.51 333.538L217.51 333.538L214.725 334.654ZM58.9511 464.662L60.0671 467.446V467.446L58.9511 464.662ZM43.9311 470.448L44.3769 473.415L42.8903 467.634L43.9311 470.448ZM121.248 448.912L122.364 451.697V451.697L121.248 448.912ZM248.43 321.659L251.215 320.543L251.215 320.543L248.43 321.659ZM243.855 313.798L241.501 315.658L238.299 311.609L243.403 310.832L243.855 313.798ZM317.073 293.637L318.189 296.422V296.422L317.073 293.637ZM469.44 78.4649L466.656 79.5809C449.326 36.3358 400.55 10.7853 338.883 7.84443L339.026 4.84785L339.168 1.85127C401.99 4.84717 453.651 31.0002 472.225 77.349L469.44 78.4649ZM339.026 4.84785L340.674 2.34105C401.035 42.0231 436.477 100.392 426.47 158.989L423.513 158.484L420.555 157.979C430.009 102.625 396.634 46.3106 337.378 7.35465L339.026 4.84785ZM423.513 158.484L426.47 158.989C418.724 204.344 385.291 240.572 338.12 262.657C290.937 284.747 229.747 292.847 165.701 281.909L166.206 278.952L166.711 275.995C229.703 286.753 289.632 278.733 335.576 257.223C381.532 235.707 413.233 200.853 420.555 157.979L423.513 158.484ZM166.206 278.952L165.701 281.909C124.283 274.836 86.6521 260.649 55.1819 241.653L56.7322 239.084L58.2826 236.516C89.0834 255.108 126 269.042 166.711 275.995L166.206 278.952ZM56.7322 239.084L59.5663 238.1C60.0339 239.447 60.5324 240.786 61.0646 242.114L58.2799 243.23L55.4951 244.346C54.9264 242.926 54.3952 241.5 53.8981 240.068L56.7322 239.084ZM58.2799 243.23L61.0646 242.114C71.1493 267.28 91.8259 286.413 119.547 298.633L118.336 301.378L117.126 304.123C88.2997 291.416 66.2847 271.271 55.4951 244.346L58.2799 243.23ZM118.336 301.378L119.049 304.292C103.097 308.194 86.4775 313.501 69.6814 320.232L68.5655 317.447L67.4495 314.663C84.5005 307.83 101.389 302.435 117.624 298.464L118.336 301.378ZM68.5655 317.447L69.6814 320.232C44.7508 330.223 22.2717 342.208 3.36757 355.044L1.68232 352.562L-0.00293996 350.08C19.2826 336.985 42.1475 324.802 67.4495 314.663L68.5655 317.447ZM1.68232 352.562L0.513563 349.799C4.02272 348.314 7.57319 346.849 11.1635 345.411L12.2794 348.195L13.3954 350.98C9.84278 352.404 6.32757 353.854 2.85107 355.325L1.68232 352.562ZM12.2794 348.195L11.1635 345.411C68.3771 322.483 123.027 310.658 161.759 311.007L161.732 314.007L161.705 317.007C124.019 316.668 70.1749 328.227 13.3954 350.98L12.2794 348.195ZM161.732 314.007L162.225 311.048C170.723 312.464 179.554 313.403 188.654 313.844L188.509 316.84L188.364 319.837C179.04 319.385 169.977 318.422 161.239 316.966L161.732 314.007ZM188.509 316.84L189.199 313.921C203.084 317.2 213.477 323.473 217.51 333.538L214.725 334.654L211.941 335.77C208.99 328.408 200.983 322.869 187.819 319.76L188.509 316.84ZM214.725 334.654L217.51 333.538C221.233 342.828 218.8 353.529 212.315 364.489C205.802 375.496 194.92 387.278 180.688 399.156C152.197 422.935 109.737 447.542 60.0671 467.446L58.9511 464.662L57.8352 461.877C107.085 442.141 148.955 417.825 176.843 394.55C190.801 382.901 201.121 371.625 207.151 361.433C213.209 351.196 214.662 342.561 211.941 335.77L214.725 334.654ZM58.9511 464.662L60.0671 467.446C55.011 469.472 49.9758 471.411 44.9719 473.262L43.9311 470.448L42.8903 467.634C47.8442 465.802 52.8294 463.883 57.8352 461.877L58.9511 464.662ZM43.9311 470.448L43.4852 467.481C67.2748 463.906 93.4763 456.809 120.132 446.128L121.248 448.912L122.364 451.697C95.3131 462.537 68.6626 469.765 44.3769 473.415L43.9311 470.448ZM121.248 448.912L120.132 446.128C162.241 429.253 197.302 406.715 219.968 384.037C231.304 372.694 239.434 361.422 243.853 350.916C248.265 340.427 248.904 330.908 245.645 322.774L248.43 321.659L251.215 320.543C255.229 330.561 254.206 341.777 249.383 353.243C244.568 364.692 235.89 376.593 224.211 388.278C200.846 411.657 165.042 434.595 122.364 451.697L121.248 448.912ZM248.43 321.659L245.645 322.775C244.623 320.223 243.236 317.852 241.501 315.658L243.855 313.798L246.208 311.937C248.286 314.565 249.97 317.435 251.215 320.543L248.43 321.659ZM243.855 313.798L243.403 310.832C267.084 307.224 291.569 300.625 315.957 290.852L317.073 293.637L318.189 296.422C293.382 306.363 268.452 313.085 244.306 316.763L243.855 313.798ZM317.073 293.637L315.957 290.852C372.271 268.285 417.213 233.158 444.406 194.757C471.62 156.326 480.844 114.987 466.656 79.5809L469.44 78.4649L472.225 77.349C487.425 115.28 477.235 158.778 449.303 198.224C421.349 237.7 375.414 273.49 318.189 296.422L317.073 293.637Z" fill="#AAAAAA" mask="url(#path-1-inside-1_3577_330)"/>
</g>
<defs>
<linearGradient id="paint0_linear_3577_330" x1="487.574" y1="123.717" x2="-14.4045" y2="324.875" gradientUnits="userSpaceOnUse">
<stop stop-color="#70D6D8"/>
<stop offset="1" stop-color="#FDABCA"/>
</linearGradient>
<clipPath id="clip0_3577_330">
<rect width="475" height="479" fill="white"/>
</clipPath>
</defs>
</svg>
