<svg width="582" height="504" viewBox="0 0 582 504" fill="none" xmlns="http://www.w3.org/2000/svg">
<g clip-path="url(#clip0_3602_755)">
<mask id="path-1-inside-1_3602_755" fill="white">
<path d="M550.566 26.0157C366.947 125.155 236.457 228.264 254.481 261.822C271.09 292.745 408.325 254.39 575.835 175.042C560.905 183.483 545.455 191.869 529.566 200.134C456.225 238.282 385.953 267.363 328.928 284.645C343.644 289.176 356.519 296.799 366.425 307.578C370.058 311.531 373.156 315.765 375.737 320.228C327.835 287.175 255.715 289.638 203.111 329.359C200.702 331.178 198.372 333.048 196.119 334.964C189.234 344.701 180.938 353.832 171.375 362.043C142.483 403.418 140.794 455.13 169.9 493.706C160.107 489.193 151.432 483.069 144.298 475.306C122.95 452.074 119.998 419.191 132.715 386.628C121.136 391.895 109.318 395.672 97.5509 398.027C115.401 387.988 131.213 376.183 144.584 363.314C151.794 351.898 160.935 340.832 171.882 330.576C193.576 297.188 199.82 260.989 185.267 231.194C161.618 182.776 90.8713 167.268 18.3151 190.91C24.2015 187.012 30.4398 183.432 37.0088 180.224C104.856 147.085 182.211 165.989 209.786 222.446C212.555 228.114 214.716 233.945 216.296 239.883C255.567 193.341 346.405 128.35 459.432 69.5598C490.626 53.3342 521.265 38.7507 550.566 26.0157ZM213.742 300.424C213.702 300.546 213.661 300.669 213.62 300.792C213.788 300.703 213.955 300.612 214.123 300.524C213.995 300.491 213.868 300.457 213.742 300.424Z"/>
</mask>
<path d="M550.566 26.0157C366.947 125.155 236.457 228.264 254.481 261.822C271.09 292.745 408.325 254.39 575.835 175.042C560.905 183.483 545.455 191.869 529.566 200.134C456.225 238.282 385.953 267.363 328.928 284.645C343.644 289.176 356.519 296.799 366.425 307.578C370.058 311.531 373.156 315.765 375.737 320.228C327.835 287.175 255.715 289.638 203.111 329.359C200.702 331.178 198.372 333.048 196.119 334.964C189.234 344.701 180.938 353.832 171.375 362.043C142.483 403.418 140.794 455.13 169.9 493.706C160.107 489.193 151.432 483.069 144.298 475.306C122.95 452.074 119.998 419.191 132.715 386.628C121.136 391.895 109.318 395.672 97.5509 398.027C115.401 387.988 131.213 376.183 144.584 363.314C151.794 351.898 160.935 340.832 171.882 330.576C193.576 297.188 199.82 260.989 185.267 231.194C161.618 182.776 90.8713 167.268 18.3151 190.91C24.2015 187.012 30.4398 183.432 37.0088 180.224C104.856 147.085 182.211 165.989 209.786 222.446C212.555 228.114 214.716 233.945 216.296 239.883C255.567 193.341 346.405 128.35 459.432 69.5598C490.626 53.3342 521.265 38.7507 550.566 26.0157ZM213.742 300.424C213.702 300.546 213.661 300.669 213.62 300.792C213.788 300.703 213.955 300.612 214.123 300.524C213.995 300.491 213.868 300.457 213.742 300.424Z" fill="url(#paint0_linear_3602_755)"/>
<path d="M550.566 26.0157L551.991 28.6555L549.37 23.2644L550.566 26.0157ZM254.481 261.822L251.838 263.241L251.838 263.241L254.481 261.822ZM575.835 175.042L577.312 177.653L574.551 172.331L575.835 175.042ZM529.566 200.134L530.951 202.795V202.795L529.566 200.134ZM328.928 284.645L328.058 281.774L318.659 284.622L328.045 287.512L328.928 284.645ZM366.425 307.578L368.634 305.548V305.548L366.425 307.578ZM375.737 320.228L374.033 322.697L378.334 318.726L375.737 320.228ZM203.111 329.359L201.303 326.965V326.965L203.111 329.359ZM196.119 334.964L194.176 332.678L193.888 332.923L193.67 333.232L196.119 334.964ZM171.375 362.043L169.421 359.767L169.133 360.014L168.915 360.326L171.375 362.043ZM169.9 493.706L168.644 496.431L172.295 491.9L169.9 493.706ZM144.298 475.306L142.089 477.336L142.089 477.336L144.298 475.306ZM132.715 386.628L135.51 387.72L138.197 380.839L131.473 383.898L132.715 386.628ZM97.5509 398.027L96.0803 395.412L98.1398 400.969L97.5509 398.027ZM144.584 363.314L146.664 365.475L146.926 365.223L147.12 364.916L144.584 363.314ZM171.882 330.576L173.933 332.765L174.199 332.516L174.397 332.21L171.882 330.576ZM185.267 231.194L187.963 229.877L187.963 229.877L185.267 231.194ZM18.3151 190.91L16.6586 188.409L19.2446 193.763L18.3151 190.91ZM37.0088 180.224L35.6921 177.528V177.528L37.0088 180.224ZM209.786 222.446L212.482 221.129V221.129L209.786 222.446ZM216.296 239.883L213.396 240.654L214.876 246.217L218.588 241.817L216.296 239.883ZM459.432 69.5598L458.047 66.8984V66.8984L459.432 69.5598ZM213.742 300.424L214.512 297.524L211.784 296.799L210.895 299.479L213.742 300.424ZM213.62 300.792L210.776 299.838L208.382 306.974L215.028 303.441L213.62 300.792ZM214.123 300.524L215.523 303.177L222.39 299.552L214.87 297.618L214.123 300.524ZM550.566 26.0157L549.141 23.3759C457.232 72.999 378.544 123.655 325.041 166.163C298.31 187.401 277.742 206.702 264.963 222.903C258.581 230.995 254.025 238.459 251.669 245.12C249.313 251.78 249.034 258.02 251.838 263.241L254.481 261.822L257.124 260.402C255.422 257.233 255.278 252.911 257.325 247.121C259.373 241.334 263.489 234.462 269.674 226.619C282.031 210.952 302.183 191.987 328.774 170.861C381.915 128.64 460.281 78.1718 551.991 28.6555L550.566 26.0157ZM254.481 261.822L251.838 263.241C254.416 268.041 259.187 271.198 265.3 273.091C271.406 274.982 279.148 275.713 288.225 275.465C306.395 274.969 330.608 270.523 359.36 262.678C416.912 246.974 493.271 217.471 577.119 177.753L575.835 175.042L574.551 172.331C490.889 211.961 414.876 241.31 357.78 256.889C329.209 264.686 305.529 268.99 288.061 269.467C279.32 269.706 272.307 268.98 267.075 267.36C261.849 265.741 258.698 263.333 257.124 260.402L254.481 261.822ZM575.835 175.042L574.359 172.43C559.459 180.854 544.04 189.224 528.182 197.472L529.566 200.134L530.951 202.795C546.87 194.515 562.351 186.112 577.312 177.653L575.835 175.042ZM529.566 200.134L528.182 197.472C454.967 235.555 384.869 264.557 328.058 281.774L328.928 284.645L329.798 287.516C387.038 270.169 457.483 241.01 530.951 202.795L529.566 200.134ZM328.928 284.645L328.045 287.512C342.326 291.909 354.719 299.273 364.216 309.608L366.425 307.578L368.634 305.548C358.32 294.325 344.962 286.443 329.811 281.778L328.928 284.645ZM366.425 307.578L364.216 309.608C367.701 313.4 370.669 317.457 373.14 321.73L375.737 320.228L378.334 318.726C375.643 314.073 372.414 309.662 368.634 305.548L366.425 307.578ZM375.737 320.228L377.441 317.759C328.371 283.9 254.835 286.543 201.303 326.965L203.111 329.359L204.919 331.753C256.595 292.733 327.299 290.451 374.033 322.697L375.737 320.228ZM203.111 329.359L201.303 326.965C198.848 328.819 196.472 330.725 194.176 332.678L196.119 334.964L198.063 337.249C200.272 335.37 202.557 333.536 204.919 331.753L203.111 329.359ZM196.119 334.964L193.67 333.232C186.929 342.764 178.801 351.713 169.421 359.767L171.375 362.043L173.329 364.319C183.076 355.951 191.538 346.638 198.569 336.696L196.119 334.964ZM171.375 362.043L168.915 360.326C139.384 402.618 137.513 455.763 167.505 495.513L169.9 493.706L172.295 491.9C144.075 454.497 145.583 404.219 173.835 363.761L171.375 362.043ZM169.9 493.706L171.155 490.982C161.691 486.62 153.349 480.721 146.507 473.276L144.298 475.306L142.089 477.336C149.515 485.417 158.524 491.767 168.644 496.431L169.9 493.706ZM144.298 475.306L146.507 473.276C126.134 451.106 123.089 419.522 135.51 387.72L132.715 386.628L129.921 385.537C116.906 418.859 119.765 453.042 142.089 477.336L144.298 475.306ZM132.715 386.628L131.473 383.898C120.102 389.07 108.504 392.775 96.9621 395.085L97.5509 398.027L98.1398 400.969C110.133 398.568 122.17 394.721 133.957 389.359L132.715 386.628ZM97.5509 398.027L99.0215 400.642C117.086 390.482 133.104 378.527 146.664 365.475L144.584 363.314L142.503 361.153C129.322 373.84 113.717 385.494 96.0803 395.412L97.5509 398.027ZM144.584 363.314L147.12 364.916C154.187 353.726 163.162 342.856 173.933 332.765L171.882 330.576L169.831 328.386C158.707 338.808 149.4 350.069 142.047 361.712L144.584 363.314ZM171.882 330.576L174.397 332.21C196.444 298.281 203.133 260.937 187.963 229.877L185.267 231.194L182.571 232.511C196.507 261.042 190.709 296.095 169.366 328.941L171.882 330.576ZM185.267 231.194L187.963 229.877C175.642 204.653 151.155 188.23 120.817 181.109C90.4829 173.989 54.0935 176.097 17.3857 188.058L18.3151 190.91L19.2446 193.763C55.0929 182.082 90.355 180.122 119.446 186.95C148.532 193.777 171.243 209.317 182.571 232.511L185.267 231.194ZM18.3151 190.91L19.9716 193.412C25.7493 189.585 31.8741 186.07 38.3254 182.919L37.0088 180.224L35.6921 177.528C29.0054 180.794 22.6536 184.439 16.6586 188.409L18.3151 190.91ZM37.0088 180.224L38.3254 182.919C105.169 150.271 180.459 169.237 207.091 223.763L209.786 222.446L212.482 221.129C183.964 162.741 104.543 143.899 35.6921 177.528L37.0088 180.224ZM209.786 222.446L207.091 223.763C209.773 229.254 211.866 234.902 213.396 240.654L216.296 239.883L219.195 239.111C217.566 232.988 215.337 226.974 212.482 221.129L209.786 222.446ZM216.296 239.883L218.588 241.817C257.472 195.735 347.883 130.964 460.816 72.2213L459.432 69.5598L458.047 66.8984C344.928 125.737 253.662 190.946 214.003 237.948L216.296 239.883ZM459.432 69.5598L460.816 72.2213C491.95 56.0268 522.527 41.4735 551.762 28.7671L550.566 26.0157L549.37 23.2644C520.004 36.028 489.301 50.6416 458.047 66.8984L459.432 69.5598ZM213.742 300.424L210.895 299.479C210.85 299.615 210.815 299.72 210.776 299.838L213.62 300.792L216.464 301.746C216.507 301.618 216.553 301.477 216.59 301.369L213.742 300.424ZM213.62 300.792L215.028 303.441C215.238 303.33 215.347 303.269 215.523 303.177L214.123 300.524L212.722 297.871C212.562 297.955 212.338 298.076 212.212 298.143L213.62 300.792ZM214.123 300.524L214.87 297.618C214.756 297.589 214.643 297.559 214.512 297.524L213.742 300.424L212.972 303.323C213.094 303.355 213.234 303.393 213.375 303.429L214.123 300.524Z" fill="#AAAAAA" mask="url(#path-1-inside-1_3602_755)"/>
</g>
<defs>
<linearGradient id="paint0_linear_3602_755" x1="587.07" y1="100.754" x2="74.6081" y2="351.054" gradientUnits="userSpaceOnUse">
<stop stop-color="#70D6D8"/>
<stop offset="1" stop-color="#FDABCA"/>
</linearGradient>
<clipPath id="clip0_3602_755">
<rect width="582" height="504" fill="white"/>
</clipPath>
</defs>
</svg>
