<svg width="701" height="297" viewBox="0 0 701 297" fill="none" xmlns="http://www.w3.org/2000/svg">
<path d="M0 94.8418L51.3137 47.6417L79.5752 52.717L123.784 88.7666L166.642 50.6869L203.73 41.5514L224.053 108.545L271.302 52.717L313.471 60.8374L337.349 113.62L349.543 77.5858L399.84 47.6417L422.633 0L481.129 6.53196V52.717L521.266 77.5858L551.241 50.6869L591.377 70.4804L612.208 52.717L642.691 60.8374L670.634 47.6417L700.609 77.5858L698.494 194.315L659.457 232.889L659.457 250.145L642.691 290.24L591.377 282.119L595.93 218.163L556.321 250.145L521.266 239.995L481.129 268.416L438.99 282.119L422.633 250.145L399.84 261.311L374.437 239.995L349.543 250.145L313.471 290.24L274.977 282.119L265.251 252.609L235.738 250.145L203.73 296.33L158.266 282.119L140.732 232.889H82.3051L44.2009 250.145L0 196.855V94.8418Z" fill="white"/>
<path d="M79.8531 200.591V106.994L53.1111 83.8734L40.5758 95.2016V188.799L65.8321 212.291L79.8531 200.591ZM64.9964 73.288L79.8531 86.1019L100.56 101.794V187.313L56.7324 222.505L55.061 223.805L53.3896 222.505L40.5758 209.691L19.8693 193.998V108.48L61.6537 73.288L63.325 71.9881L64.9964 73.288ZM197.871 254.261L206.785 243.49L208.27 244.604L185.985 271.253L168.9 259.554V212.941H104.367L179.393 70.5953L181.25 71.6167L107.802 210.898H168.9V113.958H189.792V210.898H202.328V212.941H189.792V248.782L197.871 254.261ZM311.153 254.261L320.067 243.49L321.553 244.604L299.268 271.253L282.182 259.554V212.941H217.649L292.675 70.5953L294.532 71.6167L221.084 210.898H282.182V113.958H303.075V210.898H315.61V212.941H303.075V248.782L311.153 254.261ZM403.729 203.098L418.399 182.763L382.558 153.607C375.129 165.554 370.301 176.542 368.072 186.57C366.339 194.37 365.101 201.489 364.358 207.927C369.62 197.465 376.367 192.234 384.601 192.234C391.534 192.234 397.91 195.856 403.729 203.098ZM363.801 108.016L394.165 132.808C406.112 115.475 413.633 101.144 416.728 89.8161C414.809 93.4064 412.395 96.223 409.485 98.2658C405.771 100.866 401.407 102.166 396.393 102.166C391.936 102.166 388.439 101.485 385.901 100.123C383.424 98.761 379.989 96.4706 375.594 93.2517L363.801 108.016ZM395.743 134.108L411.993 147.293C417.626 151.936 421.247 157.847 422.856 165.028C423.352 167.318 423.599 169.516 423.599 171.621C423.599 176.201 422.392 180.349 419.978 184.063C419.668 184.558 410.29 197.806 391.843 223.805C387.139 215.138 380.205 210.805 371.044 210.805C368.072 210.805 365.008 211.486 361.851 212.848C362.47 204.862 363.863 195.948 366.03 186.106C368.382 175.768 373.365 164.502 380.979 152.307L370.208 143.486C363.523 137.976 359.778 130.331 358.973 120.551H358.88C358.88 113.742 360.613 108.201 364.08 103.93L390.358 71.8024C394.381 78.9831 400.231 82.5735 407.907 82.5735C411.869 82.5735 414.778 81.7997 416.635 80.2521C418.554 78.7045 419.514 76.8474 419.514 74.6809C419.514 73.4428 419.08 72.1738 418.214 70.8738C417.409 69.5739 416.14 68.9239 414.407 68.9239C413.788 68.9239 413.169 69.0167 412.55 69.2025L411.9 67.2525C412.643 67.0049 413.385 66.8811 414.128 66.8811C415.181 66.8811 416.171 67.0978 417.1 67.5311C418.709 68.3358 419.947 69.6667 420.814 71.5238C421.371 72.6381 421.649 74.0309 421.649 75.7022C421.649 76.1356 421.618 76.5998 421.557 77.0951C421.495 78.0236 421.03 80.5616 420.164 84.7091C417.502 97.8944 409.362 114.361 395.743 134.108ZM458.605 103.93L485.255 71.9881L502.154 83.6877V184.527C502.154 211.146 492.899 231.604 474.391 245.904C465.167 253.085 455.944 257.635 446.72 259.554C461.205 249.216 471.357 233.895 477.176 213.591C480.024 203.439 481.447 194.339 481.447 186.292V94.4588L473.369 88.9804L458.605 106.808V197.62L466.498 204.212L449.691 223.805L429.913 209.969L437.899 201.427V31.8751C437.899 28.6561 436.073 25.2515 432.42 21.6611C433.101 21.5373 433.751 21.4754 434.37 21.4754C438.456 21.4754 442.015 23.6729 445.049 28.068C445.049 25.2205 443.996 22.4039 441.892 19.6183C446.472 20.2992 449.691 22.8992 451.548 27.4181C454.086 21.9087 457.955 18.8755 463.155 18.3184C460.06 21.9087 458.512 27.4181 458.512 34.8464L458.605 103.93ZM554.895 71.8952L584.887 92.7874V183.599L550.531 223.805L520.725 202.17V111.823L554.895 71.8952ZM541.431 187.127L564.181 202.727V108.294L541.431 92.6946V187.127ZM656.292 202.727V94.4588L648.214 88.9804L633.45 106.808L633.543 187.034L633.728 187.313L656.292 202.727ZM612.836 239.404H612.743V199.663C610.02 197.063 607.234 195.763 604.386 195.763C602.653 195.763 600.889 196.258 599.094 197.248C602.375 191.553 606.924 187.468 612.743 184.992V94.4588L604.665 88.9804L595.844 99.7515L594.265 98.6372L616.55 71.9881L633.45 83.6877V103.837L660.006 71.9881L676.998 83.6877V183.599L642.55 223.805L633.45 217.119V257.604C633.45 260.823 635.276 264.227 638.928 267.818C638.247 267.941 637.597 268.003 636.978 268.003C632.893 268.003 629.333 265.806 626.3 261.411C626.3 264.258 627.352 267.075 629.457 269.86C624.876 269.179 621.657 266.58 619.8 262.061C617.262 267.57 613.393 270.603 608.193 271.16C611.289 267.57 612.836 262.061 612.836 254.632V239.404Z" fill="black"/>
</svg>
