<svg width="561" height="234" viewBox="0 0 561 234" fill="none" xmlns="http://www.w3.org/2000/svg">
<g clip-path="url(#clip0_3581_503)">
<rect x="2.44854" y="3.44854" width="78.1029" height="40.1029" stroke="#FDABCA" stroke-width="2.89709"/>
<path d="M1.5 233.5H556" stroke="#FDABCA" stroke-width="2.89709"/>
<path d="M67.6 6H49.2V25.3857H30V45.6143" stroke="#FDABCA" stroke-width="2.89709"/>
<rect x="424.449" y="167.449" width="67.1029" height="65.1029" stroke="#FDABCA" stroke-width="2.89709"/>
<rect x="489.449" y="167.449" width="65.1029" height="65.1029" stroke="#FDABCA" stroke-width="2.89709"/>
<rect x="455.449" y="103.449" width="66.1029" height="65.1029" stroke="#FDABCA" stroke-width="2.89709"/>
<rect x="357.449" y="167.449" width="65.1029" height="65.1029" rx="30.4194" stroke="#FDABCA" stroke-width="2.89709"/>
<path d="M339 132H306.5M274 132H306.5M306.5 132V233" stroke="#FDABCA" stroke-width="2.89709"/>
<path d="M256 133H224M192 133H224M224 133V234" stroke="#FDABCA" stroke-width="2.89709"/>
<path d="M175 133H142.5M110 133H142.5M142.5 133V234" stroke="#FDABCA" stroke-width="2.89709"/>
<rect x="2.44854" y="43.4485" width="557.103" height="385.103" stroke="#FDABCA" stroke-width="2.89709"/>
</g>
<defs>
<clipPath id="clip0_3581_503">
<rect width="561" height="234" fill="white"/>
</clipPath>
</defs>
</svg>
