<svg width="562" height="198" viewBox="0 0 562 198" fill="none" xmlns="http://www.w3.org/2000/svg">
<g clip-path="url(#clip0_3581_549)">
<path d="M2.5 1.5H557" stroke="#FDABCA" stroke-width="2.89709"/>
<path d="M2 33H21.0571V52.3857H40.9429V72.6143H60V92" stroke="#FDABCA" stroke-width="2.81431"/>
<path d="M431.484 186V120H420H513.516M525 120H513.516M513.516 120V186" stroke="#FDABCA" stroke-width="2.89709"/>
<rect x="17.4485" y="138.449" width="103.103" height="39.1029" rx="14.4854" stroke="#FDABCA" stroke-width="2.89709"/>
<rect x="17.4485" y="110.449" width="103.103" height="29.1029" rx="14.4854" stroke="#FDABCA" stroke-width="2.89709"/>
<rect x="120.449" y="138.449" width="14.1029" height="38.1029" rx="7.05146" stroke="#FDABCA" stroke-width="2.89709"/>
<rect x="2.44854" y="138.449" width="15.1029" height="38.1029" rx="7.55146" stroke="#FDABCA" stroke-width="2.89709"/>
<rect x="163.449" y="140.449" width="102.103" height="39.1029" rx="14.4854" stroke="#FDABCA" stroke-width="2.89709"/>
<rect x="163.449" y="111.449" width="102.103" height="29.1029" rx="14.4854" stroke="#FDABCA" stroke-width="2.89709"/>
<rect x="265.449" y="140.449" width="15.1029" height="37.1029" rx="7.55146" stroke="#FDABCA" stroke-width="2.89709"/>
<rect x="148.449" y="140.449" width="16.1029" height="37.1029" rx="8.05146" stroke="#FDABCA" stroke-width="2.89709"/>
<rect x="308.449" y="83.4485" width="87.1029" height="51.1029" stroke="#FDABCA" stroke-width="2.89709"/>
<rect x="300.449" y="133.449" width="104.103" height="51.1029" stroke="#FDABCA" stroke-width="2.89709"/>
<rect x="3.44854" y="-188.551" width="557.103" height="385.103" stroke="#FDABCA" stroke-width="2.89709"/>
</g>
<defs>
<clipPath id="clip0_3581_549">
<rect width="562" height="198" fill="white"/>
</clipPath>
</defs>
</svg>
