<svg width="379" height="293" viewBox="0 0 379 293" fill="none" xmlns="http://www.w3.org/2000/svg">
<g clip-path="url(#clip0_3516_4715)">
<mask id="path-1-inside-1_3516_4715" fill="white">
<path d="M348.79 276.968C376.419 256.167 384.905 216.591 375.31 172.977C359.303 221.707 326.076 256.239 284.843 260.17C220.994 266.255 162.129 196.66 153.366 104.724C150.534 75.0089 153.284 46.5973 160.458 21.5449C159.589 22.1374 158.729 22.7497 157.884 23.3863C141.823 35.4776 132.233 53.9141 128.9 75.7993C123.166 65.4029 116.33 54.8138 108.472 44.3756C96.8069 28.8812 84.2019 15.4565 71.657 4.67264C73.3353 6.81559 75.009 8.98864 76.6698 11.1948C103.13 46.3423 121.366 81.6745 128.28 108.168C128.899 114.407 129.918 120.783 131.335 127.248C131.653 137.193 129.289 144.656 123.918 148.7C104.083 163.632 50.7695 126.28 4.83975 65.2714C2.50201 62.1661 0.229865 59.0583 -1.97736 55.9564C5.0195 71.9103 14.9207 88.8522 27.391 105.416C66.7592 157.709 116.824 186.437 139.213 169.581C140.957 168.269 142.481 166.718 143.79 164.951C150.785 180.813 160.017 196.659 171.439 211.832C224.157 281.856 303.559 311.018 348.79 276.968Z"/>
</mask>
<path d="M348.79 276.968L350.594 279.364L350.594 279.364L348.79 276.968ZM375.31 172.977L372.46 172.041L375.883 161.62L378.24 172.333L375.31 172.977ZM284.843 260.17L285.128 263.156L285.128 263.156L284.843 260.17ZM153.366 104.724L150.38 105.009V105.009L153.366 104.724ZM160.458 21.5449L158.768 19.0662L165.627 14.3893L163.342 22.3707L160.458 21.5449ZM157.884 23.3863L156.079 20.9896L156.079 20.9896L157.884 23.3863ZM128.9 75.7993L131.866 76.2509L130.537 84.9789L126.274 77.2482L128.9 75.7993ZM108.472 44.3756L110.868 42.5713V42.5713L108.472 44.3756ZM71.657 4.67264L69.2951 6.52238L73.6126 2.39766L71.657 4.67264ZM76.6698 11.1948L79.0666 9.39045V9.39045L76.6698 11.1948ZM128.28 108.168L131.183 107.41L131.242 107.638L131.265 107.872L128.28 108.168ZM131.335 127.248L134.265 126.606L134.325 126.876L134.334 127.152L131.335 127.248ZM123.918 148.7L125.723 151.096L125.723 151.096L123.918 148.7ZM4.83975 65.2714L2.44302 67.0757V67.0757L4.83975 65.2714ZM-1.97736 55.9564L-4.72477 57.1613L0.466957 54.217L-1.97736 55.9564ZM27.391 105.416L24.9942 107.221V107.221L27.391 105.416ZM139.213 169.581L141.018 171.978L141.018 171.978L139.213 169.581ZM143.79 164.951L141.38 163.165L144.453 159.019L146.535 163.74L143.79 164.951ZM171.439 211.832L169.043 213.636L169.043 213.636L171.439 211.832ZM348.79 276.968L346.985 274.571C373.279 254.776 381.851 216.671 372.38 173.622L375.31 172.977L378.24 172.333C387.959 216.511 379.559 257.558 350.594 279.364L348.79 276.968ZM375.31 172.977L378.16 173.914C361.947 223.272 327.999 259.07 285.128 263.156L284.843 260.17L284.558 257.183C324.154 253.409 356.659 220.143 372.46 172.041L375.31 172.977ZM284.843 260.17L285.128 263.156C251.95 266.318 220.382 249.784 196.157 221.142C171.922 192.49 154.812 151.509 150.38 105.009L153.366 104.724L156.353 104.439C160.684 149.875 177.387 189.66 200.738 217.267C224.097 244.885 253.886 260.106 284.558 257.183L284.843 260.17ZM153.366 104.724L150.38 105.009C147.514 74.9364 150.293 46.1474 157.574 20.7191L160.458 21.5449L163.342 22.3707C156.276 47.0473 153.555 75.0813 156.353 104.439L153.366 104.724ZM160.458 21.5449L162.148 24.0236C161.313 24.593 160.491 25.178 159.688 25.783L157.884 23.3863L156.079 20.9896C156.967 20.3215 157.865 19.6818 158.768 19.0662L160.458 21.5449ZM157.884 23.3863L159.688 25.783C144.384 37.3046 135.108 54.963 131.866 76.2509L128.9 75.7993L125.935 75.3477C129.358 52.8651 139.262 33.6508 156.079 20.9896L157.884 23.3863ZM128.9 75.7993L126.274 77.2482C120.61 66.979 113.851 56.5084 106.075 46.18L108.472 44.3756L110.868 42.5713C118.809 53.1192 125.723 63.8269 131.527 74.3505L128.9 75.7993ZM108.472 44.3756L106.075 46.18C94.5306 30.8455 82.0714 17.5812 69.7014 6.94763L71.657 4.67264L73.6126 2.39766C86.3323 13.3318 99.0832 26.9169 110.868 42.5713L108.472 44.3756ZM71.657 4.67264L74.0189 2.82291C75.7072 4.97863 77.3926 7.16693 79.0666 9.39045L76.6698 11.1948L74.2731 12.9992C72.6253 10.8103 70.9634 8.65256 69.2951 6.52238L71.657 4.67264ZM76.6698 11.1948L79.0666 9.39045C105.668 44.7248 124.137 80.4111 131.183 107.41L128.28 108.168L125.377 108.925C118.595 82.9378 100.593 47.9598 74.2731 12.9992L76.6698 11.1948ZM128.28 108.168L131.265 107.872C131.872 113.989 132.872 120.25 134.265 126.606L131.335 127.248L128.405 127.891C126.963 121.317 125.925 114.825 125.295 108.464L128.28 108.168ZM131.335 127.248L134.334 127.152C134.663 137.468 132.256 146.177 125.723 151.096L123.918 148.7L122.114 146.303C126.322 143.134 128.643 136.918 128.337 127.344L131.335 127.248ZM123.918 148.7L125.723 151.096C119.689 155.639 111.512 155.901 102.603 153.434C93.6409 150.953 83.3641 145.572 72.443 137.92C50.5724 122.598 25.5441 97.761 2.44302 67.0757L4.83975 65.2714L7.23648 63.467C30.0651 93.7903 54.6584 118.134 75.8858 133.006C86.5138 140.453 96.1551 145.423 104.204 147.652C112.304 149.895 118.23 149.227 122.114 146.303L123.918 148.7ZM4.83975 65.2714L2.44302 67.0757C0.0885751 63.9483 -2.19943 60.8187 -4.42169 57.6957L-1.97736 55.9564L0.466957 54.217C2.65914 57.2978 4.91544 60.384 7.23648 63.467L4.83975 65.2714ZM-1.97736 55.9564L0.770039 54.7515C7.66606 70.4755 17.4454 87.2178 29.7877 103.612L27.391 105.416L24.9942 107.221C12.3961 90.4866 2.37293 73.3451 -4.72477 57.1613L-1.97736 55.9564ZM27.391 105.416L29.7877 103.612C49.2876 129.514 71.3556 149.462 91.1622 160.827C101.07 166.513 110.282 169.975 118.232 171.047C126.164 172.116 132.623 170.788 137.409 167.184L139.213 169.581L141.018 171.978C134.609 176.803 126.413 178.204 117.431 176.993C108.466 175.785 98.5035 171.958 88.176 166.032C67.5108 154.174 44.8625 133.612 24.9942 107.221L27.391 105.416ZM139.213 169.581L137.409 167.184C138.913 166.052 140.235 164.71 141.38 163.165L143.79 164.951L146.201 166.737C144.726 168.727 143 170.486 141.018 171.978L139.213 169.581ZM143.79 164.951L146.535 163.74C153.436 179.387 162.549 195.035 173.836 210.027L171.439 211.832L169.043 213.636C157.485 198.283 148.135 182.238 141.045 166.162L143.79 164.951ZM171.439 211.832L173.836 210.027C199.899 244.647 232.48 269.051 263.956 280.612C295.466 292.185 325.456 290.778 346.985 274.571L348.79 276.968L350.594 279.364C326.892 297.208 294.566 298.246 261.888 286.244C229.176 274.23 195.697 249.041 169.043 213.636L171.439 211.832Z" fill="#AAAAAA" mask="url(#path-1-inside-1_3516_4715)"/>
</g>
<defs>
<clipPath id="clip0_3516_4715">
<rect width="379" height="293" fill="white"/>
</clipPath>
</defs>
</svg>
