<svg width="1040" height="418" viewBox="0 0 1040 418" fill="none" xmlns="http://www.w3.org/2000/svg">
<g clip-path="url(#clip0_3516_4817)">
<mask id="path-1-inside-1_3516_4817" fill="white">
<path d="M363.785 349.541C185.891 409.326 32.5074 426.789 21.1925 388.548C19.8768 384.1 20.5413 379.093 23.0227 373.626C56.1788 403.906 147.859 403.909 247.366 370.468C363.669 331.382 446.623 261.408 432.65 214.177C432.204 212.668 431.664 211.2 431.033 209.774C409.395 192.97 373.53 189.122 338.271 202.387C290.128 220.499 261.347 263.652 273.989 298.771C275.066 301.761 276.408 304.597 277.993 307.271C262.209 303.339 251.629 296.285 247.936 286.026C235.802 252.317 302.199 195.665 400.025 153.511C392.074 172.581 407.658 181.837 443.032 175.002C486.231 166.654 544.057 137.179 578.908 106.607C622.024 104.138 652.371 112.026 659.491 130.745C725.644 95.2589 829.599 55.12 948.675 21.3952C967.732 15.9978 986.525 10.9504 1004.95 6.26144C812.12 66.1932 670.085 137.413 678.342 172.513C686.603 207.62 842.377 194.5 1037.61 144.516C1019.38 150.21 1000.67 155.786 981.566 161.195C810.753 209.573 661.344 229.88 606.338 215.138C580.756 218.381 552.53 224.841 523.469 234.607C437.628 263.456 373.277 311.472 367.387 348.325C366.188 348.73 364.987 349.137 363.785 349.541ZM455.286 237.634C478.705 242.281 530.555 220.848 587.032 185.511C595.405 170.608 619.999 152.186 656.736 132.233C649.131 123.506 631.491 120.859 604.413 126.128C560.495 134.675 503.049 161.847 454.604 194.937C439.491 218.248 438.523 234.308 455.286 237.634Z"/>
</mask>
<path d="M363.785 349.541L364.74 352.385V352.385L363.785 349.541ZM21.1925 388.548L18.3157 389.399L18.3158 389.399L21.1925 388.548ZM23.0227 373.626L25.0457 371.41L21.9971 368.626L20.2908 372.386L23.0227 373.626ZM247.366 370.468L248.322 373.311V373.311L247.366 370.468ZM432.65 214.177L435.527 213.326L435.527 213.325L432.65 214.177ZM431.033 209.774L433.776 208.56L433.47 207.868L432.873 207.404L431.033 209.774ZM338.271 202.387L337.214 199.579L337.214 199.579L338.271 202.387ZM273.989 298.771L271.167 299.787L271.167 299.787L273.989 298.771ZM277.993 307.271L277.268 310.182L284.232 311.917L280.574 305.742L277.993 307.271ZM247.936 286.026L245.113 287.042L245.113 287.042L247.936 286.026ZM400.025 153.511L402.794 154.665L405.647 147.821L398.838 150.756L400.025 153.511ZM443.032 175.002L443.601 177.947V177.947L443.032 175.002ZM578.908 106.607L578.737 103.612L577.706 103.671L576.93 104.352L578.908 106.607ZM659.491 130.745L656.687 131.812L657.901 135.003L660.91 133.389L659.491 130.745ZM948.675 21.3952L947.857 18.5088V18.5088L948.675 21.3952ZM1004.95 6.26141L1005.84 9.12628L1004.21 3.35413L1004.95 6.26141ZM678.342 172.513L675.422 173.2L675.422 173.2L678.342 172.513ZM1037.61 144.516L1038.51 147.379L1036.87 141.609L1037.61 144.516ZM981.566 161.195L982.384 164.082V164.082L981.566 161.195ZM606.338 215.138L607.114 212.24L606.545 212.088L605.961 212.162L606.338 215.138ZM523.469 234.607L522.514 231.764V231.764L523.469 234.607ZM367.387 348.325L368.349 351.166L370.063 350.585L370.349 348.798L367.387 348.325ZM455.286 237.634L454.702 240.577L454.702 240.577L455.286 237.634ZM587.032 185.511L588.623 188.054L589.272 187.648L589.647 186.98L587.032 185.511ZM656.736 132.233L658.168 134.869L661.456 133.083L658.997 130.262L656.736 132.233ZM604.413 126.128L603.84 123.184L603.84 123.184L604.413 126.128ZM454.604 194.937L452.912 192.46L452.414 192.8L452.087 193.305L454.604 194.937ZM363.785 349.541L362.829 346.697C274.019 376.544 191.412 395.795 129.682 402.823C98.7907 406.341 73.2968 406.776 54.9238 404.026C45.7313 402.651 38.4985 400.502 33.3012 397.669C28.1281 394.85 25.1896 391.483 24.0693 387.697L21.1925 388.548L18.3158 389.399C20.0242 395.173 24.3541 399.626 30.4298 402.937C36.4811 406.236 44.4777 408.53 54.0356 409.96C73.1634 412.823 99.2552 412.326 130.361 408.785C192.625 401.696 275.657 382.323 364.74 352.385L363.785 349.541ZM21.1925 388.548L24.0693 387.697C23.0201 384.15 23.4665 379.907 25.7545 374.865L23.0227 373.626L20.2908 372.386C17.6162 378.279 16.7335 384.049 18.3157 389.399L21.1925 388.548ZM23.0227 373.626L20.9996 375.841C38.4558 391.783 70.6627 399.338 110.343 398.942C150.214 398.544 198.325 390.114 248.322 373.311L247.366 370.468L246.41 367.624C196.899 384.263 149.417 392.552 110.283 392.942C70.9568 393.335 40.7458 385.748 25.0457 371.41L23.0227 373.626ZM247.366 370.468L248.322 373.311C306.745 353.677 356.915 326.249 390.796 297.67C407.73 283.385 420.711 268.716 428.576 254.477C436.44 240.238 439.324 226.161 435.527 213.326L432.65 214.177L429.773 215.028C432.963 225.808 430.718 238.189 423.324 251.576C415.93 264.961 403.523 279.085 386.927 293.083C353.748 321.071 304.29 348.172 246.41 367.624L247.366 370.468ZM432.65 214.177L435.527 213.325C435.044 211.693 434.459 210.104 433.776 208.56L431.033 209.774L428.289 210.988C428.868 212.296 429.364 213.643 429.773 215.028L432.65 214.177ZM431.033 209.774L432.873 207.404C410.196 189.794 373.164 186.055 337.214 199.579L338.271 202.387L339.327 205.195C373.896 192.19 408.594 196.147 429.193 212.143L431.033 209.774ZM338.271 202.387L337.214 199.579C312.615 208.834 292.855 224.522 280.84 242.537C268.83 260.545 264.442 281.105 271.167 299.787L273.989 298.771L276.812 297.754C270.895 281.317 274.576 262.742 285.832 245.866C297.082 228.997 315.783 214.052 339.327 205.195L338.271 202.387ZM273.989 298.771L271.167 299.787C272.308 302.957 273.732 305.964 275.412 308.8L277.993 307.271L280.574 305.742C279.085 303.229 277.824 300.565 276.812 297.754L273.989 298.771ZM277.993 307.271L278.718 304.36C263.285 300.516 253.942 293.853 250.759 285.01L247.936 286.026L245.113 287.042C249.316 298.717 261.133 306.163 277.268 310.182L277.993 307.271ZM247.936 286.026L250.759 285.01C248.139 277.733 249.61 268.822 255.436 258.502C261.25 248.205 271.193 236.905 284.709 225.203C311.72 201.817 352.486 177.262 401.212 156.266L400.025 153.511L398.838 150.756C349.738 171.913 308.392 196.762 280.782 220.667C266.987 232.611 256.491 244.43 250.211 255.552C243.944 266.653 241.665 277.464 245.113 287.042L247.936 286.026ZM400.025 153.511L397.256 152.356C395.118 157.484 394.396 162.338 395.513 166.63C396.655 171.021 399.605 174.38 403.888 176.627C412.171 180.974 425.795 181.388 443.601 177.947L443.032 175.002L442.463 172.056C424.895 175.451 413.04 174.654 406.676 171.314C403.634 169.718 401.968 167.614 401.319 165.12C400.645 162.527 400.957 159.072 402.794 154.665L400.025 153.511ZM443.032 175.002L443.601 177.947C487.372 169.489 545.675 139.751 580.887 108.862L578.908 106.607L576.93 104.352C542.44 134.607 485.09 163.819 442.463 172.056L443.032 175.002ZM578.908 106.607L579.08 109.602C600.461 108.378 618.452 109.74 631.866 113.613C645.343 117.504 653.616 123.738 656.687 131.812L659.491 130.745L662.295 129.679C658.246 119.033 647.786 111.964 633.53 107.848C619.212 103.715 600.471 102.367 578.737 103.612L578.908 106.607ZM659.491 130.745L660.91 133.389C726.805 98.0407 830.536 57.9724 949.492 24.2817L948.675 21.3952L947.857 18.5088C828.661 52.2675 724.483 92.4771 658.073 128.102L659.491 130.745ZM948.675 21.3952L949.492 24.2817C968.524 18.8915 987.291 13.851 1005.69 9.16875L1004.95 6.26141L1004.21 3.35413C985.759 8.04968 966.941 13.104 947.857 18.5088L948.675 21.3952ZM1004.95 6.26141L1004.06 3.3966C907.545 33.3932 823.66 66.2388 764.882 96.0229C735.514 110.904 712.281 125.088 696.862 137.845C689.16 144.217 683.275 150.341 679.569 156.133C675.874 161.908 674.13 167.708 675.422 173.2L678.342 172.513L681.262 171.826C680.49 168.543 681.378 164.438 684.623 159.366C687.858 154.311 693.221 148.644 700.687 142.467C715.603 130.126 738.382 116.177 767.594 101.375C825.977 71.7914 909.523 39.0614 1005.84 9.12628L1004.95 6.26141ZM678.342 172.513L675.422 173.2C676.724 178.733 680.868 182.952 686.729 186.085C692.582 189.214 700.48 191.455 710.047 192.942C729.205 195.921 755.823 195.991 788.1 193.414C852.708 188.256 940.638 172.44 1038.35 147.422L1037.61 144.516L1036.87 141.609C939.349 166.576 851.776 182.312 787.623 187.433C755.519 189.996 729.443 189.886 710.969 187.014C701.72 185.575 694.568 183.472 689.558 180.794C684.556 178.12 682.025 175.069 681.262 171.825L678.342 172.513ZM1037.61 144.516L1036.72 141.652C1018.51 147.338 999.825 152.906 980.749 158.309L981.566 161.195L982.384 164.082C1001.51 158.665 1020.25 153.081 1038.51 147.379L1037.61 144.516ZM981.566 161.195L980.749 158.309C895.447 182.468 815.526 199.607 750.104 208.866C717.392 213.496 688.342 216.15 664.08 216.733C639.769 217.317 620.454 215.815 607.114 212.24L606.338 215.138L605.561 218.036C619.725 221.832 639.714 223.32 664.225 222.731C688.785 222.141 718.077 219.459 750.945 214.807C816.682 205.503 896.872 188.301 982.384 164.082L981.566 161.195ZM606.338 215.138L605.961 212.162C580.166 215.432 551.746 221.94 522.514 231.764L523.469 234.607L524.425 237.451C553.314 227.743 581.346 221.33 606.715 218.114L606.338 215.138ZM523.469 234.607L522.514 231.764C479.353 246.269 441.517 265.615 413.671 286.046C399.749 296.26 388.263 306.791 379.856 317.179C371.469 327.541 366.01 337.931 364.424 347.851L367.387 348.325L370.349 348.798C371.709 340.292 376.502 330.86 384.52 320.953C392.517 311.072 403.589 300.885 417.221 290.883C444.484 270.88 481.744 251.795 524.425 237.451L523.469 234.607ZM367.387 348.325L366.424 345.483C365.226 345.889 364.028 346.294 362.829 346.697L363.785 349.541L364.74 352.385C365.946 351.979 367.15 351.572 368.349 351.166L367.387 348.325ZM455.286 237.634L454.702 240.577C461.129 241.852 469.218 241.3 478.429 239.355C487.686 237.4 498.299 233.99 509.878 229.351C533.038 220.073 560.281 205.788 588.623 188.054L587.032 185.511L585.441 182.968C557.306 200.571 530.386 214.671 507.647 223.782C496.275 228.338 486.006 231.623 477.189 233.484C468.327 235.356 461.152 235.74 455.87 234.692L455.286 237.634ZM587.032 185.511L589.647 186.98C593.531 180.068 601.381 172.037 613.063 163.154C624.689 154.314 639.88 144.802 658.168 134.869L656.736 132.233L655.304 129.596C636.855 139.617 621.381 149.292 609.432 158.378C597.54 167.42 588.906 176.051 584.416 184.041L587.032 185.511ZM656.736 132.233L658.997 130.262C654.526 125.131 647.39 122.098 638.249 120.955C629.08 119.808 617.56 120.514 603.84 123.184L604.413 126.128L604.986 129.073C618.344 126.474 629.183 125.868 637.504 126.909C645.854 127.953 651.34 130.608 654.474 134.204L656.736 132.233ZM604.413 126.128L603.84 123.184C559.383 131.836 501.555 159.235 452.912 192.46L454.604 194.937L456.296 197.415C504.544 164.459 561.607 137.515 604.986 129.073L604.413 126.128ZM454.604 194.937L452.087 193.305C444.465 205.061 440.032 215.518 439.991 223.765C439.971 227.993 441.108 231.8 443.717 234.805C446.306 237.786 450.068 239.657 454.702 240.577L455.286 237.634L455.87 234.692C452.123 233.948 449.719 232.565 448.247 230.87C446.796 229.2 445.976 226.911 445.991 223.794C446.023 217.353 449.63 208.124 457.121 196.569L454.604 194.937Z" fill="#AAAAAA" mask="url(#path-1-inside-1_3516_4817)"/>
</g>
<defs>
<clipPath id="clip0_3516_4817">
<rect width="1040" height="418" fill="white"/>
</clipPath>
</defs>
</svg>
