<svg width="288" height="365" viewBox="0 0 288 365" fill="none" xmlns="http://www.w3.org/2000/svg">
<g clip-path="url(#clip0_3516_4766)">
<mask id="path-1-inside-1_3516_4766" fill="white">
<path d="M10.0788 36.6322C26.8065 7.85699 63.0092 -3.88906 104.819 1.63462C61.4573 21.5568 32.9468 56.7774 33.3754 97.0962C34.0438 159.97 104.833 211.431 191.488 212.037C219.862 212.235 246.421 206.956 269.285 197.558C268.654 198.827 267.984 200.079 267.268 201.311C257.361 218.354 240.62 229.422 219.93 234.467C230.109 239.125 240.566 244.811 250.984 251.478C266.616 261.482 280.417 272.573 291.756 283.837C289.568 282.378 287.351 280.925 285.105 279.488C249.601 256.78 214.744 242.076 189.251 237.603C183.574 237.486 177.747 237.022 171.808 236.21C162.013 236.627 154.942 239.585 151.593 245.341C139.591 265.968 179.908 314.699 241.642 354.184C245.06 356.37 248.473 358.479 251.87 360.514C236.023 355.07 218.902 346.794 201.882 335.902C148.924 302.013 116.984 255.641 130.543 232.328C131.698 230.343 133.146 228.589 134.861 227.062C119.569 221.622 104.087 214.078 89.0024 204.419C17.9815 158.944 -17.354 83.8238 10.0788 36.6322Z"/>
</mask>
<path d="M10.0789 36.6322L7.48524 35.1245L7.48523 35.1245L10.0789 36.6322ZM104.819 1.63462L106.071 4.36066L115.515 0.0217019L105.212 -1.33954L104.819 1.63462ZM33.3754 97.0962L30.3755 97.1281L30.3755 97.1281L33.3754 97.0962ZM191.488 212.037L191.467 215.037L191.467 215.037L191.488 212.037ZM269.285 197.558L271.971 198.894L275.524 191.75L268.145 194.783L269.285 197.558ZM267.268 201.311L269.862 202.819L269.862 202.819L267.268 201.311ZM219.93 234.467L219.219 231.553L210.824 233.6L218.682 237.195L219.93 234.467ZM250.984 251.478L252.601 248.951L252.601 248.951L250.984 251.478ZM291.756 283.837L290.092 286.333L293.871 281.709L291.756 283.837ZM285.105 279.488L286.721 276.961V276.961L285.105 279.488ZM189.251 237.603L189.769 234.648L189.543 234.608L189.313 234.604L189.251 237.603ZM171.808 236.21L172.215 233.238L171.949 233.201L171.681 233.213L171.808 236.21ZM151.593 245.341L149 243.832L149 243.832L151.593 245.341ZM241.642 354.184L240.026 356.711L240.026 356.711L241.642 354.184ZM251.87 360.514L250.896 363.351L253.412 357.941L251.87 360.514ZM201.882 335.902L200.265 338.429L200.265 338.429L201.882 335.902ZM130.543 232.328L127.95 230.82L127.95 230.82L130.543 232.328ZM134.861 227.062L136.856 229.303L140.639 225.934L135.866 224.236L134.861 227.062ZM89.0024 204.419L87.3847 206.945V206.945L89.0024 204.419ZM10.0789 36.6322L12.6725 38.14C28.5413 10.8421 63.2305 -0.83376 104.426 4.60877L104.819 1.63462L105.212 -1.33954C62.788 -6.94436 25.0717 4.87192 7.48524 35.1245L10.0789 36.6322ZM104.819 1.63462L103.566 -1.09142C59.5369 19.1377 29.9302 55.2344 30.3755 97.1281L33.3754 97.0962L36.3752 97.0643C35.9633 58.3204 63.3777 23.976 106.071 4.36066L104.819 1.63462ZM33.3754 97.0962L30.3755 97.1281C30.7224 129.756 49.2624 159.145 78.4226 180.344C107.591 201.547 147.575 214.73 191.467 215.037L191.488 212.037L191.509 209.037C148.745 208.738 110.008 195.887 81.9506 175.491C53.8855 155.088 36.6968 127.31 36.3752 97.0643L33.3754 97.0962ZM191.488 212.037L191.467 215.037C220.222 215.238 247.176 209.889 270.426 200.333L269.285 197.558L268.145 194.783C245.665 204.023 219.503 209.233 191.509 209.037L191.488 212.037ZM269.285 197.558L266.599 196.222C265.994 197.438 265.355 198.633 264.675 199.803L267.268 201.311L269.862 202.819C270.613 201.526 271.314 200.216 271.971 198.894L269.285 197.558ZM267.268 201.311L264.675 199.803C255.256 216.006 239.282 226.66 219.219 231.553L219.93 234.467L220.641 237.382C241.958 232.184 259.466 220.703 269.862 202.819L267.268 201.311ZM219.93 234.467L218.682 237.195C228.729 241.793 239.063 247.411 249.367 254.005L250.984 251.478L252.601 248.951C242.068 242.211 231.489 236.457 221.178 231.739L219.93 234.467ZM250.984 251.478L249.367 254.005C264.831 263.901 278.463 274.861 289.642 285.966L291.756 283.837L293.871 281.709C282.371 270.286 268.402 259.062 252.601 248.951L250.984 251.478ZM291.756 283.837L293.421 281.342C291.219 279.873 288.986 278.41 286.721 276.961L285.105 279.488L283.488 282.016C285.716 283.441 287.917 284.883 290.092 286.333L291.756 283.837ZM285.105 279.488L286.721 276.961C251.023 254.128 215.789 239.214 189.769 234.648L189.251 237.603L188.732 240.558C213.7 244.939 248.178 259.432 283.488 282.016L285.105 279.488ZM189.251 237.603L189.313 234.604C183.757 234.489 178.045 234.034 172.215 233.238L171.808 236.21L171.402 239.183C177.449 240.009 183.391 240.482 189.189 240.602L189.251 237.603ZM171.808 236.21L171.681 233.213C161.503 233.646 153.119 236.754 149 243.832L151.593 245.341L154.186 246.85C156.766 242.416 162.523 239.608 171.936 239.207L171.808 236.21ZM151.593 245.341L149 243.832C145.338 250.126 145.918 258.108 149.112 266.558C152.33 275.07 158.395 284.619 166.655 294.603C183.196 314.596 208.966 336.846 240.026 356.711L241.642 354.184L243.259 351.657C212.584 332.037 187.328 310.178 171.278 290.778C163.242 281.066 157.62 272.096 154.724 264.436C151.805 256.714 151.847 250.87 154.186 246.85L151.593 245.341ZM241.642 354.184L240.026 356.711C243.469 358.914 246.907 361.038 250.328 363.088L251.87 360.514L253.412 357.941C250.038 355.919 246.65 353.826 243.259 351.657L241.642 354.184ZM251.87 360.514L252.845 357.677C237.244 352.318 220.338 344.151 203.499 333.375L201.882 335.902L200.265 338.429C217.467 349.437 234.801 357.823 250.896 363.351L251.87 360.514ZM201.882 335.902L203.499 333.375C177.28 316.597 156.376 296.794 143.739 278.447C137.418 269.27 133.246 260.573 131.443 252.895C129.641 245.224 130.249 238.801 133.136 233.836L130.543 232.328L127.95 230.82C124.057 237.512 123.573 245.627 125.602 254.267C127.629 262.899 132.209 272.285 138.798 281.851C151.981 300.991 173.526 321.318 200.265 338.429L201.882 335.902ZM130.543 232.328L133.136 233.836C134.126 232.134 135.37 230.626 136.856 229.303L134.861 227.062L132.866 224.822C130.922 226.552 129.269 228.551 127.95 230.82L130.543 232.328ZM134.861 227.062L135.866 224.236C120.796 218.874 105.519 211.432 90.6201 201.892L89.0024 204.419L87.3847 206.945C102.656 216.723 118.342 224.369 133.855 229.888L134.861 227.062ZM89.0024 204.419L90.6201 201.892C55.5252 179.421 29.348 149.683 15.3351 119.893C1.30097 90.0567 -0.376003 60.5867 12.6725 38.1399L10.0789 36.6322L7.48523 35.1245C-6.89911 59.8693 -4.62476 91.5553 9.9058 122.446C24.4576 153.383 51.4587 183.942 87.3847 206.945L89.0024 204.419Z" fill="#AAAAAA" mask="url(#path-1-inside-1_3516_4766)"/>
</g>
<defs>
<clipPath id="clip0_3516_4766">
<rect width="288" height="365" fill="white"/>
</clipPath>
</defs>
</svg>
