<svg width="607" height="540" viewBox="0 0 607 540" fill="none" xmlns="http://www.w3.org/2000/svg">
<g clip-path="url(#clip0_3516_4757)">
<mask id="path-1-inside-1_3516_4757" fill="white">
<path d="M600.912 251.02C602.325 255.999 602.709 261.035 601.939 266.032C598.025 291.431 565.498 308.31 523.31 309.904C515.615 327.112 508.819 347.207 503.673 369.052C487.072 439.515 493.784 502.025 518.515 510.7C510.372 523.387 502.782 529.953 496.68 528.407C478.865 523.891 480.497 451.943 500.324 367.707C505.184 347.059 510.689 327.59 516.489 310.027C506.941 310.015 496.971 309.239 486.782 307.622C487.832 350.098 468.335 409.912 431.387 467.791C412.486 497.399 391.37 522.814 370.165 542.643C378.601 531.619 386.877 519.814 394.844 507.332C453.498 415.441 473.301 321.719 439.076 297.997C404.849 274.277 329.553 329.54 270.899 421.431C262.234 435.005 254.417 448.621 247.497 462.043C256.806 432.992 271.55 401.564 291.261 370.687C302.728 352.724 315.01 336.304 327.633 321.739C351.976 265.411 360.224 225.761 346.659 215.865C335.487 207.716 311.241 221.002 279.395 250.082C285.745 253.047 291.936 255.241 297.871 256.607C297.352 262.07 295.618 266.051 292.563 268.251C287.03 272.235 277.841 269.895 266.333 262.478C243.996 284.422 218.651 312.949 191.885 346.431C191.851 345.687 191.815 344.942 191.778 344.198C214.603 311.934 237.331 282.569 258.858 257.199C250.982 251.187 242.284 243.234 233.108 233.658C232.498 235.319 231.858 236.969 231.181 238.605C231.521 236.594 231.813 234.576 232.06 232.555C214.026 213.567 194.207 188.406 175.176 159.45C161.823 139.132 150.275 119.102 140.948 100.525C108.885 93.9182 73.5983 100.733 43.6184 122.347C24.2307 136.325 9.56528 154.688 0.114797 175.044C4.606 140.669 22.5566 108.133 52.2525 86.7227C74.4584 70.7131 99.8607 63.3553 124.743 63.9622C113.541 34.1733 111.082 12.271 120.076 5.79356C126.614 1.08611 138.259 5.20558 152.8 16.1009C147.774 29.6844 147.041 47.4365 150.331 67.4492C177.949 74.3998 203.183 91.5211 220.419 117.776C240.883 148.948 245.839 186.549 237.107 220.768C247.91 230.637 258.842 238.763 269.478 244.898C323.883 182.981 369.088 148.84 386.171 161.273C402.239 172.971 389.794 223.237 357.49 291.258C371.004 279.188 384.487 269.432 397.389 262.352C389.921 252.366 386.428 241.666 388.05 231.139C390.817 213.187 407.878 199.491 432.54 192.44C431.414 195.863 430.555 199.408 429.987 203.061C429.889 203.689 429.801 204.317 429.721 204.944C423.225 213.088 418.491 223.691 416.638 235.699C415.679 241.906 415.569 248.001 416.197 253.796C435.472 246.961 452.609 247.27 465.432 256.155C474.974 262.768 481.233 273.514 484.391 287.301C491.37 290.115 498.831 292.222 506.666 293.49C511.751 294.313 516.794 294.75 521.755 294.827C538.294 249.335 556.338 220.281 568.482 223.36C574.713 224.94 578.564 234.771 580.09 250.492C564.746 247.806 546.549 265.191 530.811 294.564C561.975 292.258 588.778 275.628 600.912 251.02ZM227.922 503.34C227.863 503.421 227.803 503.503 227.743 503.583C227.799 503.496 227.856 503.408 227.912 503.321C227.915 503.327 227.919 503.334 227.922 503.34ZM213.296 149.709C200.016 129.482 181.652 114.954 160.931 106.566C168.16 126.156 178.426 146.603 191.542 166.574C204.342 186.064 218.517 203.059 233.024 216.948C233.059 193.479 226.683 170.1 213.296 149.709Z"/>
</mask>
<path d="M600.912 251.02L603.736 250.116L601.667 242.825L598.298 249.658L600.912 251.02ZM601.939 266.032L604.845 266.472L604.845 266.472L601.939 266.032ZM523.31 309.904L523.246 306.849L521.419 306.918L520.645 308.649L523.31 309.904ZM503.673 369.052L500.815 368.366V368.366L503.673 369.052ZM518.515 510.7L520.955 512.37L523.079 509.06L519.492 507.802L518.515 510.7ZM496.68 528.407L495.943 531.377L495.943 531.377L496.68 528.407ZM500.324 367.707L497.467 367.022V367.022L500.324 367.707ZM516.489 310.027L519.27 310.981L520.593 306.976L516.535 306.971L516.489 310.027ZM486.782 307.622L487.268 304.6L483.749 304.042L483.841 307.745L486.782 307.622ZM431.387 467.791L433.832 469.454L433.832 469.454L431.387 467.791ZM370.165 542.643L367.872 540.762L372.116 544.901L370.165 542.643ZM394.844 507.332L397.289 508.996V508.996L394.844 507.332ZM439.076 297.997L440.733 295.447L440.733 295.447L439.076 297.997ZM270.899 421.431L268.454 419.768V419.768L270.899 421.431ZM247.497 462.043L244.707 461.116L250.087 463.456L247.497 462.043ZM291.261 370.687L288.816 369.024L288.816 369.024L291.261 370.687ZM327.633 321.739L329.806 323.765L330.121 323.402L330.314 322.957L327.633 321.739ZM346.659 215.865L348.374 213.355L348.373 213.354L346.659 215.865ZM279.395 250.082L277.471 247.799L274.026 250.944L278.156 252.873L279.395 250.082ZM297.871 256.607L300.799 256.863L301.052 254.199L298.547 253.622L297.871 256.607ZM292.563 268.251L294.215 270.755L294.215 270.755L292.563 268.251ZM266.333 262.478L267.91 259.874L265.991 258.637L264.328 260.271L266.333 262.478ZM191.885 346.431L188.947 346.621L189.304 354.41L194.138 348.363L191.885 346.431ZM191.778 344.198L189.416 342.412L188.784 343.304L188.84 344.402L191.778 344.198ZM258.858 257.199L261.053 259.202L263.188 256.685L260.623 254.727L258.858 257.199ZM233.108 233.658L235.208 231.486L232.001 228.139L230.361 232.605L233.108 233.658ZM231.181 238.605L228.283 238.118L233.881 239.777L231.181 238.605ZM232.06 232.555L234.978 232.896L235.157 231.433L234.169 230.392L232.06 232.555ZM175.176 159.45L172.739 161.199L172.739 161.199L175.176 159.45ZM140.948 100.525L143.561 99.0804L142.922 97.8067L141.561 97.5263L140.948 100.525ZM43.6184 122.347L41.9648 119.844L41.9648 119.844L43.6184 122.347ZM0.114799 175.044L-2.80061 174.677L2.76139 176.339L0.114799 175.044ZM52.2525 86.7227L50.599 84.2197L50.599 84.2197L52.2525 86.7227ZM124.743 63.9622L124.631 67.018L129.107 67.1272L127.486 62.8141L124.743 63.9622ZM120.076 5.79356L118.424 3.28955L118.424 3.28966L120.076 5.79356ZM152.8 16.1009L155.544 17.1611L156.355 14.9699L154.544 13.6128L152.8 16.1009ZM150.331 67.4492L147.43 68.0065L147.751 69.9555L149.599 70.4206L150.331 67.4492ZM220.419 117.776L222.858 116.029L222.858 116.029L220.419 117.776ZM237.107 220.768L234.264 220.025L233.799 221.846L235.146 223.076L237.107 220.768ZM269.478 244.898L268.021 247.576L270.051 248.747L271.638 246.941L269.478 244.898ZM386.171 161.273L387.883 158.762L387.883 158.761L386.171 161.273ZM357.49 291.258L354.855 289.938L359.39 293.564L357.49 291.258ZM397.389 262.352L398.734 265.05L401.871 263.328L399.722 260.454L397.389 262.352ZM388.05 231.139L385.145 230.699L385.145 230.699L388.05 231.139ZM432.54 192.44L435.323 193.391L437.104 187.977L431.798 189.494L432.54 192.44ZM429.987 203.061L427.082 202.617L427.082 202.617L429.987 203.061ZM429.721 204.944L431.976 206.873L432.526 206.183L432.638 205.299L429.721 204.944ZM416.638 235.699L413.733 235.258L413.733 235.258L416.638 235.699ZM416.197 253.796L413.273 254.182L413.677 257.905L417.111 256.688L416.197 253.796ZM465.432 256.155L467.089 253.605L467.089 253.605L465.432 256.155ZM484.391 287.301L481.528 288.05L481.879 289.584L483.291 290.153L484.391 287.301ZM506.666 293.49L506.172 296.51L506.172 296.51L506.666 293.49ZM521.755 294.827L521.668 297.883L523.762 297.915L524.505 295.87L521.755 294.827ZM568.482 223.36L569.219 220.39L569.218 220.39L568.482 223.36ZM580.09 250.492L579.56 253.506L583.409 254.18L583.017 250.141L580.09 250.492ZM530.811 294.564L528.245 293.107L525.619 298.009L530.978 297.613L530.811 294.564ZM227.922 503.34L230.247 505.179L231.44 503.564L230.492 501.813L227.922 503.34ZM227.743 503.583L225.303 501.914L230.067 505.422L227.743 503.583ZM227.912 503.321L230.481 501.792L228.146 497.481L225.471 501.651L227.912 503.321ZM213.296 149.709L215.734 147.962L215.734 147.961L213.296 149.709ZM160.931 106.566L162.034 103.715L155.779 101.183L158.182 107.696L160.931 106.566ZM191.542 166.574L189.104 168.322L189.104 168.322L191.542 166.574ZM233.024 216.948L231.013 219.21L235.956 223.942L235.966 216.908L233.024 216.948ZM600.912 251.02L598.089 251.923C599.39 256.508 599.729 261.084 599.034 265.592L601.939 266.032L604.845 266.472C605.69 260.986 605.26 255.491 603.736 250.116L600.912 251.02ZM601.939 266.032L599.034 265.592C597.28 276.976 589.056 286.861 575.638 294.194C562.241 301.516 544.028 306.064 523.246 306.849L523.31 309.904L523.374 312.958C544.78 312.15 563.924 307.462 578.317 299.596C592.688 291.741 602.685 280.486 604.845 266.472L601.939 266.032ZM523.31 309.904L520.645 308.649C512.862 326.055 506.004 346.343 500.815 368.366L503.673 369.052L506.53 369.738C511.634 348.072 518.369 328.169 525.976 311.158L523.31 309.904ZM503.673 369.052L500.815 368.366C492.453 403.86 489.93 437.471 492.67 463.424C494.039 476.391 496.737 487.592 500.781 496.191C504.815 504.769 510.35 511.077 517.537 513.597L518.515 510.7L519.492 507.802C514.314 505.986 509.736 501.227 506.075 493.443C502.424 485.679 499.844 475.222 498.519 462.67C495.87 437.583 498.291 404.707 506.53 369.738L503.673 369.052ZM518.515 510.7L516.074 509.03C512.083 515.25 508.352 519.762 505.023 522.508C501.651 525.29 499.175 525.882 497.416 525.437L496.68 528.407L495.943 531.377C500.286 532.478 504.657 530.561 508.641 527.274C512.669 523.952 516.805 518.837 520.955 512.37L518.515 510.7ZM496.68 528.407L497.416 525.437C496.119 525.108 494.738 524.112 493.374 521.956C492.001 519.785 490.782 516.638 489.804 512.473C487.85 504.15 487 492.405 487.328 477.98C487.981 449.179 493.303 410.36 503.182 368.392L500.324 367.707L497.467 367.022C487.518 409.29 482.111 448.564 481.445 477.925C481.112 492.58 481.956 504.934 484.086 514.004C485.151 518.535 486.572 522.408 488.442 525.365C490.322 528.337 492.786 530.577 495.943 531.377L496.68 528.407ZM500.324 367.707L503.182 368.392C508.022 347.829 513.501 328.45 519.27 310.981L516.489 310.027L513.707 309.073C507.876 326.729 502.347 346.288 497.467 367.022L500.324 367.707ZM516.489 310.027L516.535 306.971C507.138 306.959 497.314 306.194 487.268 304.6L486.782 307.622L486.297 310.644C496.628 312.283 506.745 313.072 516.442 313.084L516.489 310.027ZM486.782 307.622L483.841 307.745C484.87 349.36 465.7 408.546 428.942 466.127L431.387 467.791L433.832 469.454C470.97 411.277 490.795 350.837 489.723 307.499L486.782 307.622ZM431.387 467.791L428.942 466.127C410.168 495.536 389.215 520.747 368.214 540.384L370.165 542.643L372.116 544.901C393.525 524.882 414.803 499.262 433.832 469.454L431.387 467.791ZM370.165 542.643L372.458 544.523C380.948 533.429 389.275 521.551 397.289 508.996L394.844 507.332L392.4 505.669C384.48 518.077 376.254 529.809 367.872 540.762L370.165 542.643ZM394.844 507.332L397.289 508.996C426.768 462.812 446.562 416.056 454.663 377.715C458.712 358.554 459.874 341.336 457.759 327.276C455.643 313.214 450.187 301.999 440.733 295.447L439.076 297.997L437.418 300.548C445.077 305.856 449.981 315.253 451.945 328.306C453.909 341.363 452.872 357.766 448.917 376.488C441.009 413.911 421.574 459.962 392.4 505.669L394.844 507.332ZM439.076 297.997L440.733 295.447C431.273 288.891 419.223 287.98 405.941 291.387C392.667 294.793 377.87 302.572 362.473 313.872C331.665 336.484 297.933 373.584 268.454 419.768L270.899 421.431L273.343 423.094C302.519 377.386 335.762 340.91 365.822 318.848C380.86 307.81 394.969 300.478 407.273 297.321C419.569 294.167 429.765 295.243 437.418 300.548L439.076 297.997ZM270.899 421.431L268.454 419.768C259.738 433.422 251.873 447.121 244.908 460.631L247.497 462.043L250.087 463.456C256.962 450.12 264.73 436.589 273.343 423.094L270.899 421.431ZM247.497 462.043L250.288 462.971C259.505 434.202 274.127 403.02 293.706 372.351L291.261 370.687L288.816 369.024C268.973 400.108 254.106 431.781 244.707 461.116L247.497 462.043ZM291.261 370.687L293.706 372.351C305.093 354.512 317.286 338.213 329.806 323.765L327.633 321.739L325.459 319.712C312.735 334.395 300.362 350.937 288.816 369.024L291.261 370.687ZM327.633 321.739L330.314 322.957C342.523 294.706 350.776 270.462 354.249 251.932C355.984 242.677 356.562 234.669 355.75 228.221C354.939 221.782 352.681 216.497 348.374 213.355L346.659 215.865L344.945 218.375C347.42 220.18 349.218 223.562 349.915 229.101C350.611 234.632 350.149 241.912 348.474 250.848C345.128 268.699 337.086 292.444 324.951 320.521L327.633 321.739ZM346.659 215.865L348.373 213.354C344.826 210.767 340.426 210.034 335.598 210.65C330.796 211.263 325.382 213.226 319.496 216.282C307.719 222.395 293.47 233.189 277.471 247.799L279.395 250.082L281.319 252.365C297.165 237.895 310.963 227.505 322.064 221.743C327.616 218.861 332.349 217.213 336.231 216.718C340.087 216.226 342.907 216.888 344.945 218.375L346.659 215.865ZM279.395 250.082L278.156 252.873C284.658 255.909 291.037 258.175 297.195 259.592L297.871 256.607L298.547 253.622C292.835 252.307 286.833 250.185 280.633 247.291L279.395 250.082ZM297.871 256.607L294.943 256.351C294.464 261.385 292.935 264.29 290.911 265.747L292.563 268.251L294.215 270.755C298.301 267.813 300.239 262.756 300.799 256.863L297.871 256.607ZM292.563 268.251L290.911 265.747C289.079 267.066 286.345 267.567 282.362 266.654C278.382 265.742 273.523 263.491 267.91 259.874L266.333 262.478L264.756 265.082C270.651 268.881 276.141 271.508 281.015 272.625C285.887 273.741 290.514 273.42 294.215 270.755L292.563 268.251ZM266.333 262.478L264.328 260.271C241.88 282.324 216.452 310.949 189.633 344.498L191.885 346.431L194.138 348.363C220.849 314.949 246.112 286.519 268.338 264.684L266.333 262.478ZM191.885 346.431L194.824 346.241C194.79 345.492 194.754 344.742 194.716 343.995L191.778 344.198L188.84 344.402C188.877 345.142 188.913 345.882 188.947 346.621L191.885 346.431ZM191.778 344.198L194.14 345.985C216.917 313.787 239.59 284.495 261.053 259.202L258.858 257.199L256.664 255.197C235.071 280.643 212.288 310.081 189.416 342.412L191.778 344.198ZM258.858 257.199L260.623 254.727C252.897 248.829 244.312 240.987 235.208 231.486L233.108 233.658L231.008 235.83C240.256 245.482 249.066 253.544 257.094 259.672L258.858 257.199ZM233.108 233.658L230.361 232.605C229.765 234.229 229.139 235.839 228.48 237.433L231.181 238.605L233.881 239.777C234.576 238.098 235.232 236.408 235.855 234.711L233.108 233.658ZM231.181 238.605L234.078 239.091C234.427 237.03 234.726 234.964 234.978 232.896L232.06 232.555L229.141 232.214C228.9 234.188 228.615 236.157 228.283 238.118L231.181 238.605ZM232.06 232.555L234.169 230.392C216.276 211.552 196.564 186.535 177.614 157.701L175.176 159.45L172.739 161.199C191.849 190.277 211.776 215.581 229.95 234.718L232.06 232.555ZM175.176 159.45L177.614 157.701C164.32 137.474 152.832 117.545 143.561 99.0804L140.948 100.525L138.335 101.969C147.719 120.66 159.327 140.791 172.739 161.199L175.176 159.45ZM140.948 100.525L141.561 97.5263C108.724 90.7602 72.6172 97.7452 41.9648 119.844L43.6184 122.347L45.2719 124.85C74.5795 103.721 109.046 97.0762 140.335 103.524L140.948 100.525ZM43.6184 122.347L41.9648 119.844C22.144 134.135 7.13966 152.917 -2.5318 173.749L0.114799 175.044L2.76139 176.339C11.9909 156.459 26.3173 138.516 45.2719 124.85L43.6184 122.347ZM0.114799 175.044L3.0302 175.412C7.41384 141.86 24.9306 110.116 53.9061 89.2256L52.2525 86.7227L50.599 84.2197C20.1827 106.149 1.79815 139.478 -2.80061 174.677L0.114799 175.044ZM52.2525 86.7227L53.9061 89.2256C75.5759 73.6024 100.356 66.426 124.631 67.018L124.743 63.9622L124.855 60.9064C99.3655 60.2847 73.3408 67.8237 50.599 84.2197L52.2525 86.7227ZM124.743 63.9622L127.486 62.8141C121.929 48.0378 118.621 35.415 117.766 25.8107C117.338 21.0073 117.54 17.1178 118.282 14.1554C119.018 11.218 120.232 9.37484 121.728 8.29745L120.076 5.79356L118.424 3.28966C115.423 5.45101 113.571 8.7747 112.589 12.6967C111.613 16.5936 111.443 21.256 111.906 26.4615C112.833 36.8749 116.355 50.0977 122 65.1104L124.743 63.9622ZM120.076 5.79356L121.728 8.29756C123.893 6.73851 127.338 6.32945 132.521 8.01453C137.646 9.68099 143.904 13.2302 151.056 18.589L152.8 16.1009L154.544 13.6128C147.155 8.07623 140.32 4.11809 134.353 2.17785C128.443 0.256232 122.797 0.141163 118.424 3.28955L120.076 5.79356ZM152.8 16.1009L150.056 15.0406C144.77 29.3273 144.09 47.6879 147.43 68.0065L150.331 67.4492L153.231 66.892C149.991 47.185 150.779 30.0415 155.544 17.1611L152.8 16.1009ZM150.331 67.4492L149.599 70.4206C176.546 77.2023 201.162 93.904 217.981 119.523L220.419 117.776L222.858 116.029C205.204 89.1383 179.352 71.5973 151.063 64.4779L150.331 67.4492ZM220.419 117.776L217.981 119.523C237.948 149.939 242.787 186.626 234.264 220.025L237.107 220.768L239.95 221.511C248.892 186.473 243.819 147.957 222.858 116.029L220.419 117.776ZM237.107 220.768L235.146 223.076C246.079 233.064 257.179 241.321 268.021 247.576L269.478 244.898L270.935 242.221C260.505 236.204 249.74 228.209 239.068 218.46L237.107 220.768ZM269.478 244.898L271.638 246.941C298.773 216.058 323.505 192.232 343.484 177.7C353.487 170.423 362.149 165.589 369.218 163.305C376.34 161.004 381.267 161.462 384.46 163.785L386.171 161.273L387.883 158.761C382.534 154.868 375.404 154.931 367.546 157.47C359.634 160.025 350.39 165.265 340.156 172.709C319.66 187.618 294.587 211.821 267.318 242.856L269.478 244.898ZM386.171 161.273L384.459 163.785C387.469 165.976 389.524 170.245 390.079 177.248C390.631 184.213 389.644 193.363 387.108 204.481C382.041 226.686 370.964 256.019 354.855 289.938L357.49 291.258L360.125 292.578C376.321 258.476 387.617 228.665 392.832 205.808C395.437 194.394 396.568 184.533 395.944 176.658C395.322 168.82 392.907 162.419 387.883 158.762L386.171 161.273ZM357.49 291.258L359.39 293.564C372.767 281.615 386.066 272.002 398.734 265.05L397.389 262.352L396.045 259.653C382.908 266.863 369.241 276.761 355.591 288.953L357.49 291.258ZM397.389 262.352L399.722 260.454C392.585 250.911 389.498 241.034 390.955 231.579L388.05 231.139L385.145 230.699C383.357 242.298 387.258 253.822 395.056 264.249L397.389 262.352ZM388.05 231.139L390.955 231.579C393.436 215.485 408.963 202.34 433.282 195.386L432.54 192.44L431.798 189.494C406.793 196.643 388.198 210.89 385.145 230.699L388.05 231.139ZM432.54 192.44L429.758 191.49C428.578 195.075 427.678 198.79 427.082 202.617L429.987 203.061L432.891 203.506C433.432 200.026 434.251 196.65 435.323 193.391L432.54 192.44ZM429.987 203.061L427.082 202.617C426.98 203.275 426.888 203.933 426.804 204.588L429.721 204.944L432.638 205.299C432.714 204.701 432.798 204.102 432.891 203.506L429.987 203.061ZM429.721 204.944L427.467 203.014C420.616 211.604 415.667 222.726 413.733 235.258L416.638 235.699L419.543 236.14C421.316 224.655 425.835 214.573 431.976 206.873L429.721 204.944ZM416.638 235.699L413.733 235.258C412.732 241.739 412.615 248.112 413.273 254.182L416.197 253.796L419.121 253.41C418.522 247.89 418.627 242.073 419.543 236.14L416.638 235.699ZM416.197 253.796L417.111 256.688C435.917 250.019 451.995 250.543 463.774 258.706L465.432 256.155L467.089 253.605C453.223 243.997 435.028 243.903 415.283 250.905L416.197 253.796ZM465.432 256.155L463.774 258.706C472.554 264.79 478.491 274.786 481.528 288.05L484.391 287.301L487.254 286.553C483.976 272.242 477.394 260.746 467.089 253.605L465.432 256.155ZM484.391 287.301L483.291 290.153C490.465 293.045 498.129 295.209 506.172 296.51L506.666 293.49L507.16 290.469C499.532 289.235 492.274 287.185 485.49 284.45L484.391 287.301ZM506.666 293.49L506.172 296.51C511.392 297.355 516.571 297.804 521.668 297.883L521.755 294.827L521.842 291.77C517.017 291.696 512.111 291.27 507.16 290.469L506.666 293.49ZM521.755 294.827L524.505 295.87C532.736 273.23 541.288 254.839 549.204 242.554C553.172 236.396 556.879 231.932 560.186 229.218C563.535 226.47 565.995 225.886 567.745 226.33L568.482 223.36L569.218 220.39C564.896 219.294 560.547 221.187 556.58 224.442C552.572 227.732 548.457 232.798 544.329 239.205C536.052 252.049 527.312 270.932 519.004 293.783L521.755 294.827ZM568.482 223.36L567.745 226.33C569.558 226.79 571.558 228.593 573.349 232.875C575.111 237.088 576.413 243.125 577.162 250.842L580.09 250.492L583.017 250.141C582.24 242.137 580.854 235.399 578.751 230.371C576.678 225.412 573.637 221.51 569.219 220.39L568.482 223.36ZM580.09 250.492L580.62 247.477C571.678 245.912 562.409 250.267 553.677 258.22C544.893 266.22 536.212 278.239 528.245 293.107L530.811 294.564L533.377 296.021C541.149 281.515 549.434 270.156 557.52 262.792C565.656 255.381 573.157 252.386 579.56 253.506L580.09 250.492ZM530.811 294.564L530.978 297.613C562.958 295.246 590.821 278.15 603.527 252.381L600.912 251.02L598.298 249.658C586.736 273.106 560.992 289.269 530.645 291.515L530.811 294.564ZM227.922 503.34L225.598 501.502C225.503 501.63 225.506 501.627 225.42 501.744L227.743 503.583L230.067 505.422C230.1 505.378 230.222 505.212 230.247 505.179L227.922 503.34ZM227.743 503.583L230.184 505.253C230.221 505.196 230.322 505.038 230.353 504.99L227.912 503.321L225.471 501.651C225.389 501.778 225.378 501.796 225.303 501.914L227.743 503.583ZM227.912 503.321L225.342 504.849C225.349 504.861 225.344 504.853 225.353 504.868L227.922 503.34L230.492 501.813C230.491 501.81 230.489 501.807 230.487 501.804C230.485 501.801 230.483 501.797 230.481 501.792L227.912 503.321ZM213.296 149.709L215.734 147.961C202.113 127.214 183.274 112.314 162.034 103.715L160.931 106.566L159.828 109.416C180.03 117.594 197.92 131.749 210.857 151.456L213.296 149.709ZM160.931 106.566L158.182 107.696C165.495 127.516 175.869 148.17 189.104 168.322L191.542 166.574L193.98 164.826C180.983 145.036 170.824 124.795 163.681 105.435L160.931 106.566ZM191.542 166.574L189.104 168.322C202.02 187.989 216.337 205.158 231.013 219.21L233.024 216.948L235.035 214.686C220.698 200.959 206.664 184.139 193.98 164.826L191.542 166.574ZM233.024 216.948L235.966 216.908C236.002 192.857 229.465 168.878 215.734 147.962L213.296 149.709L210.857 151.456C223.9 171.323 230.116 194.102 230.082 216.988L233.024 216.948Z" fill="#AAAAAA" mask="url(#path-1-inside-1_3516_4757)"/>
</g>
<defs>
<clipPath id="clip0_3516_4757">
<rect width="607" height="540" fill="white"/>
</clipPath>
</defs>
</svg>
