<svg width="621" height="427" viewBox="0 0 621 427" fill="none" xmlns="http://www.w3.org/2000/svg">
<g clip-path="url(#clip0_3516_4829)">
<mask id="path-1-inside-1_3516_4829" fill="white">
<path d="M623.956 315.987C430.783 237.064 268.275 201.709 253.791 236.939C240.445 269.404 357.205 351.082 524.86 430.124C508.86 423.948 492.571 417.336 476.099 410.307C400.062 377.863 332.979 342.034 283.423 308.948C289.265 323.194 291.55 337.982 289.51 352.478C288.763 357.795 287.459 362.876 285.649 367.704C280.774 309.71 233.083 255.553 168.997 240.129C166.063 239.423 163.138 238.81 160.228 238.286C148.333 239.148 136.012 238.536 123.596 236.36C73.2868 240.307 32.2611 271.833 20.9357 318.812C18.2057 308.381 17.4292 297.79 18.8979 287.35C23.2934 256.106 46.8248 232.948 80.0572 222.1C68.6366 216.498 58.216 209.765 48.925 202.169C68.0143 209.587 87.1735 214.309 105.605 216.468C119.003 214.791 133.356 214.827 148.23 216.774C187.799 212.338 219.73 194.18 233.511 164.019C255.905 115.008 222.97 50.5029 158.639 9.45565C165.388 11.5285 172.115 14.0753 178.764 17.1136C247.442 48.4938 281.949 120.26 255.837 177.409C253.215 183.146 250.082 188.518 246.498 193.508C307.389 194.301 415.273 223.222 532.454 273.221C564.794 287.021 595.514 301.434 623.956 315.987ZM198.102 229.972C197.982 230.019 197.861 230.066 197.74 230.112C197.915 230.185 198.091 230.256 198.266 230.33C198.211 230.21 198.157 230.091 198.102 229.972Z"/>
</mask>
<path d="M623.956 315.987L622.821 318.764L625.322 313.316L623.956 315.987ZM253.791 236.939L251.016 235.798L251.016 235.798L253.791 236.939ZM524.86 430.124L523.78 432.923L526.14 427.411L524.86 430.124ZM476.099 410.307L474.922 413.067V413.067L476.099 410.307ZM283.423 308.948L285.089 306.453L276.921 300.999L280.647 310.086L283.423 308.948ZM289.51 352.478L292.481 352.896V352.896L289.51 352.478ZM285.649 367.704L282.66 367.955L288.458 368.757L285.649 367.704ZM168.997 240.129L169.699 237.212V237.212L168.997 240.129ZM160.228 238.286L160.759 235.333L160.387 235.266L160.011 235.293L160.228 238.286ZM123.596 236.36L124.114 233.406L123.74 233.34L123.362 233.37L123.596 236.36ZM20.9357 318.812L18.0334 319.571L23.8521 319.515L20.9357 318.812ZM18.8979 287.35L15.9272 286.932L15.9272 286.932L18.8979 287.35ZM80.0572 222.1L80.9881 224.952L88.0102 222.66L81.3784 219.407L80.0572 222.1ZM48.925 202.169L50.0116 199.373L47.0261 204.492L48.925 202.169ZM105.605 216.468L105.256 219.448L105.617 219.49L105.978 219.445L105.605 216.468ZM148.23 216.774L147.841 219.748L148.202 219.796L148.564 219.755L148.23 216.774ZM233.511 164.019L236.24 165.266L236.24 165.266L233.511 164.019ZM158.639 9.45565L159.52 6.58785L157.025 11.9847L158.639 9.45565ZM178.764 17.1136L180.011 14.3849V14.3849L178.764 17.1136ZM255.837 177.409L258.565 178.656V178.656L255.837 177.409ZM246.498 193.508L244.061 191.758L240.703 196.433L246.459 196.508L246.498 193.508ZM532.454 273.221L533.631 270.462V270.462L532.454 273.221ZM198.102 229.972L200.831 228.726L199.659 226.158L197.025 227.172L198.102 229.972ZM197.74 230.112L196.671 227.308L189.638 229.99L196.588 232.881L197.74 230.112ZM198.266 230.33L197.106 233.096L204.266 236.1L200.986 229.062L198.266 230.33ZM623.956 315.987L625.091 313.21C528.4 273.706 439.305 245.071 372.495 230.722C339.115 223.553 311.145 219.916 290.514 220.33C280.21 220.536 271.552 221.755 264.909 224.163C258.268 226.572 253.269 230.317 251.016 235.798L253.791 236.939L256.565 238.08C257.933 234.753 261.181 231.897 266.954 229.804C272.725 227.711 280.648 226.528 290.635 226.328C310.584 225.929 338.031 229.457 371.235 236.589C437.594 250.841 526.339 279.345 622.821 318.764L623.956 315.987ZM253.791 236.939L251.016 235.798C248.944 240.838 249.534 246.528 251.952 252.453C254.368 258.371 258.718 264.816 264.673 271.672C276.593 285.395 295.4 301.28 319.715 318.513C368.387 353.008 439.66 393.273 523.581 432.838L524.86 430.124L526.14 427.411C442.405 387.933 371.471 347.839 323.185 313.618C299.022 296.493 280.662 280.931 269.203 267.738C263.469 261.136 259.578 255.257 257.507 250.185C255.44 245.12 255.3 241.157 256.565 238.08L253.791 236.939ZM524.86 430.124L525.941 427.326C509.973 421.162 493.717 414.563 477.276 407.548L476.099 410.307L474.922 413.067C491.426 420.109 507.747 426.734 523.78 432.923L524.86 430.124ZM476.099 410.307L477.276 407.548C401.37 375.16 334.459 339.415 285.089 306.453L283.423 308.948L281.757 311.443C331.499 344.653 398.753 380.567 474.922 413.067L476.099 410.307ZM283.423 308.948L280.647 310.086C286.316 323.911 288.495 338.161 286.54 352.06L289.51 352.478L292.481 352.896C294.605 337.802 292.213 322.477 286.198 307.809L283.423 308.948ZM289.51 352.478L286.54 352.06C285.822 357.16 284.572 362.029 282.84 366.651L285.649 367.704L288.458 368.757C290.345 363.724 291.703 358.429 292.481 352.896L289.51 352.478ZM285.649 367.704L288.639 367.452C283.644 308.045 234.916 252.908 169.699 237.212L168.997 240.129L168.295 243.046C231.25 258.198 277.903 311.375 282.66 367.955L285.649 367.704ZM168.997 240.129L169.699 237.212C166.708 236.492 163.726 235.868 160.759 235.333L160.228 238.286L159.696 241.238C162.55 241.752 165.418 242.353 168.295 243.046L168.997 240.129ZM160.228 238.286L160.011 235.293C148.367 236.138 136.292 235.539 124.114 233.406L123.596 236.36L123.078 239.315C135.732 241.533 148.3 242.158 160.444 241.278L160.228 238.286ZM123.596 236.36L123.362 233.37C71.9373 237.404 29.6894 269.7 18.0192 318.109L20.9357 318.812L23.8521 319.515C34.8329 273.966 74.6364 243.21 123.831 239.351L123.596 236.36ZM20.9357 318.812L23.8379 318.052C21.1993 307.97 20.4601 297.78 21.8687 287.767L18.8979 287.35L15.9272 286.932C14.3983 297.799 15.2121 308.791 18.0334 319.571L20.9357 318.812ZM18.8979 287.35L21.8687 287.768C26.0633 257.951 48.5313 235.547 80.9881 224.952L80.0572 222.1L79.1263 219.249C45.1184 230.349 20.5235 254.261 15.9272 286.932L18.8979 287.35ZM80.0572 222.1L81.3784 219.407C70.1632 213.905 59.9365 207.297 50.8239 199.847L48.925 202.169L47.0261 204.492C56.4954 212.234 67.11 219.091 78.7359 224.794L80.0572 222.1ZM48.925 202.169L47.8384 204.965C67.1568 212.472 86.5634 217.258 105.256 219.448L105.605 216.468L105.954 213.489C87.7836 211.359 68.8718 206.701 50.0116 199.373L48.925 202.169ZM105.605 216.468L105.978 219.445C119.11 217.801 133.206 217.833 147.841 219.748L148.23 216.774L148.619 213.799C133.505 211.821 118.896 211.781 105.232 213.491L105.605 216.468ZM148.23 216.774L148.564 219.755C188.775 215.247 221.874 196.706 236.24 165.266L233.511 164.019L230.782 162.772C217.586 191.653 186.823 209.428 147.896 213.792L148.23 216.774ZM233.511 164.019L236.24 165.266C247.906 139.733 245.049 110.387 231.289 82.4263C217.531 54.4699 192.799 27.6934 160.253 6.92662L158.639 9.45565L157.025 11.9847C188.81 32.2652 212.711 58.2648 225.905 85.0756C239.097 111.882 241.51 139.295 230.782 162.773L233.511 164.019ZM158.639 9.45565L157.758 12.3235C164.383 14.358 170.987 16.8585 177.517 19.8422L178.764 17.1136L180.011 14.3849C173.242 11.2922 166.393 8.69891 159.52 6.58785L158.639 9.45565ZM178.764 17.1136L177.517 19.8422C245.179 50.7582 278.327 120.969 253.108 176.162L255.837 177.409L258.565 178.656C285.571 119.552 249.705 46.2293 180.011 14.3849L178.764 17.1136ZM255.837 177.409L253.108 176.162C250.568 181.721 247.533 186.924 244.061 191.758L246.498 193.508L248.934 195.259C252.631 190.112 255.862 184.572 258.565 178.656L255.837 177.409ZM246.498 193.508L246.459 196.508C306.748 197.293 414.192 226.022 531.276 275.981L532.454 273.221L533.631 270.462C416.354 220.421 308.03 191.309 246.537 190.509L246.498 193.508ZM532.454 273.221L531.276 275.981C563.555 289.754 594.212 304.138 622.589 318.658L623.956 315.987L625.322 313.316C596.817 298.731 566.034 284.288 533.631 270.462L532.454 273.221ZM198.102 229.972L197.025 227.172C196.89 227.224 196.787 227.264 196.671 227.308L197.74 230.112L198.809 232.915C198.935 232.867 199.073 232.813 199.18 232.772L198.102 229.972ZM197.74 230.112L196.588 232.881C196.806 232.972 196.923 233.019 197.106 233.096L198.266 230.33L199.427 227.563C199.26 227.493 199.025 227.397 198.893 227.342L197.74 230.112ZM198.266 230.33L200.986 229.062C200.936 228.956 200.887 228.849 200.831 228.726L198.102 229.972L195.373 231.218C195.426 231.333 195.486 231.464 195.547 231.597L198.266 230.33Z" fill="#AAAAAA" mask="url(#path-1-inside-1_3516_4829)"/>
</g>
<defs>
<clipPath id="clip0_3516_4829">
<rect width="621" height="427" fill="white"/>
</clipPath>
</defs>
</svg>
