<svg width="894" height="836" viewBox="0 0 894 836" fill="none" xmlns="http://www.w3.org/2000/svg">
<g clip-path="url(#clip0_3516_4796)">
<mask id="path-1-inside-1_3516_4796" fill="white">
<path d="M461.706 760.013C467.931 760.13 473.962 758.823 479.663 755.954C517.443 736.941 526.459 656.679 499.934 576.401C552.985 564.87 623.195 515.286 685.713 439.815C716.419 402.747 741.491 363.99 759.854 326.968C749.054 342.291 737.336 357.644 724.776 372.803C628.183 489.381 518.439 550.598 479.657 509.537C454.961 483.388 464.997 422.066 500.49 350.867C504.168 347.039 507.873 343.149 511.597 339.194C510.324 338.368 509.066 337.533 507.824 336.69C527.4 300.169 553.3 261.557 584.333 224.103C598.086 207.505 612.107 192.03 626.15 177.812C593.371 201.264 559.259 233.181 527.173 271.914C504.283 299.547 484.522 328.117 468.338 356.207C412.557 402.862 371.474 423.786 356.602 408.827C353.96 406.168 352.229 402.458 351.361 397.776C351.919 398.943 352.454 400.108 352.965 401.272C360.088 398.692 364.852 394.789 366.795 389.506C369.787 381.37 365.759 370.855 356.081 359.01C370.144 310.713 411.038 234.317 470.067 145.671C468.851 145.934 467.635 146.191 466.419 146.445C413.172 217.46 369.239 285.262 338.948 341.637C330.641 334.353 320.725 326.799 309.447 319.167C313.517 316.21 317.483 313.05 321.33 309.695C316.238 312.333 311.047 314.677 305.779 316.714C278.006 298.354 242.536 279.659 202.805 263.277C175.929 252.196 149.813 243.291 125.764 236.719C106.354 192.468 103.846 137.573 122.92 85.3466C134.247 54.333 151.78 28.1093 173.025 8.0245C133.135 26.5614 99.2347 62.628 81.582 110.964C67.5261 149.453 65.9965 189.633 74.8584 225.816C34.7882 220.014 6.8613 223.939 1.37933 238.843C-2.52393 249.456 5.51236 264.118 22.4591 280.498C38.4409 268.926 60.8369 262.147 87.1029 260.451C103.603 295.339 131 323.596 166.754 338.431C208.923 355.928 254.368 351.291 292.952 329.726C306.387 340.238 318.157 351.376 327.961 362.774C296.603 425.341 284.81 470.713 299.587 485.612C317.742 503.914 372.085 472.274 442.309 407.941C433.555 428.378 427.02 448.031 422.9 466.281C408.735 459.054 394.722 457.895 382.282 464.155C361.585 474.571 349.52 503.37 347.202 540.483C350.641 538.033 354.251 535.848 358.023 533.959C359.429 533.255 360.843 532.601 362.262 531.993C370.414 520.208 381.767 509.991 395.423 503.143C403.045 499.321 410.758 496.863 418.271 495.679C415.944 524.343 421.261 547.71 435.25 562.526C444.793 572.631 457.584 577.925 472.732 578.841C478.561 588.388 483.55 599.062 487.459 610.726C506.105 666.371 494.357 727.011 461.706 760.013ZM204.022 316.345C177.74 305.44 156.181 286.803 140.353 263.314C164.153 267.094 189.376 274.163 214.765 284.666C240.631 295.367 264.102 308.572 284.296 323.209C257.819 329.037 230.213 327.211 204.022 316.345ZM537.498 809.843C541.046 818.191 554.074 820.068 573.704 816.429C561.104 781.24 616.318 713.152 698.498 663.082C780.482 613.133 858.766 599.721 875.355 632.336C888.92 615.843 895.071 602.427 891.578 594.208C881.444 570.361 793.964 599.301 696.187 658.847C598.411 718.393 527.364 785.996 537.498 809.843Z"/>
</mask>
<path d="M461.706 760.013L461.716 763.042L454.577 762.908L459.593 757.838L461.706 760.013ZM479.663 755.954L481.023 758.677L481.023 758.677L479.663 755.954ZM499.934 576.401L497.122 577.313L496.071 574.13L499.255 573.437L499.934 576.401ZM685.713 439.815L687.998 441.8V441.8L685.713 439.815ZM759.854 326.968L757.43 325.164L762.509 328.383L759.854 326.968ZM724.776 372.803L727.061 374.788V374.788L724.776 372.803ZM479.657 509.537L477.54 511.614L477.54 511.614L479.657 509.537ZM500.49 350.867L497.836 349.447L498.037 349.044L498.347 348.722L500.49 350.867ZM511.597 339.194L513.152 336.647L516.26 338.664L513.76 341.318L511.597 339.194ZM507.824 336.69L506.217 339.202L503.902 337.632L505.211 335.192L507.824 336.69ZM584.333 224.103L582.048 222.118V222.118L584.333 224.103ZM626.15 177.812L624.409 175.318L628.265 179.985L626.15 177.812ZM527.173 271.914L524.888 269.929V269.929L527.173 271.914ZM468.338 356.207L470.907 357.784L470.647 358.236L470.251 358.567L468.338 356.207ZM356.602 408.827L354.541 410.961L354.541 410.961L356.602 408.827ZM351.361 397.776L348.444 398.276L354.025 396.496L351.361 397.776ZM352.965 401.272L354.012 404.13L351.405 405.074L350.258 402.46L352.965 401.272ZM366.795 389.506L369.578 390.625L369.578 390.625L366.795 389.506ZM356.081 359.01L353.816 360.92L352.778 359.649L353.232 358.089L356.081 359.01ZM470.067 145.671L469.391 142.706L476.722 141.123L472.535 147.411L470.067 145.671ZM466.419 146.445L464.046 144.572L464.7 143.698L465.763 143.477L466.419 146.445ZM338.948 341.637L341.559 343.137L339.828 346.36L337.041 343.916L338.948 341.637ZM309.447 319.167L307.843 321.681L304.205 319.218L307.69 316.686L309.447 319.167ZM321.33 309.695L319.94 306.987L323.288 312.016L321.33 309.695ZM305.779 316.714L306.884 319.55L305.483 320.092L304.203 319.246L305.779 316.714ZM202.805 263.277L203.866 260.471V260.471L202.805 263.277ZM125.764 236.719L125.055 239.644L123.653 239.261L123.058 237.906L125.764 236.719ZM122.92 85.3466L120.135 84.2347V84.2347L122.92 85.3466ZM173.025 8.02452L171.746 5.26238L175.069 10.2676L173.025 8.02452ZM81.582 110.964L78.7963 109.852L78.7963 109.852L81.582 110.964ZM74.8584 225.816L77.7387 225.142L78.7905 229.436L74.5042 228.815L74.8584 225.816ZM1.37933 238.843L-1.40401 237.725L-1.40397 237.725L1.37933 238.843ZM22.4591 280.498L24.2127 282.982L22.2375 284.412L20.4416 282.676L22.4591 280.498ZM87.1029 260.451L86.851 257.427L88.8799 257.296L89.7723 259.183L87.1029 260.451ZM166.754 338.431L165.687 341.235L165.687 341.235L166.754 338.431ZM292.952 329.726L291.482 327.062L293.169 326.118L294.727 327.337L292.952 329.726ZM327.961 362.774L330.174 360.804L331.526 362.375L330.611 364.2L327.961 362.774ZM299.587 485.612L297.523 487.744L297.523 487.744L299.587 485.612ZM442.309 407.941L440.299 405.667L445.035 409.205L442.309 407.941ZM422.9 466.281L425.795 467.022L424.966 470.694L421.618 468.985L422.9 466.281ZM382.282 464.155L380.922 461.432L380.922 461.432L382.282 464.155ZM347.202 540.483L348.938 542.98L343.839 546.612L344.238 540.225L347.202 540.483ZM358.023 533.959L356.668 531.234L356.668 531.234L358.023 533.959ZM362.262 531.993L364.7 533.776L364.224 534.464L363.461 534.791L362.262 531.993ZM395.423 503.143L394.066 500.419L394.066 500.419L395.423 503.143ZM418.271 495.679L417.755 492.685L421.548 492.087L421.231 495.994L418.271 495.679ZM435.25 562.526L433.133 564.603L433.133 564.603L435.25 562.526ZM472.732 578.841L472.843 575.816L474.407 575.911L475.243 577.279L472.732 578.841ZM487.459 610.726L490.267 609.802L490.267 609.802L487.459 610.726ZM204.022 316.345L202.955 319.148L202.955 319.148L204.022 316.345ZM140.353 263.314L137.918 264.994L134.052 259.257L140.747 260.321L140.353 263.314ZM214.765 284.666L215.829 281.862V281.862L214.765 284.666ZM284.296 323.209L285.981 320.752L291.483 324.741L284.983 326.172L284.296 323.209ZM537.498 809.843L534.778 810.997L534.778 810.997L537.498 809.843ZM573.704 816.429L576.491 815.444L577.686 818.782L574.297 819.411L573.704 816.429ZM698.499 663.082L696.935 660.472V660.472L698.499 663.082ZM875.355 632.336L877.647 634.313L874.803 637.77L872.725 633.685L875.355 632.336ZM891.578 594.208L894.299 593.054L894.299 593.054L891.578 594.208ZM696.187 658.847L694.624 656.237V656.237L696.187 658.847ZM461.706 760.013L461.696 756.984C467.463 757.092 473.03 755.884 478.303 753.231L479.663 755.954L481.023 758.677C474.894 761.761 468.399 763.168 461.716 763.042L461.706 760.013ZM479.663 755.954L478.303 753.231C495.839 744.406 507.336 720.912 510.962 688.741C514.566 656.77 510.264 617.089 497.122 577.313L499.934 576.401L502.747 575.49C516.129 615.992 520.581 656.581 516.863 689.563C513.168 722.346 501.267 748.489 481.023 758.677L479.663 755.954ZM499.934 576.401L499.255 573.437C551.393 562.104 621.086 513.087 683.427 437.83L685.713 439.815L687.998 441.8C625.303 517.484 554.578 567.635 500.613 579.365L499.934 576.401ZM685.713 439.815L683.427 437.83C713.998 400.925 738.943 362.358 757.198 325.554L759.854 326.968L762.509 328.383C744.039 365.622 718.84 404.569 687.998 441.8L685.713 439.815ZM759.854 326.968L762.278 328.772C751.434 344.158 739.67 359.57 727.061 374.788L724.776 372.803L722.49 370.818C735.003 355.717 746.674 340.425 757.43 325.164L759.854 326.968ZM724.776 372.803L727.061 374.788C678.606 433.269 626.758 477.986 582.005 502.95C559.643 515.424 538.885 523.061 521.098 524.903C503.284 526.748 488.098 522.792 477.54 511.614L479.657 509.537L481.774 507.459C490.607 516.812 503.682 520.602 520.371 518.874C537.088 517.143 557.074 509.888 579.069 497.619C623.033 473.095 674.353 428.915 722.49 370.818L724.776 372.803ZM479.657 509.537L477.54 511.614C464.198 497.488 460.663 474.393 464.562 446.602C468.482 418.669 480.006 385.217 497.836 349.447L500.49 350.867L503.143 352.287C485.481 387.717 474.24 420.525 470.442 447.589C466.625 474.796 470.419 495.437 481.774 507.459L479.657 509.537ZM500.49 350.867L498.347 348.722C502.019 344.9 505.717 341.017 509.434 337.07L511.597 339.194L513.76 341.318C510.029 345.28 506.317 349.178 502.632 353.012L500.49 350.867ZM511.597 339.194L510.043 341.741C508.751 340.903 507.476 340.056 506.217 339.202L507.824 336.69L509.43 334.178C510.657 335.01 511.897 335.834 513.152 336.647L511.597 339.194ZM507.824 336.69L505.211 335.192C524.887 298.485 550.899 259.711 582.048 222.118L584.333 224.103L586.619 226.088C555.701 263.403 529.913 301.853 510.436 338.188L507.824 336.69ZM584.333 224.103L582.048 222.118C595.853 205.456 609.931 189.918 624.035 175.638L626.15 177.812L628.265 179.985C614.282 194.142 600.318 209.554 586.619 226.088L584.333 224.103ZM626.15 177.812L627.89 180.305C595.338 203.596 561.405 235.334 529.459 273.899L527.173 271.914L524.888 269.929C557.113 231.027 591.405 198.933 624.409 175.318L626.15 177.812ZM527.173 271.914L529.459 273.899C506.671 301.409 487.005 329.842 470.907 357.784L468.338 356.207L465.77 354.63C482.039 326.391 501.895 297.686 524.888 269.929L527.173 271.914ZM468.338 356.207L470.251 358.567C442.294 381.95 417.864 399.022 398.444 408.368C388.745 413.035 380.113 415.866 372.805 416.496C365.466 417.128 359.107 415.554 354.541 410.961L356.602 408.827L358.664 406.692C361.534 409.579 365.886 410.999 372.177 410.457C378.497 409.913 386.411 407.402 395.815 402.877C414.599 393.837 438.601 377.119 466.426 353.847L468.338 356.207ZM356.602 408.827L354.541 410.961C351.338 407.739 349.391 403.387 348.444 398.276L351.361 397.776L354.279 397.275C355.068 401.529 356.583 404.598 358.664 406.692L356.602 408.827ZM351.361 397.776L354.025 396.496C354.597 397.692 355.146 398.888 355.671 400.085L352.965 401.272L350.258 402.46C349.762 401.328 349.241 400.193 348.697 399.055L351.361 397.776ZM352.965 401.272L351.917 398.414C358.611 395.99 362.484 392.542 364.012 388.388L366.795 389.506L369.578 390.625C367.22 397.036 361.565 401.394 354.012 404.13L352.965 401.272ZM366.795 389.506L364.011 388.388C366.386 381.93 363.414 372.666 353.816 360.92L356.081 359.01L358.345 357.1C368.104 369.045 373.188 380.809 369.578 390.625L366.795 389.506ZM356.081 359.01L353.232 358.089C367.433 309.323 408.55 232.607 467.599 143.931L470.067 145.671L472.535 147.411C413.526 236.026 372.856 312.103 358.929 359.931L356.081 359.01ZM470.067 145.671L470.742 148.636C469.519 148.9 468.297 149.159 467.075 149.414L466.419 146.445L465.763 143.477C466.974 143.224 468.183 142.967 469.391 142.706L470.067 145.671ZM466.419 146.445L468.792 148.319C415.61 219.248 371.763 286.924 341.559 343.137L338.948 341.637L336.336 340.136C366.714 283.6 410.735 215.673 464.046 144.572L466.419 146.445ZM338.948 341.637L337.041 343.916C328.849 336.733 319.039 329.257 307.843 321.681L309.447 319.167L311.051 316.653C322.411 324.34 332.433 331.972 340.855 339.357L338.948 341.637ZM309.447 319.167L307.69 316.686C311.69 313.779 315.59 310.673 319.372 307.374L321.33 309.695L323.288 312.016C319.377 315.427 315.344 318.64 311.205 321.648L309.447 319.167ZM321.33 309.695L322.72 312.403C317.537 315.088 312.251 317.475 306.884 319.55L305.779 316.714L304.674 313.878C309.843 311.879 314.939 309.579 319.94 306.987L321.33 309.695ZM305.779 316.714L304.203 319.246C276.617 301.01 241.325 282.402 201.744 266.083L202.805 263.277L203.866 260.471C243.747 276.915 279.394 295.697 307.356 314.182L305.779 316.714ZM202.805 263.277L201.744 266.083C174.975 255.046 148.976 246.181 125.055 239.644L125.764 236.719L126.474 233.793C150.65 240.4 176.883 249.346 203.866 260.471L202.805 263.277ZM125.764 236.719L123.058 237.906C103.311 192.888 100.803 137.166 120.135 84.2347L122.92 85.3466L125.706 86.4585C106.889 137.98 109.397 192.048 128.471 235.532L125.764 236.719ZM122.92 85.3466L120.135 84.2347C131.617 52.796 149.4 26.1833 170.981 5.7814L173.025 8.02452L175.069 10.2676C154.159 30.0353 136.878 55.8701 125.706 86.4585L122.92 85.3466ZM173.025 8.02452L174.305 10.7867C135.135 28.9886 101.761 64.4495 84.3677 112.076L81.582 110.964L78.7963 109.852C96.7081 60.8065 131.135 24.1341 171.746 5.26238L173.025 8.02452ZM81.582 110.964L84.3677 112.076C70.5188 149.997 69.0229 189.555 77.7387 225.142L74.8584 225.816L71.9781 226.49C62.9701 189.71 64.5333 148.908 78.7963 109.852L81.582 110.964ZM74.8584 225.816L74.5042 228.815C54.6101 225.935 37.947 225.506 25.6904 227.555C13.2401 229.637 6.32504 234.083 4.16263 239.962L1.37933 238.843L-1.40397 237.725C1.91559 228.7 11.705 223.731 24.6061 221.575C37.701 219.385 55.0365 219.895 75.2127 222.816L74.8584 225.816ZM1.37933 238.843L4.16266 239.961C2.6249 244.143 3.28995 249.505 6.7207 256.14C10.1431 262.76 16.1278 270.25 24.4766 278.32L22.4591 280.498L20.4416 282.676C11.8437 274.366 5.33689 266.335 1.48023 258.876C-2.36804 251.432 -3.7695 244.157 -1.40401 237.725L1.37933 238.843ZM22.4591 280.498L20.7055 278.014C37.2642 266.025 60.2415 259.145 86.851 257.427L87.1029 260.451L87.3547 263.475C61.4324 265.149 39.6176 271.828 24.2127 282.982L22.4591 280.498ZM87.1029 260.451L89.7723 259.183C105.978 293.448 132.838 321.113 167.821 335.628L166.754 338.431L165.687 341.235C129.162 326.08 101.228 297.23 84.4334 261.719L87.1029 260.451ZM166.754 338.431L167.821 335.628C209.068 352.742 253.584 348.242 291.482 327.062L292.952 329.726L294.422 332.391C255.151 354.339 208.777 359.113 165.687 341.235L166.754 338.431ZM292.952 329.726L294.727 327.337C308.303 337.959 320.223 349.235 330.174 360.804L327.961 362.774L325.747 364.744C316.09 353.517 304.471 342.517 291.177 332.116L292.952 329.726ZM327.961 362.774L330.611 364.2C314.976 395.397 304.303 422.146 299.36 442.846C296.887 453.202 295.885 461.894 296.34 468.794C296.795 475.709 298.684 480.489 301.651 483.48L299.587 485.612L297.523 487.744C293.101 483.286 290.923 476.808 290.414 469.069C289.903 461.317 291.039 451.962 293.587 441.291C298.686 419.939 309.589 392.718 325.31 361.348L327.961 362.774ZM299.587 485.612L301.651 483.48C305.221 487.078 310.872 488.573 319.15 487.25C327.419 485.929 337.771 481.857 349.96 475.096C374.304 461.592 405.253 437.773 440.299 405.667L442.309 407.941L444.32 410.215C409.142 442.442 377.807 466.61 352.884 480.434C340.44 487.337 329.414 491.764 320.193 493.238C310.981 494.71 303.031 493.297 297.523 487.744L299.587 485.612ZM442.309 407.941L445.035 409.205C436.339 429.505 429.867 448.981 425.795 467.022L422.9 466.281L420.005 465.54C424.172 447.08 430.771 427.252 439.584 406.678L442.309 407.941ZM422.9 466.281L421.618 468.985C408.074 462.074 395.063 461.131 383.642 466.878L382.282 464.155L380.922 461.432C394.381 454.659 409.396 456.033 424.182 463.577L422.9 466.281ZM382.282 464.155L383.642 466.878C364.409 476.557 352.467 503.883 350.166 540.741L347.202 540.483L344.238 540.225C346.572 502.857 358.76 472.585 380.922 461.432L382.282 464.155ZM347.202 540.483L345.466 537.987C349.023 535.453 352.759 533.191 356.668 531.234L358.023 533.959L359.378 536.685C355.743 538.505 352.26 540.613 348.938 542.98L347.202 540.483ZM358.023 533.959L356.668 531.234C358.126 530.504 359.591 529.825 361.062 529.195L362.262 531.993L363.461 534.791C362.094 535.376 360.732 536.007 359.378 536.685L358.023 533.959ZM362.262 531.993L359.823 530.21C368.244 518.037 379.964 507.491 394.066 500.419L395.423 503.143L396.779 505.868C383.571 512.492 372.585 522.378 364.7 533.776L362.262 531.993ZM395.423 503.143L394.066 500.419C401.941 496.47 409.936 493.916 417.755 492.685L418.271 495.679L418.786 498.674C411.58 499.809 404.149 502.172 396.779 505.868L395.423 503.143ZM418.271 495.679L421.231 495.994C418.936 524.266 424.254 546.56 437.367 560.448L435.25 562.526L433.133 564.603C418.268 548.86 412.953 524.42 415.311 495.364L418.271 495.679ZM435.25 562.526L437.367 560.448C446.278 569.885 458.295 574.937 472.843 575.816L472.732 578.841L472.62 581.865C456.873 580.913 443.308 575.378 433.133 564.603L435.25 562.526ZM472.732 578.841L475.243 577.279C481.198 587.034 486.286 597.922 490.267 609.802L487.459 610.726L484.651 611.65C480.814 600.201 475.923 589.742 470.221 580.402L472.732 578.841ZM487.459 610.726L490.267 609.802C509.211 666.337 497.403 728.243 463.82 762.188L461.706 760.013L459.593 757.838C491.311 725.778 502.999 666.406 484.651 611.65L487.459 610.726ZM204.022 316.345L202.955 319.148C176.075 307.996 154.056 288.943 137.918 264.994L140.353 263.314L142.789 261.635C158.306 284.663 179.405 302.885 205.089 313.541L204.022 316.345ZM140.353 263.314L140.747 260.321C164.786 264.139 190.234 271.273 215.829 281.862L214.765 284.666L213.701 287.471C188.518 277.053 163.519 270.05 139.959 266.308L140.353 263.314ZM214.765 284.666L215.829 281.862C241.905 292.65 265.586 305.969 285.981 320.752L284.296 323.209L282.611 325.666C262.618 311.174 239.357 298.085 213.701 287.471L214.765 284.666ZM284.296 323.209L284.983 326.172C257.963 332.119 229.743 330.262 202.955 319.148L204.022 316.345L205.089 313.541C230.682 324.16 257.674 325.956 283.609 320.247L284.296 323.209ZM537.498 809.843L540.219 808.689C541.404 811.478 544.326 813.668 550.002 814.644C555.663 815.617 563.439 815.241 573.112 813.448L573.704 816.429L574.297 819.411C564.34 821.257 555.787 821.762 549.139 820.619C542.506 819.478 537.14 816.556 534.778 810.997L537.498 809.843ZM573.704 816.429L570.917 817.414C567.414 807.629 568.746 795.953 573.566 783.499C578.403 771.001 586.886 757.358 598.256 743.372C621.005 715.388 655.622 685.643 696.935 660.472L698.499 663.082L700.062 665.692C659.194 690.591 625.115 719.925 602.861 747.3C591.73 760.993 583.637 774.1 579.097 785.83C574.54 797.604 573.695 807.635 576.491 815.444L573.704 816.429ZM698.499 663.082L696.935 660.472C738.14 635.367 778.547 619.358 810.891 613.76C827.05 610.963 841.377 610.733 852.852 613.403C864.352 616.079 873.292 621.759 877.985 630.987L875.355 632.336L872.725 633.685C869.124 626.605 862.058 621.731 851.652 619.31C841.22 616.882 827.742 617.012 812.008 619.735C780.567 625.176 740.84 640.847 700.062 665.692L698.499 663.082ZM875.355 632.336L873.063 630.359C879.761 622.215 884.502 614.978 887.144 608.892C889.827 602.71 890.102 598.29 888.858 595.362L891.578 594.208L894.299 593.054C896.547 598.344 895.493 604.742 892.583 611.446C889.631 618.246 884.514 625.964 877.647 634.313L875.355 632.336ZM891.578 594.208L888.858 595.362C887.997 593.335 886.27 591.682 883.284 590.526C880.237 589.348 876.037 588.763 870.663 588.903C859.925 589.182 845.295 592.325 827.72 598.139C792.628 609.748 746.516 631.759 697.75 661.458L696.187 658.847L694.624 656.237C743.635 626.389 790.151 604.157 825.777 592.371C843.561 586.488 858.812 583.146 870.382 582.845C876.162 582.694 881.224 583.296 885.283 584.866C889.403 586.46 892.627 589.118 894.299 593.054L891.578 594.208ZM696.187 658.847L697.75 661.458C648.989 691.153 606.959 722.82 578.427 749.969C564.147 763.557 553.35 775.917 546.769 786.252C543.477 791.423 541.314 795.972 540.258 799.825C539.199 803.689 539.324 806.583 540.219 808.689L537.498 809.843L534.778 810.997C533.139 807.141 533.267 802.705 534.535 798.076C535.807 793.435 538.296 788.325 541.767 782.874C548.713 771.966 559.889 759.233 574.326 745.496C603.228 717.994 645.609 686.087 694.624 656.237L696.187 658.847Z" fill="#AAAAAA" mask="url(#path-1-inside-1_3516_4796)"/>
</g>
<defs>
<clipPath id="clip0_3516_4796">
<rect width="894" height="836" fill="white"/>
</clipPath>
</defs>
</svg>
