<svg width="638" height="341" viewBox="0 0 638 341" fill="none" xmlns="http://www.w3.org/2000/svg">
<g clip-path="url(#clip0_3516_4694)">
<mask id="path-1-inside-1_3516_4694" fill="white">
<path d="M325.394 -29.2006C325.322 -30.0296 325.248 -30.8578 325.175 -31.6833C325.186 -30.8187 325.193 -29.9539 325.202 -29.0914C325.266 -29.1278 325.33 -29.1643 325.394 -29.2006ZM483.541 303.708C486.791 300.668 489.313 297.183 490.975 293.272C501.85 267.677 471.818 233.549 423.896 217.046C423.696 216.978 423.496 216.911 423.296 216.843C444.778 186.706 458.84 135.276 458.38 78.3064C458.143 48.9158 454.071 21.7899 447.173 -1.11079C448.391 10.4685 449.084 22.5871 449.184 35.0972C449.899 124.439 420.166 199.963 382.775 203.787C359.796 206.136 339.271 180.858 326.697 140.285C327.044 135.793 327.363 131.227 327.646 126.593C326.167 127.061 324.695 127.505 323.234 127.925C317.434 104.932 314.009 77.9963 313.777 48.9434C313.689 37.9217 314.066 27.1084 314.861 16.616C309.039 39.8803 305.829 66.2634 306.052 93.9544C306.221 114.882 308.335 134.66 312.028 152.583C303.433 196.78 291.174 224.406 276.813 226.118C272.863 226.589 268.943 225.076 265.096 221.767C268.536 222.139 271.793 222.689 274.846 223.421C277.16 219.151 277.807 215.512 276.549 212.693C274.297 207.644 266.222 205.856 253.979 206.922C240.406 182.165 228.459 135.178 220.435 75.4157C223.861 127.286 230.691 173.547 239.584 209.089C232.648 210.491 224.94 212.473 216.629 215C217.43 211.845 218.087 208.665 218.592 205.47C217.149 209.016 215.521 212.499 213.716 215.902C192.374 222.6 167.292 232.728 141.127 245.644C122.578 254.801 105.403 264.413 90.3708 273.859C62.1816 266.99 37.8769 248.105 25.3142 219.788C17.8166 202.888 15.4329 184.729 17.4959 167.021C5.62212 193.15 4.08467 222.768 15.7278 249.011C24.9992 269.909 41.1655 285.368 60.7883 294.346C38.8279 311.378 26.9004 326.109 30.4912 334.159C33.1113 340.03 43.6101 341.491 59.3819 339.18C62.3973 327.426 70.4088 314.385 82.3458 301.313C105.085 305.888 130.331 302.885 154.081 291.086C182.357 277.038 202.921 253.298 212.953 226.68C223.52 224.074 233.6 222.391 242.937 221.64C254.077 260.655 267.899 283.663 282.158 282.098C299.329 280.211 313.458 243.087 321.672 186.436C325.839 197.491 330.726 207.286 336.185 215.542C327.279 219.788 320.699 225.826 317.434 233.509C311.44 247.615 317.873 264.313 332.877 279.223C333.58 276.398 334.519 273.588 335.705 270.812C335.956 270.222 336.218 269.639 336.489 269.06C335.302 260.533 336.557 250.896 340.614 241.386C342.456 237.067 344.749 233.076 347.379 229.477C358.187 240.331 370.487 245.855 383.494 244.519C393.323 243.509 402.685 238.672 411.254 230.735C411.281 230.823 411.31 230.911 411.336 231C418.585 231.606 425.904 233.104 433.093 235.568C466.326 246.958 486.253 275.355 483.541 303.708ZM163.129 265.136C145.655 273.817 127.271 277.467 109.65 276.631C123.307 266.202 139.185 256.297 156.683 247.634C173.487 239.314 190.173 232.936 205.935 228.529C195.259 243.587 180.762 256.375 163.129 265.136ZM543.381 285.774C548.686 287.106 555.92 281.57 564.077 270.881C542.928 263.875 541.368 212.436 560.819 154.598C580.23 96.8809 613.351 54.2405 635.549 57.9237C635.231 45.4448 632.559 37.6346 627.331 36.3217C612.103 32.4986 580.966 85.2406 557.783 154.125C534.601 223.01 528.154 281.951 543.381 285.774Z"/>
</mask>
<path d="M325.394 -29.2006L328.343 -29.5341L328.516 -27.5386L326.792 -26.5532L325.394 -29.2006ZM325.175 -31.6833L322.214 -31.5786L328.124 -32.0244L325.175 -31.6833ZM325.202 -29.0915L326.602 -26.4455L322.295 -23.9795L322.242 -28.9927L325.202 -29.0915ZM483.541 303.708L485.51 305.934L479.853 311.225L480.594 303.476L483.541 303.708ZM490.975 293.272L493.685 294.436L493.685 294.436L490.975 293.272ZM423.896 217.046L424.892 214.164L424.892 214.164L423.896 217.046ZM423.296 216.843L422.31 219.729L418.526 218.441L420.92 215.083L423.296 216.843ZM458.38 78.3064L461.341 78.216V78.216L458.38 78.3064ZM447.173 -1.11078L444.229 -0.720535L450.003 -2.06477L447.173 -1.11078ZM449.184 35.0972L452.145 35.007V35.007L449.184 35.0972ZM382.775 203.787L383.006 206.81L383.006 206.81L382.775 203.787ZM326.697 140.285L323.874 141.262L323.7 140.701L323.746 140.109L326.697 140.285ZM327.646 126.593L326.831 123.691L330.865 122.416L330.602 126.718L327.646 126.593ZM323.234 127.925L323.976 130.849L321.106 131.675L320.367 128.745L323.234 127.925ZM313.777 48.9434L310.816 49.0337L310.816 49.0336L313.777 48.9434ZM314.861 16.616L311.994 15.9197L317.813 16.7869L314.861 16.616ZM306.052 93.9544L303.091 94.0449L303.092 94.0449L306.052 93.9544ZM312.028 152.583L314.926 151.894L315.051 152.502L314.932 153.116L312.028 152.583ZM276.813 226.118L277.092 229.136L277.092 229.136L276.813 226.118ZM265.096 221.767L263.165 224.113L255.696 217.688L265.468 218.745L265.096 221.767ZM274.846 223.421L277.426 224.854L276.313 226.909L274.113 226.381L274.846 223.421ZM276.549 212.693L279.246 211.379L279.246 211.379L276.549 212.693ZM253.979 206.922L254.166 209.95L252.299 210.112L251.391 208.455L253.979 206.922ZM220.435 75.4157L217.481 75.686L223.369 74.9377L220.435 75.4157ZM239.584 209.089L242.453 208.274L243.244 211.434L240.096 212.07L239.584 209.089ZM216.629 215L217.413 217.912L212.463 219.417L213.764 214.293L216.629 215ZM218.592 205.47L215.863 204.351L221.514 205.894L218.592 205.47ZM213.716 215.902L216.31 217.31L215.714 218.433L214.526 218.806L213.716 215.902ZM141.127 245.644L139.89 242.911L139.89 242.911L141.127 245.644ZM90.3708 273.859L91.8772 276.441L90.8187 277.106L89.6284 276.816L90.3708 273.859ZM25.3142 219.788L22.6148 221.096L22.6148 221.096L25.3142 219.788ZM17.4959 167.021L14.8172 165.786L20.4358 167.318L17.4959 167.021ZM15.7278 249.011L13.0284 250.319L13.0284 250.319L15.7278 249.011ZM60.7884 294.346L62.0422 291.567L66.5644 293.636L62.5411 296.756L60.7884 294.346ZM30.4912 334.159L27.7944 335.472L27.7943 335.472L30.4912 334.159ZM59.3819 339.18L62.2443 339.894L61.7308 341.896L59.7386 342.187L59.3819 339.18ZM82.3458 301.313L80.2057 299.261L81.3531 298.004L82.9754 298.331L82.3458 301.313ZM154.081 291.086L155.324 293.815L155.324 293.815L154.081 291.086ZM212.953 226.68L210.195 225.637L210.771 224.109L212.32 223.727L212.953 226.68ZM242.937 221.64L242.769 218.611L245.121 218.422L245.78 220.728L242.937 221.64ZM282.158 282.098L282.41 285.119L282.41 285.119L282.158 282.098ZM321.672 186.436L318.743 186.052L320.404 174.593L324.436 185.287L321.672 186.436ZM336.185 215.542L338.646 213.799L340.603 216.758L337.384 218.293L336.185 215.542ZM317.434 233.509L314.724 232.345L314.724 232.345L317.434 233.509ZM332.877 279.223L335.745 279.916L334.46 285.072L330.793 281.428L332.877 279.223ZM335.705 270.812L332.997 269.643L332.997 269.643L335.705 270.812ZM336.489 269.06L339.42 268.568L339.547 269.483L339.153 270.326L336.489 269.06ZM340.614 241.386L337.905 240.218L337.905 240.218L340.614 241.386ZM347.38 229.477L345.024 227.687L347.078 224.877L349.474 227.283L347.38 229.477ZM383.494 244.519L383.727 247.542L383.727 247.542L383.494 244.519ZM411.254 230.735L409.296 228.499L412.725 225.324L414.081 229.771L411.254 230.735ZM411.336 231L411.033 234.028L409.074 233.864L408.503 231.943L411.336 231ZM433.093 235.568L434.085 232.683L434.085 232.684L433.093 235.568ZM163.129 265.136L164.373 267.865L164.373 267.865L163.129 265.136ZM109.65 276.631L109.45 279.666L101.274 279.278L107.915 274.207L109.65 276.631ZM156.683 247.634L155.443 244.902L155.443 244.902L156.683 247.634ZM205.935 228.529L205.214 225.599L213.225 223.359L208.316 230.282L205.935 228.529ZM543.381 285.774L542.619 288.727L542.619 288.727L543.381 285.774ZM564.077 270.881L565.041 267.987L569.005 269.3L566.394 272.722L564.077 270.881ZM560.819 154.598L558.022 153.662V153.662L560.819 154.598ZM635.549 57.9237L638.509 57.7791L638.604 61.519L635.015 60.9236L635.549 57.9237ZM627.331 36.3218L628.092 33.3693L628.093 33.3694L627.331 36.3218ZM557.783 154.125L554.987 153.189V153.189L557.783 154.125ZM325.394 -29.2006L322.445 -28.8671C322.373 -29.6917 322.3 -30.5161 322.226 -31.3422L325.175 -31.6833L328.124 -32.0244C328.197 -31.1994 328.271 -30.3675 328.343 -29.5341L325.394 -29.2006ZM325.175 -31.6833L328.136 -31.788C328.147 -30.9204 328.154 -30.0421 328.163 -29.1902L325.202 -29.0915L322.242 -28.9927C322.232 -29.8657 322.225 -30.717 322.214 -31.5786L325.175 -31.6833ZM325.202 -29.0915L323.802 -31.7374C323.846 -31.7621 323.974 -31.8348 323.997 -31.848L325.394 -29.2006L326.792 -26.5532C326.687 -26.4937 326.686 -26.4936 326.602 -26.4455L325.202 -29.0915ZM483.541 303.708L481.572 301.482C484.541 298.706 486.792 295.573 488.265 292.108L490.975 293.272L493.685 294.436C491.833 298.793 489.041 302.631 485.51 305.934L483.541 303.708ZM490.975 293.272L488.265 292.108C493.016 280.927 489.087 267.244 477.268 253.813C465.531 240.475 446.503 228.058 422.9 219.929L423.896 217.046L424.892 214.164C449.21 222.538 469.16 235.436 481.701 249.687C494.159 263.844 499.809 280.022 493.685 294.436L490.975 293.272ZM423.896 217.046L422.9 219.929C422.706 219.862 422.527 219.803 422.31 219.729L423.296 216.843L424.282 213.956C424.465 214.018 424.687 214.093 424.892 214.164L423.896 217.046ZM423.296 216.843L420.92 215.083C441.893 185.66 455.876 134.957 455.42 78.3969L458.38 78.3064L461.341 78.216C461.804 135.595 447.664 187.752 425.673 218.602L423.296 216.843ZM458.38 78.3064L455.42 78.3969C455.185 49.2688 451.148 22.4367 444.342 -0.15679L447.173 -1.11078L450.003 -2.06477C456.994 21.143 461.102 48.5629 461.341 78.216L458.38 78.3064ZM447.173 -1.11078L450.117 -1.50103C451.346 10.1797 452.044 22.3985 452.145 35.007L449.184 35.0972L446.223 35.1874C446.124 22.7758 445.437 10.7573 444.229 -0.720535L447.173 -1.11078ZM449.184 35.0972L452.145 35.007C452.505 79.9922 445.205 121.622 433.011 152.597C426.916 168.08 419.547 181.029 411.192 190.404C402.836 199.779 393.323 205.755 383.006 206.81L382.775 203.787L382.544 200.763C390.923 199.906 399.149 195.008 406.861 186.355C414.574 177.701 421.605 165.469 427.527 150.425C439.368 120.347 446.578 79.5437 446.223 35.1874L449.184 35.0972ZM382.775 203.787L383.006 206.81C370.25 208.114 358.534 201.688 348.599 190.173C338.667 178.662 330.233 161.781 323.874 141.262L326.697 140.285L329.521 139.308C335.736 159.362 343.851 175.406 353.069 186.09C362.284 196.77 372.32 201.809 382.544 200.763L382.775 203.787ZM326.697 140.285L323.746 140.109C324.091 135.633 324.409 131.084 324.691 126.468L327.646 126.593L330.602 126.718C330.317 131.37 329.997 135.952 329.649 140.46L326.697 140.285ZM327.646 126.593L328.462 129.495C326.958 129.971 325.462 130.422 323.976 130.849L323.234 127.925L322.493 125C323.929 124.587 325.376 124.151 326.831 123.691L327.646 126.593ZM323.234 127.925L320.367 128.745C314.5 105.491 311.05 78.3074 310.816 49.0337L313.777 48.9434L316.738 48.8531C316.968 77.6852 320.367 104.374 326.102 127.104L323.234 127.925ZM313.777 48.9434L310.816 49.0336C310.727 37.925 311.107 27.0245 311.909 16.445L314.861 16.616L317.813 16.7869C317.024 27.1923 316.65 37.9185 316.738 48.8532L313.777 48.9434ZM314.861 16.616L317.728 17.3122C311.974 40.3049 308.792 66.4227 309.013 93.864L306.052 93.9544L303.092 94.0449C302.866 66.104 306.104 39.4558 311.994 15.9197L314.861 16.616ZM306.052 93.9544L309.013 93.864C309.18 114.6 311.275 134.178 314.926 151.894L312.028 152.583L309.131 153.273C305.395 135.143 303.262 115.163 303.091 94.0449L306.052 93.9544ZM312.028 152.583L314.932 153.116C310.612 175.324 305.339 193.568 299.245 206.553C296.199 213.043 292.885 218.357 289.277 222.204C285.661 226.058 281.592 228.6 277.092 229.136L276.813 226.118L276.534 223.1C279.214 222.78 282.063 221.226 285.053 218.038C288.051 214.843 291.032 210.167 293.92 204.012C299.695 191.706 304.849 174.039 309.125 152.05L312.028 152.583ZM276.813 226.118L277.092 229.136C272.098 229.731 267.409 227.764 263.165 224.113L265.096 221.767L267.026 219.421C270.477 222.389 273.628 223.446 276.534 223.1L276.813 226.118ZM265.096 221.767L265.468 218.745C269.016 219.129 272.394 219.698 275.578 220.462L274.846 223.421L274.113 226.381C271.192 225.68 268.056 225.149 264.723 224.789L265.096 221.767ZM274.846 223.421L272.265 221.989C274.416 218.018 274.523 215.51 273.852 214.006L276.549 212.693L279.246 211.379C281.091 215.514 279.903 220.283 277.426 224.854L274.846 223.421ZM276.549 212.693L273.853 214.006C273.256 212.67 271.696 211.317 268.261 210.47C264.864 209.632 260.14 209.43 254.166 209.95L253.979 206.922L253.792 203.894C260.061 203.349 265.496 203.507 269.761 204.559C273.987 205.601 277.59 207.667 279.246 211.379L276.549 212.693ZM253.979 206.922L251.391 208.455C237.532 183.176 225.532 135.704 217.502 75.8938L220.435 75.4157L223.369 74.9377C231.386 134.652 243.281 181.155 256.567 205.389L253.979 206.922ZM220.435 75.4157L223.389 75.1455C226.807 126.884 233.616 172.955 242.453 208.274L239.584 209.089L236.715 209.904C227.766 174.139 220.916 127.687 217.481 75.686L220.435 75.4157ZM239.584 209.089L240.096 212.07C233.268 213.45 225.653 215.407 217.413 217.912L216.629 215L215.844 212.088C224.227 209.54 232.027 207.532 239.073 206.108L239.584 209.089ZM216.629 215L213.764 214.293C214.543 211.23 215.18 208.144 215.669 205.047L218.592 205.47L221.514 205.894C220.994 209.186 220.317 212.461 219.493 215.707L216.629 215ZM218.592 205.47L221.32 206.59C219.837 210.235 218.164 213.814 216.31 217.31L213.716 215.902L211.122 214.494C212.878 211.184 214.46 207.798 215.863 204.351L218.592 205.47ZM213.716 215.902L214.526 218.806C193.352 225.451 168.413 235.518 142.363 248.377L141.127 245.644L139.89 242.911C166.171 229.938 191.396 219.748 212.906 212.997L213.716 215.902ZM141.127 245.644L142.363 248.377C123.901 257.491 106.816 267.054 91.8772 276.441L90.3708 273.859L88.8643 271.277C103.99 261.772 121.256 252.11 139.89 242.911L141.127 245.644ZM90.3708 273.859L89.6284 276.816C60.6361 269.752 35.5732 250.304 22.6148 221.096L25.3142 219.788L28.0135 218.48C40.1807 245.905 63.7272 264.229 91.1132 270.902L90.3708 273.859ZM25.3142 219.788L22.6148 221.096C14.8857 203.674 12.4319 184.957 14.556 166.725L17.4959 167.021L20.4358 167.318C18.434 184.501 20.7476 202.102 28.0135 218.48L25.3142 219.788ZM17.4959 167.021L20.1746 168.257C8.62792 193.666 7.17835 222.349 18.4271 247.703L15.7278 249.011L13.0284 250.319C0.990981 223.187 2.61631 192.635 14.8172 165.786L17.4959 167.021ZM15.7278 249.011L18.4271 247.703C27.3867 267.898 43.0134 282.86 62.0422 291.567L60.7884 294.346L59.5345 297.126C39.3175 287.876 22.6118 271.92 13.0284 250.319L15.7278 249.011ZM60.7884 294.346L62.5411 296.756C51.6494 305.203 43.4083 312.96 38.3611 319.479C35.8338 322.744 34.2135 325.564 33.4117 327.894C32.6147 330.21 32.7096 331.772 33.188 332.845L30.4912 334.159L27.7943 335.472C26.4774 332.52 26.7166 329.223 27.8324 325.981C28.9434 322.752 31.0042 319.316 33.755 315.762C39.264 308.646 47.9669 300.521 59.0356 291.936L60.7884 294.346ZM30.4912 334.159L33.1879 332.845C33.8847 334.406 35.915 335.977 40.5345 336.737C45.038 337.478 51.2697 337.308 59.0253 336.172L59.3819 339.18L59.7386 342.187C51.7223 343.362 44.8187 343.617 39.4748 342.738C34.2469 341.878 29.7177 339.783 27.7944 335.472L30.4912 334.159ZM59.3819 339.18L56.5196 338.465C59.7127 326.019 68.0885 312.531 80.2057 299.261L82.3458 301.313L84.4859 303.365C72.7291 316.24 65.0818 328.834 62.2443 339.894L59.3819 339.18ZM82.3458 301.313L82.9754 298.331C105.078 302.778 129.667 299.867 152.837 288.356L154.081 291.086L155.324 293.815C130.994 305.903 105.091 308.999 81.7162 304.295L82.3458 301.313ZM154.081 291.086L152.837 288.356C180.426 274.65 200.442 251.511 210.195 225.637L212.953 226.68L215.712 227.723C205.399 255.085 184.288 279.425 155.324 293.815L154.081 291.086ZM212.953 226.68L212.32 223.727C223.02 221.087 233.256 219.375 242.769 218.611L242.937 221.64L243.105 224.669C233.943 225.406 224.02 227.06 213.586 229.634L212.953 226.68ZM242.937 221.64L245.78 220.728C251.317 240.118 257.462 255.307 263.869 265.388C270.41 275.681 276.56 279.663 281.906 279.076L282.158 282.098L282.41 285.119C273.497 286.097 265.607 279.358 258.888 268.784C252.034 258 245.698 242.176 240.094 222.552L242.937 221.64ZM282.158 282.098L281.905 279.077C285.156 278.719 288.608 276.661 292.19 272.372C295.769 268.088 299.254 261.831 302.542 253.692C309.113 237.428 314.653 214.264 318.743 186.052L321.672 186.436L324.6 186.82C320.477 215.259 314.846 238.983 308.006 255.915C304.588 264.374 300.809 271.292 296.652 276.27C292.498 281.243 287.745 284.533 282.41 285.119L282.158 282.098ZM321.672 186.436L324.436 185.287C328.539 196.169 333.33 205.758 338.646 213.799L336.185 215.542L333.723 217.285C328.122 208.813 323.14 198.813 318.907 187.585L321.672 186.436ZM336.185 215.542L337.384 218.293C328.935 222.321 323.028 227.887 320.144 234.673L317.434 233.509L314.724 232.345C318.369 223.766 325.622 217.255 334.985 212.791L336.185 215.542ZM317.434 233.509L320.144 234.673C314.909 246.995 320.243 262.393 334.96 277.019L332.877 279.223L330.793 281.428C315.502 266.232 307.972 248.236 314.724 232.345L317.434 233.509ZM332.877 279.223L330.009 278.531C330.753 275.542 331.745 272.573 332.997 269.643L335.705 270.812L338.412 271.981C337.293 274.602 336.408 277.253 335.745 279.916L332.877 279.223ZM335.705 270.812L332.997 269.643C333.264 269.018 333.54 268.402 333.824 267.795L336.489 269.06L339.153 270.326C338.896 270.876 338.649 271.427 338.412 271.981L335.705 270.812ZM336.489 269.06L333.557 269.553C332.287 260.424 333.642 250.213 337.905 240.218L340.614 241.386L343.322 242.554C339.472 251.579 338.317 260.642 339.42 268.568L336.489 269.06ZM340.614 241.386L337.905 240.218C339.843 235.676 342.256 231.477 345.024 227.687L347.38 229.477L349.735 231.266C347.243 234.676 345.069 238.459 343.322 242.554L340.614 241.386ZM347.38 229.477L349.474 227.283C359.855 237.709 371.351 242.719 383.262 241.495L383.494 244.519L383.727 247.542C369.623 248.991 356.519 242.953 345.285 231.671L347.38 229.477ZM383.494 244.519L383.262 241.495C392.308 240.566 401.087 236.102 409.296 228.499L411.254 230.735L413.212 232.971C404.283 241.241 394.339 246.452 383.727 247.542L383.494 244.519ZM411.254 230.735L414.081 229.771C414.089 229.796 414.097 229.822 414.114 229.874C414.128 229.918 414.149 229.984 414.17 230.056L411.336 231L408.503 231.943C408.464 231.813 408.498 231.935 408.427 231.7L411.254 230.735ZM411.336 231L411.64 227.971C419.119 228.597 426.67 230.142 434.085 232.683L433.093 235.568L432.101 238.452C425.138 236.065 418.05 234.615 411.033 234.028L411.336 231ZM433.093 235.568L434.085 232.684C468.26 244.397 489.365 273.857 486.488 303.94L483.541 303.708L480.594 303.476C483.141 276.852 464.393 249.52 432.101 238.452L433.093 235.568ZM163.129 265.136L164.373 267.865C146.443 276.773 127.563 280.526 109.45 279.666L109.65 276.631L109.85 273.595C126.98 274.408 144.866 270.862 161.886 262.406L163.129 265.136ZM109.65 276.631L107.915 274.207C121.736 263.654 137.781 253.647 155.443 244.902L156.683 247.634L157.923 250.365C140.59 258.947 124.879 268.75 111.384 279.055L109.65 276.631ZM156.683 247.634L155.443 244.902C172.406 236.504 189.265 230.058 205.214 225.599L205.935 228.529L206.656 231.46C191.081 235.815 174.568 242.123 157.923 250.365L156.683 247.634ZM205.935 228.529L208.316 230.282C197.35 245.749 182.465 258.876 164.373 267.865L163.129 265.136L161.886 262.406C179.06 253.873 193.168 241.424 203.554 226.776L205.935 228.529ZM543.381 285.774L544.142 282.822C545.546 283.174 547.752 282.732 550.975 280.374C554.129 278.067 557.768 274.272 561.761 269.039L564.077 270.881L566.394 272.722C562.229 278.18 558.172 282.496 554.343 285.297C550.585 288.046 546.521 289.706 542.619 288.727L543.381 285.774ZM564.077 270.881L563.113 273.774C556.767 271.672 552.202 266.325 549.187 259.142C546.175 251.963 544.571 242.658 544.263 231.956C543.648 210.531 548.212 182.835 558.022 153.662L560.819 154.598L563.616 155.534C553.976 184.2 549.594 211.142 550.183 231.647C550.478 241.91 552.014 250.393 554.634 256.637C557.252 262.877 560.813 266.587 565.041 267.987L564.077 270.881ZM560.819 154.598L558.022 153.662C567.815 124.545 581.096 99.1248 594.836 81.3773C601.701 72.5094 608.762 65.451 615.654 60.8262C622.519 56.22 629.519 53.8348 636.082 54.9238L635.549 57.9237L635.015 60.9236C630.479 60.171 625.015 61.7347 618.82 65.8913C612.652 70.0293 606.058 76.5478 599.442 85.0943C586.218 102.176 573.234 126.934 563.616 155.534L560.819 154.598ZM635.549 57.9237L632.589 58.0683C632.434 51.9805 631.704 47.2929 630.51 44.0677C629.306 40.8155 627.857 39.5976 626.569 39.2741L627.331 36.3218L628.093 33.3694C632.032 34.3588 634.533 37.7024 636.052 41.8032C637.58 45.9311 638.346 51.388 638.509 57.7791L635.549 57.9237ZM627.331 36.3218L626.569 39.2742C625.57 39.0234 624.164 39.1621 622.202 40.1712C620.237 41.1822 617.939 42.9572 615.355 45.5704C610.19 50.7926 604.298 58.9313 598.064 69.4913C585.618 90.573 572.121 120.767 560.58 155.061L557.783 154.125L554.987 153.189C566.628 118.599 580.291 87.9794 593.017 66.4247C599.368 55.6666 605.564 47.0314 611.245 41.2871C614.083 38.417 616.898 36.1606 619.64 34.75C622.387 33.3374 625.284 32.6643 628.092 33.3693L627.331 36.3218ZM557.783 154.125L560.58 155.061C549.038 189.359 541.696 221.087 539.121 244.622C537.83 256.419 537.759 265.974 538.867 272.71C539.422 276.081 540.244 278.565 541.224 280.24C542.183 281.878 543.185 282.582 544.143 282.822L543.381 285.774L542.619 288.727C539.769 288.011 537.643 286.036 536.13 283.45C534.638 280.901 533.647 277.615 533.027 273.846C531.786 266.303 531.92 256.1 533.236 244.073C535.874 219.961 543.347 187.776 554.987 153.189L557.783 154.125Z" fill="#AAAAAA" mask="url(#path-1-inside-1_3516_4694)"/>
</g>
<defs>
<clipPath id="clip0_3516_4694">
<rect width="638" height="341" fill="white"/>
</clipPath>
</defs>
</svg>
