<svg width="600" height="447" viewBox="0 0 600 447" fill="none" xmlns="http://www.w3.org/2000/svg">
<g clip-path="url(#clip0_3516_4727)">
<mask id="path-1-inside-1_3516_4727" fill="white">
<path d="M606.835 328.819C417.867 240.3 257.337 196.833 241.103 231.292C226.145 263.047 338.659 350.481 502.136 437.839C486.466 430.868 470.529 423.446 454.43 415.6C380.117 379.38 314.917 340.229 267.084 304.697C272.204 319.219 273.744 334.102 270.979 348.479C269.966 353.751 268.408 358.761 266.359 363.491C264.4 305.326 219.488 248.843 156.256 230.222C153.361 229.37 150.471 228.611 147.591 227.941C135.668 228.206 123.393 226.976 111.102 224.18C60.6579 225.597 18.1017 255.024 4.4327 301.375C2.22969 290.82 1.98575 280.203 3.97657 269.85C9.93456 238.867 34.5987 216.919 68.3335 207.753C57.2085 201.584 47.1389 194.337 38.2409 186.284C56.9339 194.65 75.832 200.328 94.1319 203.41C107.597 202.407 121.93 203.164 136.688 205.854C176.429 203.41 209.232 186.877 224.509 157.446C249.335 109.621 219.678 43.5442 157.489 -0.680106C164.125 1.72881 170.715 4.61009 177.204 7.97822C244.221 42.7657 275.082 116.174 246.135 171.94C243.229 177.538 239.83 182.746 235.999 187.55C296.774 191.398 403.071 225.697 517.594 281.515C549.202 296.92 579.159 312.857 606.835 328.819ZM185.835 221.539C185.712 221.579 185.589 221.62 185.466 221.66C185.638 221.742 185.81 221.822 185.981 221.904C185.931 221.782 185.883 221.661 185.835 221.539Z"/>
</mask>
<path d="M606.835 328.819L605.562 331.535L608.334 326.22L606.835 328.819ZM241.103 231.292L238.389 230.014L238.389 230.014L241.103 231.292ZM502.136 437.839L500.916 440.58L503.55 435.193L502.136 437.839ZM454.43 415.6L453.116 418.296V418.296L454.43 415.6ZM267.084 304.697L268.873 302.289L260.99 296.433L264.255 305.695L267.084 304.697ZM270.979 348.479L273.925 349.045V349.045L270.979 348.479ZM266.359 363.491L263.36 363.592L269.111 364.684L266.359 363.491ZM156.256 230.222L157.104 227.344V227.344L156.256 230.222ZM147.591 227.941L148.27 225.019L147.902 224.933L147.524 224.942L147.591 227.941ZM111.102 224.18L111.767 221.255L111.397 221.171L111.018 221.181L111.102 224.18ZM4.4327 301.375L1.49597 301.988L7.3102 302.223L4.4327 301.375ZM3.97657 269.85L1.03055 269.284L1.03054 269.284L3.97657 269.85ZM68.3335 207.753L69.1201 210.648L76.2484 208.711L69.7883 205.129L68.3335 207.753ZM38.2409 186.284L39.4665 183.546L36.2279 188.508L38.2409 186.284ZM94.1319 203.41L93.6337 206.368L93.9922 206.429L94.3548 206.402L94.1319 203.41ZM136.688 205.854L136.15 208.806L136.508 208.871L136.872 208.849L136.688 205.854ZM224.509 157.446L227.172 158.829L227.172 158.829L224.509 157.446ZM157.489 -0.680106L158.512 -3.5001L155.75 1.76476L157.489 -0.680106ZM177.204 7.97822L178.586 5.31558V5.31558L177.204 7.97822ZM246.135 171.94L248.797 173.322V173.322L246.135 171.94ZM235.999 187.55L233.654 185.68L230.065 190.181L235.81 190.544L235.999 187.55ZM517.594 281.515L518.908 278.818V278.818L517.594 281.515ZM185.835 221.539L188.623 220.432L187.581 217.808L184.899 218.689L185.835 221.539ZM185.466 221.66L184.539 218.807L177.38 221.132L184.176 224.369L185.466 221.66ZM185.981 221.904L184.683 224.609L191.683 227.968L188.76 220.775L185.981 221.904ZM606.835 328.819L608.107 326.102C513.522 281.795 425.975 248.725 359.97 231.041C326.992 222.206 299.24 217.169 278.614 216.547C268.313 216.236 259.604 217.018 252.849 219.091C246.095 221.162 240.915 224.653 238.389 230.014L241.103 231.292L243.817 232.571C245.35 229.317 248.738 226.628 254.608 224.827C260.477 223.026 268.45 222.243 278.433 222.544C298.378 223.146 325.613 228.048 358.417 236.837C423.977 254.401 511.18 287.324 605.562 331.535L606.835 328.819ZM241.103 231.292L238.389 230.014C236.068 234.943 236.371 240.656 238.489 246.694C240.604 252.726 244.626 259.382 250.229 266.528C261.445 280.832 279.431 297.64 302.851 316.072C349.73 352.966 418.893 396.757 500.722 440.485L502.136 437.839L503.55 435.193C421.902 391.563 353.069 347.958 306.562 311.357C283.288 293.041 265.733 276.577 254.951 262.826C249.555 255.945 245.964 249.877 244.151 244.708C242.34 239.546 242.399 235.581 243.817 232.571L241.103 231.292ZM502.136 437.839L503.355 435.098C487.717 428.141 471.812 420.734 455.745 412.903L454.43 415.6L453.116 418.296C469.246 426.158 485.214 433.594 500.916 440.58L502.136 437.839ZM454.43 415.6L455.745 412.903C381.56 376.746 316.527 337.687 268.873 302.289L267.084 304.697L265.295 307.105C313.308 342.771 378.674 382.014 453.116 418.296L454.43 415.6ZM267.084 304.697L264.255 305.695C269.223 319.787 270.684 334.129 268.033 347.912L270.979 348.479L273.925 349.045C276.804 334.076 275.184 318.651 269.913 303.7L267.084 304.697ZM270.979 348.479L268.033 347.912C267.061 352.969 265.568 357.769 263.606 362.298L266.359 363.491L269.111 364.684C271.248 359.752 272.87 354.532 273.925 349.045L270.979 348.479ZM266.359 363.491L269.357 363.39C267.351 303.807 221.45 246.294 157.104 227.344L156.256 230.222L155.409 233.1C217.525 251.393 261.449 306.845 263.36 363.592L266.359 363.491ZM156.256 230.222L157.104 227.344C154.153 226.475 151.206 225.702 148.27 225.019L147.591 227.941L146.911 230.863C149.736 231.52 152.57 232.264 155.409 233.1L156.256 230.222ZM147.591 227.941L147.524 224.942C135.853 225.201 123.823 223.997 111.767 221.255L111.102 224.18L110.437 227.105C122.962 229.955 135.483 231.21 147.657 230.94L147.591 227.941ZM111.102 224.18L111.018 221.181C59.4558 222.629 15.6403 252.764 1.55519 300.526L4.4327 301.375L7.3102 302.223C20.5632 257.283 61.8601 228.564 111.186 227.179L111.102 224.18ZM4.4327 301.375L7.36942 300.762C5.2401 290.56 5.01331 280.346 6.9226 270.417L3.97657 269.85L1.03054 269.284C-1.04184 280.061 -0.780701 291.08 1.49597 301.988L4.4327 301.375ZM3.97657 269.85L6.92258 270.417C12.6084 240.849 36.1726 219.6 69.1201 210.648L68.3335 207.753L67.5469 204.858C33.0247 214.238 7.26076 236.884 1.03055 269.284L3.97657 269.85ZM68.3335 207.753L69.7883 205.129C58.8633 199.072 48.9812 191.958 40.254 184.06L38.2409 186.284L36.2279 188.508C45.2967 196.716 55.5537 204.097 66.8788 210.376L68.3335 207.753ZM38.2409 186.284L37.0154 189.022C55.9327 197.489 75.0746 203.243 93.6337 206.368L94.1319 203.41L94.6302 200.452C76.5893 197.413 57.9351 191.812 39.4665 183.546L38.2409 186.284ZM94.1319 203.41L94.3548 206.402C107.553 205.419 121.63 206.159 136.15 208.806L136.688 205.854L137.226 202.903C122.23 200.169 107.641 199.395 93.9091 200.418L94.1319 203.41ZM136.688 205.854L136.872 208.849C177.258 206.365 211.246 189.508 227.172 158.829L224.509 157.446L221.846 156.064C207.217 184.247 175.6 200.455 136.504 202.86L136.688 205.854ZM224.509 157.446L227.172 158.829C240.105 133.913 238.724 104.461 226.384 75.8448C214.047 47.2331 190.691 19.2491 159.227 -3.12497L157.489 -0.680106L155.75 1.76476C186.477 23.6149 209.043 50.7814 220.875 78.2205C232.705 105.655 233.739 133.154 221.846 156.064L224.509 157.446ZM157.489 -0.680106L156.465 2.13988C162.979 4.50433 169.45 7.33311 175.822 10.6409L177.204 7.97822L178.586 5.31558C171.981 1.88708 165.271 -1.04671 158.512 -3.5001L157.489 -0.680106ZM177.204 7.97822L175.822 10.6409C241.847 44.9137 271.429 116.699 243.472 170.558L246.135 171.94L248.797 173.322C278.735 115.648 246.594 40.6177 178.586 5.31558L177.204 7.97822ZM246.135 171.94L243.472 170.558C240.656 175.982 237.364 181.026 233.654 185.68L235.999 187.55L238.345 189.42C242.295 184.466 245.801 179.095 248.797 173.322L246.135 171.94ZM235.999 187.55L235.81 190.544C295.984 194.354 401.85 228.439 516.28 284.211L517.594 281.515L518.908 278.818C404.291 222.954 297.564 188.442 236.189 184.556L235.999 187.55ZM517.594 281.515L516.28 284.211C547.827 299.587 577.723 315.492 605.336 331.417L606.835 328.819L608.334 326.22C580.596 310.222 550.577 294.253 518.908 278.818L517.594 281.515ZM185.835 221.539L184.899 218.689C184.762 218.734 184.657 218.769 184.539 218.807L185.466 221.66L186.393 224.514C186.521 224.472 186.661 224.425 186.771 224.389L185.835 221.539ZM185.466 221.66L184.176 224.369C184.39 224.471 184.504 224.523 184.683 224.609L185.981 221.904L187.279 219.2C187.116 219.121 186.885 219.013 186.756 218.952L185.466 221.66ZM185.981 221.904L188.76 220.775C188.716 220.667 188.673 220.557 188.623 220.432L185.835 221.539L183.047 222.646C183.093 222.764 183.146 222.898 183.201 223.034L185.981 221.904Z" fill="#AAAAAA" mask="url(#path-1-inside-1_3516_4727)"/>
</g>
<defs>
<clipPath id="clip0_3516_4727">
<rect width="600" height="447" fill="white"/>
</clipPath>
</defs>
</svg>
