<svg width="602" height="445" viewBox="0 0 602 445" fill="none" xmlns="http://www.w3.org/2000/svg">
<g clip-path="url(#clip0_3516_4706)">
<mask id="path-1-inside-1_3516_4706" fill="white">
<path d="M-3.78743 121.342C187.173 205.477 348.662 245.228 364.097 210.404C378.319 178.313 263.817 93.4971 98.3684 9.93476C114.195 16.5426 130.299 23.5945 146.574 31.0674C221.703 65.5627 287.789 103.199 336.429 137.618C330.976 123.218 329.093 108.374 331.525 93.9379C332.417 88.6438 333.858 83.5993 335.798 78.8228C339.098 136.928 385.302 192.359 448.946 209.516C451.86 210.301 454.767 210.993 457.662 211.596C469.575 211.057 481.876 212.003 494.228 214.515C544.626 211.935 586.491 181.533 599.087 134.879C601.533 145.381 602.022 155.989 600.271 166.385C595.029 197.498 570.878 220.009 537.364 229.951C548.628 235.861 558.862 242.874 567.944 250.719C549.063 242.787 530.039 237.547 511.672 234.888C498.234 236.201 483.887 235.775 469.072 233.426C429.397 236.787 396.985 254.072 382.39 283.847C358.675 332.233 389.848 397.607 453.041 440.385C446.351 438.13 439.696 435.402 433.131 432.184C365.33 398.952 332.783 326.275 360.436 269.856C363.212 264.192 366.49 258.907 370.209 254.016C309.361 251.572 202.302 219.735 86.5209 166.574C54.5664 151.902 24.2488 136.66 -3.78743 121.342ZM419.576 218.879C419.698 218.836 419.819 218.792 419.941 218.75C419.768 218.672 419.594 218.596 419.421 218.517C419.474 218.638 419.525 218.759 419.576 218.879Z"/>
</mask>
<path d="M-3.78743 121.342L-2.57785 118.596L-5.22589 123.974L-3.78743 121.342ZM364.097 210.404L366.839 211.619L366.84 211.619L364.097 210.404ZM98.3684 9.93476L99.5242 7.16635L97.0159 12.6126L98.3684 9.93476ZM146.574 31.0674L147.826 28.3411V28.3411L146.574 31.0674ZM336.429 137.618L334.696 140.067L342.713 145.739L339.235 136.555L336.429 137.618ZM331.525 93.9379L328.567 93.4396V93.4396L331.525 93.9379ZM335.798 78.8228L338.793 78.6527L333.018 77.694L335.798 78.8228ZM448.946 209.516L448.165 212.412V212.412L448.946 209.516ZM457.662 211.596L457.05 214.533L457.42 214.61L457.798 214.593L457.662 211.596ZM494.228 214.515L493.63 217.454L494.002 217.53L494.381 217.511L494.228 214.515ZM599.087 134.879L602.009 134.199L596.191 134.097L599.087 134.879ZM600.271 166.385L603.229 166.883L603.229 166.883L600.271 166.385ZM537.364 229.951L536.511 227.075L529.429 229.175L535.97 232.607L537.364 229.951ZM567.944 250.719L566.782 253.485L569.905 248.449L567.944 250.719ZM511.672 234.888L512.102 231.919L511.742 231.867L511.381 231.902L511.672 234.888ZM469.072 233.426L469.541 230.463L469.181 230.406L468.818 230.437L469.072 233.426ZM382.39 283.847L379.697 282.527L379.697 282.527L382.39 283.847ZM453.041 440.385L452.083 443.228L454.723 437.901L453.041 440.385ZM433.131 432.184L431.811 434.878V434.878L433.131 432.184ZM360.436 269.856L357.742 268.536V268.536L360.436 269.856ZM370.209 254.016L372.597 255.832L376.081 251.25L370.329 251.019L370.209 254.016ZM86.5209 166.574L85.2691 169.3V169.3L86.5209 166.574ZM419.576 218.879L416.814 220.05L417.916 222.649L420.577 221.707L419.576 218.879ZM419.941 218.75L420.934 221.581L428.037 219.091L421.169 216.012L419.941 218.75ZM419.421 218.517L420.656 215.783L413.581 212.587L416.669 219.71L419.421 218.517ZM-3.78743 121.342L-4.997 124.087C90.5859 166.2 178.872 197.241 245.267 213.397C278.44 221.469 306.302 225.864 326.936 226.011C337.242 226.084 345.93 225.101 352.636 222.873C359.34 220.646 364.438 217.037 366.839 211.619L364.097 210.404L361.354 209.188C359.897 212.476 356.572 215.243 350.744 217.179C344.919 219.114 336.967 220.082 326.979 220.011C307.025 219.869 279.685 215.597 246.686 207.568C180.738 191.52 92.7993 160.619 -2.57785 118.596L-3.78743 121.342ZM364.097 210.404L366.84 211.619C369.047 206.638 368.612 200.934 366.355 194.946C364.101 188.964 359.927 182.403 354.16 175.388C342.618 161.347 324.249 144.958 300.41 127.071C252.691 91.2687 182.537 49.0845 99.7209 7.25692L98.3684 9.93476L97.0159 12.6126C179.648 54.3474 249.469 96.3521 296.809 131.871C320.498 149.645 338.429 165.699 349.525 179.198C355.078 185.953 358.809 191.936 360.741 197.061C362.67 202.181 362.702 206.146 361.354 209.188L364.097 210.404ZM98.3684 9.93476L97.2125 12.7032C113.007 19.2974 129.078 26.3353 145.323 33.7938L146.574 31.0674L147.826 28.3411C131.519 20.8537 115.384 13.7878 99.5242 7.16635L98.3684 9.93476ZM146.574 31.0674L145.323 33.7938C220.322 68.2295 286.239 105.777 334.696 140.067L336.429 137.618L338.162 135.169C289.339 100.621 223.085 62.8959 147.826 28.3411L146.574 31.0674ZM336.429 137.618L339.235 136.555C333.943 122.582 332.152 108.277 334.483 94.4363L331.525 93.9379L328.567 93.4396C326.034 108.471 328.009 123.855 333.624 138.68L336.429 137.618ZM331.525 93.9379L334.483 94.4363C335.339 89.3578 336.72 84.5247 338.578 79.9517L335.798 78.8228L333.018 77.694C330.996 82.6739 329.495 87.9299 328.567 93.4396L331.525 93.9379ZM335.798 78.8228L332.803 78.9929C336.183 138.514 383.398 194.953 448.165 212.412L448.946 209.516L449.727 206.619C387.205 189.765 342.013 135.341 338.793 78.6527L335.798 78.8228ZM448.946 209.516L448.165 212.412C451.136 213.213 454.099 213.919 457.05 214.533L457.662 211.596L458.274 208.659C455.434 208.068 452.584 207.389 449.727 206.619L448.946 209.516ZM457.662 211.596L457.798 214.593C469.46 214.065 481.514 214.991 493.63 217.454L494.228 214.515L494.825 211.575C482.237 209.015 469.69 208.049 457.526 208.599L457.662 211.596ZM494.228 214.515L494.381 217.511C545.896 214.873 589.004 183.735 601.984 135.661L599.087 134.879L596.191 134.097C583.979 179.332 543.355 208.996 494.074 211.519L494.228 214.515ZM599.087 134.879L596.166 135.56C598.53 145.71 598.992 155.916 597.312 165.887L600.271 166.385L603.229 166.883C605.052 156.061 604.537 145.051 602.009 134.199L599.087 134.879ZM600.271 166.385L597.313 165.887C592.31 195.578 569.243 217.365 536.511 227.075L537.364 229.951L538.217 232.827C572.513 222.653 597.748 199.418 603.229 166.883L600.271 166.385ZM537.364 229.951L535.97 232.607C547.032 238.411 557.075 245.295 565.982 252.99L567.944 250.719L569.905 248.449C560.649 240.453 550.224 233.311 538.758 227.294L537.364 229.951ZM567.944 250.719L569.106 247.954C549.998 239.926 530.728 234.615 512.102 231.919L511.672 234.888L511.242 237.857C529.349 240.478 548.127 245.648 566.782 253.485L567.944 250.719ZM511.672 234.888L511.381 231.902C498.209 233.189 484.118 232.774 469.541 230.463L469.072 233.426L468.602 236.389C483.656 238.776 498.259 239.213 511.964 237.874L511.672 234.888ZM469.072 233.426L468.818 230.437C428.5 233.852 394.91 251.488 379.697 282.527L382.39 283.847L385.084 285.167C399.059 256.655 430.294 239.721 469.325 236.415L469.072 233.426ZM382.39 283.847L379.697 282.527C367.341 307.734 369.402 337.146 382.398 365.47C395.392 393.79 419.388 421.227 451.359 442.869L453.041 440.385L454.723 437.901C423.5 416.765 400.313 390.127 387.852 362.968C375.392 335.813 373.724 308.345 385.084 285.167L382.39 283.847ZM453.041 440.385L453.999 437.542C447.433 435.329 440.899 432.65 434.452 429.49L433.131 432.184L431.811 434.878C438.493 438.153 445.269 440.931 452.083 443.228L453.041 440.385ZM433.131 432.184L434.452 429.49C367.653 396.75 336.423 325.666 363.13 271.177L360.436 269.856L357.742 268.536C329.143 326.885 363.006 401.154 431.811 434.878L433.131 432.184ZM360.436 269.856L363.13 271.177C365.82 265.689 368.995 260.57 372.597 255.832L370.209 254.016L367.82 252.201C363.985 257.245 360.605 262.695 357.742 268.536L360.436 269.856ZM370.209 254.016L370.329 251.019C310.083 248.598 203.458 216.965 87.7727 163.848L86.5209 166.574L85.2691 169.3C201.145 222.505 308.64 254.545 370.088 257.014L370.209 254.016ZM86.5209 166.574L87.7727 163.848C55.8795 149.204 25.6243 133.993 -2.34897 118.709L-3.78743 121.342L-5.22589 123.974C22.8733 139.327 53.2533 154.6 85.2691 169.3L86.5209 166.574ZM419.576 218.879L420.577 221.707C420.713 221.659 420.817 221.622 420.934 221.581L419.941 218.75L418.949 215.918C418.822 215.963 418.683 216.013 418.574 216.051L419.576 218.879ZM419.941 218.75L421.169 216.012C420.952 215.915 420.838 215.865 420.656 215.783L419.421 218.517L418.186 221.251C418.351 221.326 418.584 221.429 418.714 221.487L419.941 218.75ZM419.421 218.517L416.669 219.71C416.715 219.818 416.761 219.926 416.814 220.05L419.576 218.879L422.338 217.708C422.288 217.592 422.232 217.458 422.174 217.324L419.421 218.517Z" fill="#AAAAAA" mask="url(#path-1-inside-1_3516_4706)"/>
</g>
<defs>
<clipPath id="clip0_3516_4706">
<rect width="602" height="445" fill="white"/>
</clipPath>
</defs>
</svg>
